SplineFontDB: 3.0
FontName: Exo-BlackItalic
FullName: Exo Black Italic
FamilyName: Exo
Weight: Black
Copyright: Copyright (c) 2011 Natanael Gama (exo@ndiscovered.com), with Reserved Font Name "Exo"
Version: 1.00
ItalicAngle: 0
UnderlinePosition: -100
UnderlineWidth: 50
Ascent: 800
Descent: 200
sfntRevision: 0x00010000
LayerCount: 2
Layer: 0 1 "Back"  1
Layer: 1 1 "Fore"  0
XUID: [1021 740 1026948222 4017139]
FSType: 0
OS2Version: 4
OS2_WeightWidthSlopeOnly: 0
OS2_UseTypoMetrics: 1
CreationTime: 1265665101
ModificationTime: 1328305021
PfmFamily: 17
TTFWeight: 900
TTFWidth: 5
LineGap: 0
VLineGap: 0
Panose: 2 0 10 3 0 0 0 0 0 0
OS2TypoAscent: 202
OS2TypoAOffset: 1
OS2TypoDescent: -127
OS2TypoDOffset: 1
OS2TypoLinegap: 0
OS2WinAscent: 5
OS2WinAOffset: 1
OS2WinDescent: 0
OS2WinDOffset: 1
HheadAscent: 5
HheadAOffset: 1
HheadDescent: 0
HheadDOffset: 1
OS2SubXSize: 650
OS2SubYSize: 700
OS2SubXOff: 0
OS2SubYOff: 140
OS2SupXSize: 650
OS2SupYSize: 700
OS2SupXOff: 0
OS2SupYOff: 480
OS2StrikeYSize: 49
OS2StrikeYPos: 258
OS2Vendor: 'PfEd'
OS2CodePages: 20000093.00000000
OS2UnicodeRanges: a00000ef.4000204b.00000000.00000000
Lookup: 4 0 0 "'ordn' Ordinals lookup 0"  {"'ordn' Ordinals lookup 0 subtable"  } ['ordn' ('DFLT' <'dflt' > 'grek' <'dflt' > 'latn' <'dflt' > ) ]
Lookup: 1 0 0 "'smcp' Lowercase to Small Capitals lookup 1"  {"'smcp' Lowercase to Small Capitals lookup 1 subtable"  } ['smcp' ('DFLT' <'dflt' > 'grek' <'dflt' > 'latn' <'FRA ' 'dflt' > ) ]
Lookup: 1 0 0 "'c2sc' Capitals to Small Capitals in Latin lookup 2"  {"'c2sc' Capitals to Small Capitals in Latin lookup 2 subtable"  } ['c2sc' ('latn' <'dflt' > ) ]
Lookup: 4 0 0 "'dlig' Discretionary Ligatures lookup 3"  {"'dlig' Discretionary Ligatures lookup 3 subtable"  } ['dlig' ('DFLT' <'dflt' > 'grek' <'dflt' > 'latn' <'dflt' > ) ]
Lookup: 4 0 1 "'liga' Standard Ligatures lookup 4"  {"'liga' Standard Ligatures lookup 4 subtable"  } ['liga' ('DFLT' <'dflt' > 'grek' <'dflt' > 'latn' <'FRA ' 'dflt' > ) ]

StartChar: .notdef
Encoding: 0 -1 0
AltUni2: 000000.ffffffff.0
Width: 758
Flags: W
LayerCount: 2
Fore
SplineSet
100 0 m 1,0,-1
 100 531 l 1,1,-1
 658 531 l 1,2,-1
 658 0 l 1,3,-1
 100 0 l 1,0,-1
114 22 m 1,4,-1
 370 266 l 1,5,-1
 114 507 l 1,6,-1
 114 22 l 1,4,-1
124 518 m 1,7,-1
 381 276 l 1,8,-1
 635 518 l 1,9,-1
 124 518 l 1,7,-1
127 13 m 1,10,-1
 634 13 l 1,11,-1
 381 256 l 1,12,-1
 127 13 l 1,10,-1
392 266 m 1,13,-1
 644 25 l 1,14,-1
 644 506 l 1,15,-1
 392 266 l 1,13,-1
EndSplineSet
EndChar

StartChar: exclam
Encoding: 33 33 4
Width: 277
GlyphClass: 2
Flags: W
LayerCount: 2
Fore
SplineSet
104 165 m 2,0,-1
 219 165 l 2,1,2
 239 165 239 165 239 147 c 0,3,4
 239 144 239 144 238 140 c 2,5,-1
 219 23 l 2,6,7
 216 0 216 0 193 0 c 2,8,-1
 78 0 l 2,9,10
 54 0 54 0 57 23 c 2,11,-1
 76 140 l 1,12,13
 79 165 79 165 104 165 c 2,0,-1
94 196 m 1,14,-1
 161 731 l 1,15,-1
 345 731 l 1,16,-1
 240 196 l 1,17,-1
 94 196 l 1,14,-1
EndSplineSet
Substitution2: "'smcp' Lowercase to Small Capitals lookup 1 subtable" exclam.smcp
EndChar

StartChar: quotedbl
Encoding: 34 34 5
Width: 497
GlyphClass: 2
Flags: W
LayerCount: 2
Fore
SplineSet
144 531 m 1,0,-1
 153 665 l 1,1,-1
 164 732 l 1,2,-1
 348 732 l 1,3,-1
 337 665 l 1,4,-1
 306 531 l 1,5,-1
 144 531 l 1,0,-1
360 531 m 1,6,-1
 371 665 l 1,7,-1
 382 732 l 1,8,-1
 566 732 l 1,9,-1
 555 665 l 1,10,-1
 524 531 l 1,11,-1
 360 531 l 1,6,-1
EndSplineSet
Substitution2: "'smcp' Lowercase to Small Capitals lookup 1 subtable" quotedbl.smcp
EndChar

StartChar: numbersign
Encoding: 35 35 6
Width: 749
GlyphClass: 2
Flags: W
LayerCount: 2
Fore
SplineSet
41 192 m 1,0,-1
 82 324 l 1,1,-1
 229 324 l 1,2,-1
 258 409 l 1,3,-1
 109 409 l 1,4,-1
 151 541 l 1,5,-1
 305 541 l 1,6,-1
 373 732 l 1,7,-1
 505 732 l 1,8,-1
 437 541 l 1,9,-1
 525 541 l 1,10,-1
 592 732 l 1,11,-1
 724 732 l 1,12,-1
 657 541 l 1,13,-1
 824 541 l 1,14,-1
 784 409 l 1,15,-1
 616 409 l 1,16,-1
 587 323 l 1,17,-1
 755 323 l 1,18,-1
 716 191 l 1,19,-1
 536 191 l 1,20,-1
 469 0 l 1,21,-1
 337 0 l 1,22,-1
 404 191 l 1,23,-1
 315 192 l 1,24,-1
 248 0 l 1,25,-1
 116 0 l 1,26,-1
 183 192 l 1,27,-1
 41 192 l 1,0,-1
361 324 m 1,28,-1
 455 323 l 1,29,-1
 484 409 l 1,30,-1
 390 409 l 1,31,-1
 361 324 l 1,28,-1
EndSplineSet
Substitution2: "'smcp' Lowercase to Small Capitals lookup 1 subtable" numbersign.smcp
EndChar

StartChar: dollar
Encoding: 36 36 7
Width: 566
GlyphClass: 2
Flags: W
LayerCount: 2
Fore
SplineSet
309 166 m 0,0,1
 341 166 341 166 356 175.5 c 128,-1,2
 371 185 371 185 375 207 c 1,3,-1
 377 223 l 2,4,5
 378 230 378 230 378 239 c 0,6,7
 378 267 378 267 331 267 c 2,8,-1
 271 267 l 2,9,10
 179 267 179 267 142 319 c 256,11,12
 105 371 105 371 104 423 c 0,13,14
 104 438 104 438 104 450 c 0,15,16
 104 484 104 484 108 505 c 1,17,-1
 116 566 l 1,18,19
 132 669 132 669 200 704 c 0,20,21
 257 734 257 734 350 738 c 1,22,-1
 363 824 l 1,23,-1
 471 824 l 1,24,-1
 458 738 l 1,25,26
 543 734 543 734 621 705 c 1,27,-1
 597 554 l 1,28,29
 507 564 507 564 425.5 564 c 128,-1,30
 344 564 344 564 328 557 c 128,-1,31
 312 550 312 550 307 520 c 2,32,-1
 305 509 l 2,33,34
 304 501 304 501 304 490.5 c 128,-1,35
 304 480 304 480 312 470.5 c 128,-1,36
 320 461 320 461 358 461 c 2,37,-1
 422 461 l 2,38,39
 476 461 476 461 512 435 c 128,-1,40
 548 409 548 409 560 372 c 1,41,42
 580 316 580 316 580 279 c 128,-1,43
 580 242 580 242 575 224 c 1,44,-1
 570 191 l 2,45,46
 548 48 548 48 454 11 c 0,47,48
 423 -1 423 -1 398.5 -4 c 128,-1,49
 374 -7 374 -7 340 -8 c 1,50,-1
 327 -90 l 1,51,-1
 219 -90 l 1,52,-1
 232 -8 l 1,53,54
 198 -8 198 -8 179 -6 c 128,-1,55
 160 -4 160 -4 154.5 -3.5 c 128,-1,56
 149 -3 149 -3 139.5 -0.5 c 128,-1,57
 130 2 130 2 126.5 3 c 128,-1,58
 123 4 123 4 111.5 7.5 c 128,-1,59
 100 11 100 11 96.5 12.5 c 128,-1,60
 93 14 93 14 78 19 c 128,-1,61
 63 24 63 24 58 26 c 1,62,-1
 82 177 l 1,63,64
 189 166 189 166 309 166 c 0,0,1
EndSplineSet
Substitution2: "'smcp' Lowercase to Small Capitals lookup 1 subtable" dollar.smcp
EndChar

StartChar: percent
Encoding: 37 37 8
Width: 967
GlyphClass: 2
Flags: W
LayerCount: 2
Fore
SplineSet
278 732 m 2,0,-1
 379 732 l 2,1,2
 449 732 449 732 477 692 c 0,3,4
 498 663 498 663 498 618 c 0,5,6
 498 603 498 603 495 585 c 2,7,-1
 477 472 l 2,8,9
 467 408 467 408 429.5 378.5 c 128,-1,10
 392 349 392 349 317 349 c 2,11,-1
 216 349 l 2,12,13
 146 349 146 349 118 390 c 0,14,15
 97 420 97 420 97 465 c 0,16,17
 97 481 97 481 100 499 c 2,18,-1
 118 612 l 2,19,20
 128 676 128 676 165 704 c 128,-1,21
 202 732 202 732 278 732 c 2,0,-1
229 494 m 0,22,23
 229 474 229 474 260 474 c 2,24,-1
 311 474 l 2,25,26
 352 474 352 474 357 514 c 1,27,-1
 365 567 l 2,28,29
 366 575 366 575 366 585 c 0,30,31
 366 607 366 607 334 607 c 2,32,-1
 283 607 l 2,33,34
 244 607 244 607 238 567 c 2,35,-1
 230 514 l 2,36,37
 229 503 229 503 229 494 c 0,22,23
191 0 m 1,38,-1
 761 732 l 1,39,-1
 885 732 l 1,40,-1
 322 0 l 1,41,-1
 191 0 l 1,38,-1
766 386 m 2,42,-1
 868 386 l 2,43,44
 938 386 938 386 966 345 c 0,45,46
 987 315 987 315 987 270 c 0,47,48
 987 254 987 254 984 236 c 2,49,-1
 968 123 l 2,50,51
 958 59 958 59 920 31 c 128,-1,52
 882 3 882 3 806 3 c 2,53,-1
 704 3 l 2,54,55
 587 3 587 3 587 110 c 0,56,57
 587 128 587 128 590 148 c 2,58,-1
 607 261 l 2,59,60
 617 326 617 326 654 356 c 128,-1,61
 691 386 691 386 766 386 c 2,42,-1
719 168 m 2,62,63
 718 161 718 161 718 152.5 c 128,-1,64
 718 144 718 144 722.5 136 c 128,-1,65
 727 128 727 128 750 128 c 2,66,-1
 800 128 l 2,67,68
 841 128 841 128 846 168 c 1,69,-1
 854 221 l 2,70,71
 855 229 855 229 855 239 c 0,72,73
 855 261 855 261 823 261 c 2,74,-1
 773 261 l 2,75,76
 733 261 733 261 727 221 c 2,77,-1
 719 168 l 2,62,63
EndSplineSet
Substitution2: "'smcp' Lowercase to Small Capitals lookup 1 subtable" percent.smcp
EndChar

StartChar: ampersand
Encoding: 38 38 9
Width: 711
GlyphClass: 2
Flags: W
LayerCount: 2
Fore
SplineSet
46 196 m 0,0,1
 46 289 46 289 149 365 c 2,2,-1
 236 430 l 1,3,-1
 204 487 l 1,4,5
 182 529 182 529 182 569 c 0,6,7
 182 633 182 633 230 684 c 0,8,9
 266 722 266 722 311 730 c 128,-1,10
 356 738 356 738 427.5 738 c 128,-1,11
 499 738 499 738 612 710 c 1,12,-1
 589 566 l 1,13,-1
 456 566 l 2,14,15
 401 566 401 566 396 551 c 0,16,17
 395 549 395 549 395 545 c 0,18,19
 395 528 395 528 419 488 c 1,20,-1
 510 328 l 1,21,-1
 648 443 l 1,22,-1
 704 355 l 1,23,-1
 634 231 l 1,24,-1
 589 188 l 1,25,-1
 696 0 l 1,26,-1
 480 0 l 1,27,-1
 434 81 l 1,28,-1
 358 25 l 2,29,30
 313 -8 313 -8 260.5 -8 c 128,-1,31
 208 -8 208 -8 158 13 c 128,-1,32
 108 34 108 34 77 89 c 128,-1,33
 46 144 46 144 46 196 c 0,0,1
235 194 m 0,34,35
 251 168 251 168 270 168 c 128,-1,36
 289 168 289 168 308 183 c 2,37,-1
 351 217 l 1,38,-1
 307 290 l 1,39,-1
 259 257 l 1,40,41
 230 233 230 233 230 212 c 0,42,43
 230 203 230 203 235 194 c 0,34,35
EndSplineSet
AlternateSubs2: "'salt' Stylistic Alternatives in Latin lookup 16 subtable" ampersand.salt
Substitution2: "'smcp' Lowercase to Small Capitals lookup 1 subtable" ampersand.smcp
EndChar

StartChar: quotesingle
Encoding: 39 39 10
Width: 256
GlyphClass: 2
Flags: W
LayerCount: 2
Fore
SplineSet
126 531 m 1,0,-1
 136 665 l 1,1,-1
 147 732 l 1,2,-1
 342 732 l 1,3,-1
 331 665 l 1,4,-1
 300 531 l 1,5,-1
 126 531 l 1,0,-1
EndSplineSet
Substitution2: "'smcp' Lowercase to Small Capitals lookup 1 subtable" quotesingle.smcp
EndChar

StartChar: parenleft
Encoding: 40 40 11
Width: 412
GlyphClass: 2
Flags: W
LayerCount: 2
Fore
SplineSet
331.5 433 m 128,-1,1
 300 347 300 347 287.5 267.5 c 128,-1,2
 275 188 275 188 275 145.5 c 128,-1,3
 275 103 275 103 277 55 c 128,-1,4
 279 7 279 7 294 -59 c 0,5,6
 321 -178 321 -178 355 -244 c 2,7,-1
 368 -270 l 1,8,-1
 197 -270 l 1,9,10
 194 -266 194 -266 188 -259.5 c 128,-1,11
 182 -253 182 -253 166 -227.5 c 128,-1,12
 150 -202 150 -202 136 -172 c 0,13,14
 79 -52 79 -52 79 122 c 0,15,16
 79 319 79 319 144 488 c 0,17,18
 178 578 178 578 215 632.5 c 128,-1,19
 252 687 252 687 287 727 c 128,-1,20
 322 767 322 767 344 784 c 1,21,-1
 367 800 l 1,22,-1
 538 800 l 1,23,24
 530 790 530 790 515.5 772 c 128,-1,25
 501 754 501 754 463.5 696 c 128,-1,26
 426 638 426 638 394.5 578.5 c 128,-1,0
 363 519 363 519 331.5 433 c 128,-1,1
EndSplineSet
Substitution2: "'case' Case-Sensitive Forms lookup 18 subtable" parenleft.alt
Substitution2: "'c2sc' Capitals to Small Capitals in Latin lookup 2 subtable" parenleft.smcp
Substitution2: "'smcp' Lowercase to Small Capitals lookup 1 subtable" parenleft.smcp
EndChar

StartChar: parenright
Encoding: 41 41 12
Width: 413
GlyphClass: 2
Flags: W
LayerCount: 2
Fore
SplineSet
183 89 m 128,-1,1
 215 178 215 178 227 256.5 c 128,-1,2
 239 335 239 335 239 375.5 c 128,-1,3
 239 416 239 416 237 464 c 128,-1,4
 235 512 235 512 220 579 c 0,5,6
 192 705 192 705 160 772 c 2,7,-1
 147 800 l 1,8,-1
 318 800 l 1,9,-1
 327 788 l 2,10,11
 372 728 372 728 406 612 c 1,12,13
 435 509 435 509 435 382 c 0,14,15
 435 311 435 311 420 218 c 128,-1,16
 405 125 405 125 372.5 32 c 128,-1,17
 340 -61 340 -61 306 -114.5 c 128,-1,18
 272 -168 272 -168 240.5 -205.5 c 128,-1,19
 209 -243 209 -243 189 -256 c 2,20,-1
 169 -270 l 1,21,-1
 -22 -270 l 1,22,23
 10 -234 10 -234 49.5 -176 c 128,-1,24
 89 -118 89 -118 120 -59 c 128,-1,0
 151 0 151 0 183 89 c 128,-1,1
EndSplineSet
Substitution2: "'case' Case-Sensitive Forms lookup 18 subtable" parenright.alt
Substitution2: "'c2sc' Capitals to Small Capitals in Latin lookup 2 subtable" parenright.smcp
Substitution2: "'smcp' Lowercase to Small Capitals lookup 1 subtable" parenright.smcp
EndChar

StartChar: asterisk
Encoding: 42 42 13
Width: 417
GlyphClass: 2
Flags: W
LayerCount: 2
Fore
SplineSet
117 566 m 1,0,-1
 128 636 l 1,1,-1
 270 655 l 1,2,-1
 260 561 l 1,3,-1
 117 566 l 1,0,-1
142 418 m 1,4,-1
 188 556 l 1,5,-1
 276 532 l 1,6,-1
 205 397 l 1,7,-1
 142 418 l 1,4,-1
248 459 m 1,8,-1
 312 538 l 1,9,-1
 411 449 l 1,10,-1
 361 393 l 1,11,-1
 248 459 l 1,8,-1
271 722 m 1,12,-1
 341 744 l 1,13,-1
 382 618 l 1,14,-1
 289 584 l 1,15,-1
 271 722 l 1,12,-1
320 571 m 1,16,-1
 452 652 l 1,17,-1
 484 595 l 1,18,-1
 367 498 l 1,19,-1
 320 571 l 1,16,-1
EndSplineSet
Substitution2: "'smcp' Lowercase to Small Capitals lookup 1 subtable" asterisk.smcp
EndChar

StartChar: plus
Encoding: 43 43 14
Width: 456
GlyphClass: 2
Flags: W
LayerCount: 2
Fore
SplineSet
64 279 m 1,0,-1
 88 433 l 1,1,-1
 218 433 l 1,2,-1
 239 564 l 1,3,-1
 393 564 l 1,4,-1
 372 433 l 1,5,-1
 504 433 l 1,6,-1
 480 279 l 1,7,-1
 348 279 l 1,8,-1
 327 148 l 1,9,-1
 173 148 l 1,10,-1
 194 279 l 1,11,-1
 64 279 l 1,0,-1
EndSplineSet
EndChar

StartChar: comma
Encoding: 44 44 15
Width: 254
GlyphClass: 2
Flags: W
LayerCount: 2
Fore
SplineSet
73 0 m 2,0,1
 51 0 51 0 51 19 c 0,2,3
 51 22 51 22 52 25 c 2,4,-1
 70 139 l 2,5,6
 74 166 74 166 99 166 c 2,7,-1
 210 166 l 2,8,9
 231 166 231 166 231 146 c 0,10,11
 231 143 231 143 230 139 c 2,12,-1
 206 -11 l 2,13,14
 200 -46 200 -46 181 -66.5 c 128,-1,15
 162 -87 162 -87 139.5 -92 c 128,-1,16
 117 -97 117 -97 106 -97 c 0,17,18
 72 -97 72 -97 54 -92 c 2,19,-1
 39 -88 l 1,20,-1
 49 -26 l 1,21,22
 74 -26 74 -26 80 -16 c 0,23,24
 81 -13 81 -13 84 0 c 1,25,-1
 73 0 l 2,0,1
EndSplineSet
EndChar

StartChar: hyphen
Encoding: 45 45 16
Width: 353
GlyphClass: 2
Flags: W
LayerCount: 2
Fore
SplineSet
61 213 m 1,0,-1
 85 367 l 1,1,-1
 399 367 l 1,2,-1
 375 213 l 1,3,-1
 61 213 l 1,0,-1
EndSplineSet
Substitution2: "'case' Case-Sensitive Forms lookup 18 subtable" hyphen.alt
Substitution2: "'c2sc' Capitals to Small Capitals in Latin lookup 2 subtable" hyphen.smcp
Substitution2: "'smcp' Lowercase to Small Capitals lookup 1 subtable" hyphen.smcp
EndChar

StartChar: period
Encoding: 46 46 17
Width: 256
GlyphClass: 2
Flags: W
LayerCount: 2
Fore
SplineSet
98 165 m 2,0,-1
 211 165 l 2,1,2
 233 165 233 165 233 147 c 0,3,4
 233 144 233 144 232 140 c 2,5,-1
 213 23 l 2,6,7
 209 0 209 0 185 0 c 2,8,-1
 72 0 l 2,9,10
 48 0 48 0 51 23 c 2,11,-1
 70 140 l 1,12,13
 73 165 73 165 98 165 c 2,0,-1
EndSplineSet
EndChar

StartChar: slash
Encoding: 47 47 18
Width: 503
GlyphClass: 2
Flags: W
LayerCount: 2
Fore
SplineSet
0 -72 m 1,0,-1
 414 770 l 1,1,-1
 613 770 l 1,2,-1
 199 -72 l 1,3,-1
 0 -72 l 1,0,-1
EndSplineSet
Substitution2: "'numr' Numerators in Latin lookup 13 subtable" fraction
Substitution2: "'frac' Diagonal Fractions lookup 6 subtable" fraction
EndChar

StartChar: zero
Encoding: 48 48 19
Width: 619
GlyphClass: 2
Flags: W
LayerCount: 2
Fore
SplineSet
328 732 m 2,0,-1
 492 732 l 2,1,2
 594 732 594 732 636 677 c 0,3,4
 669 635 669 635 669 577 c 0,5,6
 669 559 669 559 666 540 c 2,7,-1
 611 192 l 2,8,9
 580 0 580 0 415 0 c 2,10,-1
 251 0 l 2,11,12
 153 0 153 0 104 52 c 0,13,14
 65 92 65 92 65 155 c 0,15,16
 65 172 65 172 68 192 c 2,17,-1
 122 530 l 2,18,19
 138 631 138 631 187.5 681.5 c 128,-1,20
 237 732 237 732 328 732 c 2,0,-1
269 233 m 2,21,22
 268 224 268 224 268 213 c 128,-1,23
 268 202 268 202 274.5 190.5 c 128,-1,24
 281 179 281 179 291 176.5 c 128,-1,25
 301 174 301 174 316 174 c 2,26,-1
 358 174 l 2,27,28
 387 174 387 174 402 184.5 c 128,-1,29
 417 195 417 195 423 232 c 2,30,-1
 466 500 l 2,31,32
 467 509 467 509 467 517 c 0,33,34
 467 558 467 558 427 558 c 2,35,-1
 370 558 l 2,36,37
 333 558 333 558 322 533 c 1,38,39
 312 513 312 513 311 500 c 1,40,-1
 269 233 l 2,21,22
EndSplineSet
Substitution2: "'dnom' Denominators in Latin lookup 19 subtable" zero.denominator
Substitution2: "'sups' Superscript lookup 17 subtable" zerosuperior
Substitution2: "'onum' Oldstyle Figures in Latin lookup 15 subtable" zero.oldstyle
Substitution2: "'tnum' Tabular Numbers in Latin lookup 14 subtable" zero.tnum
Substitution2: "'numr' Numerators in Latin lookup 13 subtable" zero.numerator
Substitution2: "'zero' Slashed Zero lookup 12 subtable" uni0338
Substitution2: "'sinf' Scientific Inferiors lookup 11 subtable" zeroinferior
Substitution2: "'frac' Diagonal Fractions lookup 5 subtable" zero.numerator
Substitution2: "'smcp' Lowercase to Small Capitals lookup 1 subtable" zero.smcp
EndChar

StartChar: one
Encoding: 49 49 20
Width: 379
GlyphClass: 2
Flags: W
LayerCount: 2
Fore
SplineSet
226 548 m 1,0,1
 194 526 194 526 135 526 c 0,2,3
 130 526 130 526 126 526 c 2,4,-1
 105 528 l 1,5,-1
 124 651 l 1,6,7
 209 677 209 677 257 732 c 1,8,-1
 449 732 l 1,9,-1
 333 0 l 1,10,-1
 139 0 l 1,11,-1
 226 548 l 1,0,1
EndSplineSet
Substitution2: "'dnom' Denominators in Latin lookup 19 subtable" one.denominator
Substitution2: "'sups' Superscript lookup 17 subtable" onesuperior
Substitution2: "'onum' Oldstyle Figures in Latin lookup 15 subtable" one.oldstyle
Substitution2: "'tnum' Tabular Numbers in Latin lookup 14 subtable" one.tnum
Substitution2: "'numr' Numerators in Latin lookup 13 subtable" one.numerator
Substitution2: "'sinf' Scientific Inferiors lookup 11 subtable" oneinferior
Substitution2: "'frac' Diagonal Fractions lookup 5 subtable" one.numerator
Substitution2: "'smcp' Lowercase to Small Capitals lookup 1 subtable" one.smcp
EndChar

StartChar: two
Encoding: 50 50 21
Width: 580
GlyphClass: 2
Flags: W
LayerCount: 2
Fore
SplineSet
442 518 m 0,0,1
 442 545 442 545 422 556 c 128,-1,2
 402 567 402 567 336 567 c 2,3,-1
 113 567 l 1,4,-1
 136 712 l 1,5,6
 278 742 278 742 435 742 c 0,7,8
 547 742 547 742 598 666 c 0,9,10
 637 609 637 609 637 532 c 0,11,12
 637 463 637 463 614 420 c 128,-1,13
 591 377 591 377 573 352 c 128,-1,14
 555 327 555 327 520 294.5 c 128,-1,15
 485 262 485 262 468.5 248 c 128,-1,16
 452 234 452 234 414 205.5 c 128,-1,17
 376 177 376 177 373 174 c 1,18,-1
 583 174 l 1,19,-1
 555 0 l 1,20,-1
 30 0 l 1,21,-1
 57 168 l 1,22,23
 155 227 155 227 293.5 338.5 c 128,-1,24
 432 450 432 450 440 499 c 0,25,26
 442 509 442 509 442 518 c 0,0,1
EndSplineSet
Substitution2: "'dnom' Denominators in Latin lookup 19 subtable" two.denominator
Substitution2: "'sups' Superscript lookup 17 subtable" twosuperior
Substitution2: "'onum' Oldstyle Figures in Latin lookup 15 subtable" two.oldstyle
Substitution2: "'tnum' Tabular Numbers in Latin lookup 14 subtable" two.tnum
Substitution2: "'numr' Numerators in Latin lookup 13 subtable" two.numerator
Substitution2: "'sinf' Scientific Inferiors lookup 11 subtable" twoinferior
Substitution2: "'frac' Diagonal Fractions lookup 5 subtable" two.numerator
Substitution2: "'smcp' Lowercase to Small Capitals lookup 1 subtable" two.smcp
EndChar

StartChar: three
Encoding: 51 51 22
Width: 574
GlyphClass: 2
Flags: W
LayerCount: 2
Fore
SplineSet
507 364 m 1,0,1
 571 346 571 346 571 243 c 0,2,3
 571 218 571 218 567 190 c 2,4,-1
 562 161 l 1,5,6
 536 -7 536 -7 337 -7 c 0,7,8
 299 -7 299 -7 276 -7 c 128,-1,9
 253 -7 253 -7 225 -6.5 c 128,-1,10
 197 -6 197 -6 186.5 -5.5 c 128,-1,11
 176 -5 176 -5 153 -3.5 c 128,-1,12
 130 -2 130 -2 117.5 0 c 128,-1,13
 105 2 105 2 86 5 c 0,14,15
 58 10 58 10 26 21 c 1,16,-1
 50 168 l 1,17,-1
 268 168 l 2,18,19
 331 168 331 168 350 175.5 c 128,-1,20
 369 183 369 183 374 216 c 1,21,-1
 375 226 l 1,22,23
 380 264 380 264 349 271 c 0,24,25
 335 274 335 274 325.5 274.5 c 128,-1,26
 316 275 316 275 291 277 c 2,27,-1
 129 286 l 1,28,-1
 155 444 l 1,29,-1
 319 452 l 2,30,31
 393 455 393 455 403 465 c 0,32,33
 418 480 418 480 421.5 503.5 c 128,-1,34
 425 527 425 527 420.5 538 c 128,-1,35
 416 549 416 549 401 554 c 0,36,37
 379 560 379 560 336 560 c 2,38,-1
 105 560 l 1,39,-1
 128 706 l 1,40,41
 213 734 213 734 410 734 c 0,42,43
 435 734 435 734 461 734 c 0,44,45
 544 732 544 732 590 675 c 1,46,47
 624 631 624 631 624 569 c 0,48,49
 624 550 624 550 621 529 c 2,50,-1
 614 490 l 1,51,52
 595 377 595 377 507 364 c 1,0,1
EndSplineSet
Substitution2: "'dnom' Denominators in Latin lookup 19 subtable" three.denominator
Substitution2: "'sups' Superscript lookup 17 subtable" threesuperior
Substitution2: "'onum' Oldstyle Figures in Latin lookup 15 subtable" three.oldstyle
Substitution2: "'tnum' Tabular Numbers in Latin lookup 14 subtable" three.tnum
Substitution2: "'numr' Numerators in Latin lookup 13 subtable" three.numerator
Substitution2: "'sinf' Scientific Inferiors lookup 11 subtable" threeinferior
Substitution2: "'frac' Diagonal Fractions lookup 5 subtable" three.numerator
Substitution2: "'smcp' Lowercase to Small Capitals lookup 1 subtable" three.smcp
EndChar

StartChar: four
Encoding: 52 52 23
Width: 635
GlyphClass: 2
Flags: W
LayerCount: 2
Fore
SplineSet
46 224 m 1,0,-1
 337 732 l 1,1,-1
 545 732 l 1,2,-1
 322 315 l 1,3,-1
 419 315 l 1,4,-1
 441 449 l 1,5,-1
 480 527 l 1,6,-1
 647 527 l 1,7,-1
 613 315 l 1,8,-1
 673 315 l 1,9,-1
 650 166 l 1,10,-1
 585 137 l 1,11,-1
 564 2 l 1,12,-1
 370 2 l 1,13,-1
 391 137 l 1,14,-1
 66 137 l 1,15,-1
 46 224 l 1,0,-1
EndSplineSet
Substitution2: "'dnom' Denominators in Latin lookup 19 subtable" four.denominator
Substitution2: "'sups' Superscript lookup 17 subtable" foursuperior
Substitution2: "'onum' Oldstyle Figures in Latin lookup 15 subtable" four.oldstyle
Substitution2: "'tnum' Tabular Numbers in Latin lookup 14 subtable" four.tnum
Substitution2: "'numr' Numerators in Latin lookup 13 subtable" four.numerator
Substitution2: "'sinf' Scientific Inferiors lookup 11 subtable" fourinferior
Substitution2: "'frac' Diagonal Fractions lookup 5 subtable" four.numerator
Substitution2: "'smcp' Lowercase to Small Capitals lookup 1 subtable" four.smcp
EndChar

StartChar: five
Encoding: 53 53 24
Width: 592
GlyphClass: 2
Flags: W
LayerCount: 2
Fore
SplineSet
323 456 m 1,0,1
 362 478 362 478 429 478 c 0,2,3
 448 478 448 478 467 476 c 0,4,5
 549 469 549 469 582 412 c 0,6,7
 607 369 607 369 607 311 c 0,8,9
 607 291 607 291 604 270 c 2,10,-1
 589 156 l 1,11,12
 563 -4 563 -4 356 -4 c 0,13,14
 253 -4 253 -4 195 0 c 128,-1,15
 137 4 137 4 46 20 c 1,16,-1
 71 175 l 1,17,-1
 335 175 l 2,18,19
 380 175 380 175 391 194 c 0,20,21
 399 208 399 208 402 228 c 2,22,-1
 407 259 l 2,23,24
 408 268 408 268 408 279 c 128,-1,25
 408 290 408 290 401 301 c 128,-1,26
 394 312 394 312 367 312 c 2,27,-1
 323 312 l 2,28,29
 279 312 279 312 272 267 c 1,30,-1
 86 267 l 1,31,-1
 182 732 l 1,32,-1
 645 732 l 1,33,-1
 617 558 l 1,34,-1
 343 558 l 1,35,-1
 323 456 l 1,0,1
EndSplineSet
Substitution2: "'dnom' Denominators in Latin lookup 19 subtable" five.denominator
Substitution2: "'sups' Superscript lookup 17 subtable" fivesuperior
Substitution2: "'onum' Oldstyle Figures in Latin lookup 15 subtable" five.oldstyle
Substitution2: "'tnum' Tabular Numbers in Latin lookup 14 subtable" five.tnum
Substitution2: "'numr' Numerators in Latin lookup 13 subtable" five.numerator
Substitution2: "'sinf' Scientific Inferiors lookup 11 subtable" fiveinferior
Substitution2: "'frac' Diagonal Fractions lookup 5 subtable" five.numerator
Substitution2: "'smcp' Lowercase to Small Capitals lookup 1 subtable" five.smcp
EndChar

StartChar: six
Encoding: 54 54 25
Width: 599
GlyphClass: 2
Flags: W
LayerCount: 2
Fore
SplineSet
655 712 m 1,0,-1
 632 564 l 1,1,-1
 413 564 l 2,2,3
 366 564 366 564 338 542 c 0,4,5
 328 533 328 533 320 512 c 0,6,7
 311 490 311 490 302 437 c 1,8,9
 331 451 331 451 361 454.5 c 128,-1,10
 391 458 391 458 458 458 c 0,11,12
 614 458 614 458 614 308 c 0,13,14
 614 281 614 281 609 249 c 2,15,-1
 594 148 l 1,16,17
 579 58 579 58 527 28.5 c 128,-1,18
 475 -1 475 -1 376 -1 c 2,19,-1
 238 -1 l 2,20,21
 190 -1 190 -1 157.5 18 c 128,-1,22
 125 37 125 37 103.5 83.5 c 128,-1,23
 82 130 82 130 82 208 c 128,-1,24
 82 286 82 286 98 404 c 1,25,26
 131 618 131 618 220 688 c 0,27,28
 248 710 248 710 272 719 c 0,29,30
 328 740 328 740 428 740 c 128,-1,31
 528 740 528 740 655 712 c 1,0,-1
279 294 m 1,32,33
 273 253 273 253 273 228.5 c 128,-1,34
 273 204 273 204 278 194 c 0,35,36
 290 173 290 173 340 173 c 2,37,-1
 362 173 l 2,38,39
 387 173 387 173 397.5 182.5 c 128,-1,40
 408 192 408 192 412 219 c 1,41,-1
 416 239 l 2,42,43
 420 257 420 257 420 267 c 128,-1,44
 420 277 420 277 418 282 c 0,45,46
 412 294 412 294 386 294 c 2,47,-1
 279 294 l 1,32,33
EndSplineSet
Substitution2: "'dnom' Denominators in Latin lookup 19 subtable" six.denominator
Substitution2: "'sups' Superscript lookup 17 subtable" sixsuperior
Substitution2: "'onum' Oldstyle Figures in Latin lookup 15 subtable" six.oldstyle
Substitution2: "'tnum' Tabular Numbers in Latin lookup 14 subtable" six.tnum
Substitution2: "'numr' Numerators in Latin lookup 13 subtable" six.numerator
Substitution2: "'sinf' Scientific Inferiors lookup 11 subtable" sixinferior
Substitution2: "'frac' Diagonal Fractions lookup 5 subtable" six.numerator
Substitution2: "'smcp' Lowercase to Small Capitals lookup 1 subtable" six.smcp
EndChar

StartChar: seven
Encoding: 55 55 26
Width: 561
GlyphClass: 2
Flags: W
LayerCount: 2
Fore
SplineSet
105 558 m 1,0,-1
 133 732 l 1,1,-1
 614 732 l 1,2,-1
 648 654 l 1,3,-1
 316 0 l 1,4,-1
 110 0 l 1,5,-1
 396 558 l 1,6,-1
 105 558 l 1,0,-1
EndSplineSet
Substitution2: "'dnom' Denominators in Latin lookup 19 subtable" seven.denominator
Substitution2: "'sups' Superscript lookup 17 subtable" sevensuperior
Substitution2: "'onum' Oldstyle Figures in Latin lookup 15 subtable" seven.oldstyle
Substitution2: "'tnum' Tabular Numbers in Latin lookup 14 subtable" seven.tnum
Substitution2: "'numr' Numerators in Latin lookup 13 subtable" seven.numerator
Substitution2: "'sinf' Scientific Inferiors lookup 11 subtable" seveninferior
Substitution2: "'frac' Diagonal Fractions lookup 5 subtable" seven.numerator
Substitution2: "'smcp' Lowercase to Small Capitals lookup 1 subtable" seven.smcp
EndChar

StartChar: eight
Encoding: 56 56 27
Width: 616
GlyphClass: 2
Flags: W
LayerCount: 2
Fore
SplineSet
171 349 m 1,0,1
 139 366 139 366 126.5 396.5 c 128,-1,2
 114 427 114 427 114 450 c 128,-1,3
 114 473 114 473 121 519 c 2,4,-1
 131 584 l 2,5,6
 147 685 147 685 214 714 c 0,7,8
 247 728 247 728 278 732.5 c 128,-1,9
 309 737 309 737 354 737 c 2,10,-1
 510 737 l 2,11,12
 599 737 599 737 640 688 c 1,13,14
 669 651 669 651 669 591 c 0,15,16
 669 569 669 569 665 543 c 2,17,-1
 658 499 l 2,18,19
 654 470 654 470 631 439.5 c 128,-1,20
 608 409 608 409 564 403 c 1,21,22
 595 397 595 397 608.5 367 c 128,-1,23
 622 337 622 337 622 320 c 0,24,25
 622 302 622 302 617 241 c 1,26,-1
 605 165 l 1,27,28
 590 77 590 77 548 36 c 0,29,30
 531 20 531 20 500.5 11.5 c 128,-1,31
 470 3 470 3 449.5 1.5 c 128,-1,32
 429 0 429 0 392 0 c 2,33,-1
 237 0 l 2,34,35
 66 0 66 0 66 149 c 0,36,37
 66 172 66 172 70 199 c 2,38,-1
 78 252 l 1,39,40
 92 336 92 336 171 349 c 1,0,1
269 210 m 2,41,42
 268 202 268 202 268 191 c 0,43,44
 268 164 268 164 308 164 c 2,45,-1
 360 164 l 2,46,47
 390 164 390 164 401 175 c 128,-1,48
 412 186 412 186 415 210 c 2,49,-1
 421 250 l 2,50,51
 422 258 422 258 422 267.5 c 128,-1,52
 422 277 422 277 416.5 287 c 128,-1,53
 411 297 411 297 384 297 c 2,54,-1
 330 297 l 2,55,56
 301 297 301 297 289.5 285 c 128,-1,57
 278 273 278 273 275 250 c 2,58,-1
 269 210 l 2,41,42
465 553 m 2,59,60
 465 573 465 573 425 573 c 2,61,-1
 373 573 l 2,62,63
 347 573 347 573 335 564.5 c 128,-1,64
 323 556 323 556 318 524 c 2,65,-1
 314 494 l 2,66,67
 313 485 313 485 313 474 c 128,-1,68
 313 463 313 463 320 456.5 c 128,-1,69
 327 450 327 450 354 450 c 2,70,-1
 406 450 l 2,71,72
 437 450 437 450 446.5 459.5 c 128,-1,73
 456 469 456 469 460 494 c 2,74,-1
 464 524 l 1,75,-1
 465 553 l 2,59,60
EndSplineSet
Substitution2: "'dnom' Denominators in Latin lookup 19 subtable" eight.denominator
Substitution2: "'sups' Superscript lookup 17 subtable" eightsuperior
Substitution2: "'onum' Oldstyle Figures in Latin lookup 15 subtable" eight.oldstyle
Substitution2: "'tnum' Tabular Numbers in Latin lookup 14 subtable" eight.tnum
Substitution2: "'numr' Numerators in Latin lookup 13 subtable" eight.numerator
Substitution2: "'sinf' Scientific Inferiors lookup 11 subtable" eightinferior
Substitution2: "'frac' Diagonal Fractions lookup 5 subtable" eight.numerator
Substitution2: "'smcp' Lowercase to Small Capitals lookup 1 subtable" eight.smcp
EndChar

StartChar: nine
Encoding: 57 57 28
Width: 598
GlyphClass: 2
Flags: W
LayerCount: 2
Fore
SplineSet
258 274 m 0,0,1
 103 274 103 274 103 439 c 0,2,3
 103 466 103 466 109 493 c 1,4,-1
 122 574 l 2,5,6
 136 665 136 665 189 699 c 128,-1,7
 242 733 242 733 338 733 c 2,8,-1
 476 733 l 2,9,10
 543 733 543 733 581 693 c 128,-1,11
 619 653 619 653 632 558 c 0,12,13
 635 529 635 529 635 472 c 128,-1,14
 635 415 635 415 620 323 c 128,-1,15
 605 231 605 231 585.5 175.5 c 128,-1,16
 566 120 566 120 546 88.5 c 128,-1,17
 526 57 526 57 496.5 37.5 c 128,-1,18
 467 18 467 18 445 11 c 0,19,20
 385 -8 385 -8 286.5 -8 c 128,-1,21
 188 -8 188 -8 61 20 c 1,22,-1
 84 168 l 1,23,-1
 303 168 l 2,24,25
 369 168 369 168 389 206 c 0,26,27
 400 226 400 226 404.5 243 c 128,-1,28
 409 260 409 260 415 295 c 1,29,30
 386 281 386 281 355.5 277.5 c 128,-1,31
 325 274 325 274 258 274 c 0,0,1
301 493 m 1,32,33
 297 474 297 474 297 464 c 128,-1,34
 297 454 297 454 299 450 c 0,35,36
 304 438 304 438 330 438 c 2,37,-1
 437 438 l 1,38,39
 443 477 443 477 443 502 c 128,-1,40
 443 527 443 527 437 538 c 0,41,42
 425 559 425 559 375 559 c 2,43,-1
 354 559 l 2,44,45
 329 559 329 559 318.5 549.5 c 128,-1,46
 308 540 308 540 304 513 c 2,47,-1
 301 493 l 1,32,33
EndSplineSet
Substitution2: "'dnom' Denominators in Latin lookup 19 subtable" nine.denominator
Substitution2: "'sups' Superscript lookup 17 subtable" ninesuperior
Substitution2: "'onum' Oldstyle Figures in Latin lookup 15 subtable" nine.oldstyle
Substitution2: "'tnum' Tabular Numbers in Latin lookup 14 subtable" nine.tnum
Substitution2: "'numr' Numerators in Latin lookup 13 subtable" nine.numerator
Substitution2: "'sinf' Scientific Inferiors lookup 11 subtable" nineinferior
Substitution2: "'frac' Diagonal Fractions lookup 5 subtable" nine.numerator
Substitution2: "'smcp' Lowercase to Small Capitals lookup 1 subtable" nine.smcp
EndChar

StartChar: colon
Encoding: 58 58 29
Width: 257
GlyphClass: 2
Flags: W
LayerCount: 2
Fore
SplineSet
98 165 m 2,0,-1
 211 165 l 2,1,2
 233 165 233 165 233 147 c 0,3,4
 233 144 233 144 232 140 c 2,5,-1
 213 23 l 2,6,7
 209 0 209 0 185 0 c 2,8,-1
 72 0 l 2,9,10
 48 0 48 0 51 23 c 2,11,-1
 70 140 l 1,12,13
 73 165 73 165 98 165 c 2,0,-1
156 531 m 2,15,-1
 269 531 l 2,16,17
 290 531 290 531 290 514 c 0,18,19
 290 510 290 510 289 506 c 2,20,-1
 271 389 l 2,21,22
 267 366 267 366 243 366 c 2,23,-1
 130 366 l 2,24,25
 106 366 106 366 109 389 c 2,26,-1
 128 506 l 1,27,14
 131 531 131 531 156 531 c 2,15,-1
EndSplineSet
EndChar

StartChar: semicolon
Encoding: 59 59 30
Width: 257
GlyphClass: 2
Flags: W
LayerCount: 2
Fore
SplineSet
73 0 m 2,0,1
 51 0 51 0 51 19 c 0,2,3
 51 22 51 22 52 25 c 2,4,-1
 70 139 l 2,5,6
 74 166 74 166 99 166 c 2,7,-1
 210 166 l 2,8,9
 231 166 231 166 231 146 c 0,10,11
 231 143 231 143 230 139 c 2,12,-1
 206 -11 l 2,13,14
 200 -46 200 -46 181 -66.5 c 128,-1,15
 162 -87 162 -87 139.5 -92 c 128,-1,16
 117 -97 117 -97 106 -97 c 0,17,18
 72 -97 72 -97 54 -92 c 2,19,-1
 39 -88 l 1,20,-1
 49 -26 l 1,21,22
 74 -26 74 -26 80 -16 c 0,23,24
 81 -13 81 -13 84 0 c 1,25,-1
 73 0 l 2,0,1
156 531 m 2,26,-1
 269 531 l 2,27,28
 291 531 291 531 291 513 c 0,29,30
 291 510 291 510 290 506 c 2,31,-1
 272 389 l 2,32,33
 268 366 268 366 243 366 c 2,34,-1
 130 366 l 2,35,36
 110 366 110 366 110 384 c 0,37,38
 110 386 110 386 110 389 c 2,39,-1
 128 506 l 2,40,41
 131 531 131 531 156 531 c 2,26,-1
EndSplineSet
EndChar

StartChar: less
Encoding: 60 60 31
Width: 431
GlyphClass: 2
Flags: W
LayerCount: 2
Fore
SplineSet
70 266 m 1,0,-1
 97 436 l 1,1,-1
 493 566 l 1,2,-1
 466 396 l 1,3,-1
 274 348 l 1,4,-1
 450 300 l 1,5,-1
 423 130 l 1,6,-1
 70 266 l 1,0,-1
EndSplineSet
EndChar

StartChar: equal
Encoding: 61 61 32
Width: 467
GlyphClass: 2
Flags: W
LayerCount: 2
Fore
SplineSet
45 162 m 1,0,-1
 69 316 l 1,1,-1
 496 316 l 1,2,-1
 472 162 l 1,3,-1
 45 162 l 1,0,-1
80 381 m 1,4,-1
 104 535 l 1,5,-1
 531 535 l 1,6,-1
 507 381 l 1,7,-1
 80 381 l 1,4,-1
EndSplineSet
EndChar

StartChar: greater
Encoding: 62 62 33
Width: 430
GlyphClass: 2
Flags: W
LayerCount: 2
Fore
SplineSet
48 130 m 1,0,-1
 75 300 l 1,1,-1
 268 362 l 1,2,-1
 90 396 l 1,3,-1
 117 566 l 1,4,-1
 471 436 l 1,5,-1
 445 266 l 1,6,-1
 48 130 l 1,0,-1
EndSplineSet
EndChar

StartChar: question
Encoding: 63 63 34
Width: 545
GlyphClass: 2
Flags: W
LayerCount: 2
Fore
SplineSet
409 515 m 0,0,1
 409 564 409 564 331 564 c 2,2,-1
 100 564 l 1,3,-1
 123 709 l 1,4,5
 245 740 245 740 369 740 c 0,6,7
 389 740 389 740 410 739 c 1,8,9
 517 739 517 739 568 672 c 1,10,11
 610 619 610 619 610 556 c 0,12,13
 610 540 610 540 607 524 c 2,14,-1
 598 453 l 2,15,16
 585 351 585 351 533 313.5 c 128,-1,17
 481 276 481 276 374 276 c 0,18,19
 363 276 363 276 352 276 c 1,20,-1
 340 195 l 1,21,-1
 195 195 l 1,22,-1
 230 417 l 1,23,-1
 322 417 l 1,24,25
 361 419 361 419 380.5 434 c 128,-1,26
 400 449 400 449 406 487 c 2,27,-1
 408 502 l 2,28,29
 409 509 409 509 409 515 c 0,0,1
204 165 m 2,30,-1
 317 165 l 2,31,32
 339 165 339 165 339 147 c 0,33,34
 339 144 339 144 338 140 c 2,35,-1
 319 23 l 2,36,37
 315 0 315 0 291 0 c 2,38,-1
 178 0 l 2,39,40
 154 0 154 0 157 23 c 2,41,-1
 176 140 l 1,42,43
 179 165 179 165 204 165 c 2,30,-1
EndSplineSet
Substitution2: "'smcp' Lowercase to Small Capitals lookup 1 subtable" question.smcp
EndChar

StartChar: at
Encoding: 64 64 35
Width: 920
GlyphClass: 2
Flags: W
LayerCount: 2
Fore
SplineSet
409 739 m 2,0,-1
 764 739 l 2,1,2
 949 739 949 739 949 541 c 0,3,4
 949 505 949 505 943 461 c 2,5,-1
 898 157 l 2,6,7
 886 73 886 73 839 38 c 128,-1,8
 792 3 792 3 686 3 c 2,9,-1
 562 3 l 1,10,-1
 538 53 l 1,11,12
 500 -4 500 -4 428 -4 c 0,13,14
 332 -4 332 -4 290 78 c 1,15,16
 264 131 264 131 264 208 c 0,17,18
 264 247 264 247 273.5 309.5 c 128,-1,19
 283 372 283 372 308 425 c 128,-1,20
 333 478 333 478 368.5 503 c 128,-1,21
 404 528 404 528 438 537 c 128,-1,22
 472 546 472 546 537.5 546 c 128,-1,23
 603 546 603 546 653 530.5 c 128,-1,24
 703 515 703 515 742 477 c 1,25,-1
 695 147 l 1,26,27
 731 147 731 147 742 161.5 c 128,-1,28
 753 176 753 176 762 237 c 2,29,-1
 798 481 l 2,30,31
 802 505 802 505 802 530.5 c 128,-1,32
 802 556 802 556 790 571 c 0,33,34
 773 594 773 594 718 594 c 2,35,-1
 376 594 l 2,36,37
 308 594 308 594 284 558 c 1,38,39
 263 529 263 529 256 481 c 2,40,-1
 186 39 l 2,41,42
 184 26 184 26 184 5.5 c 128,-1,43
 184 -15 184 -15 196 -32 c 1,44,45
 214 -55 214 -55 274 -55 c 2,46,-1
 660 -55 l 1,47,-1
 641 -172 l 1,48,49
 506 -199 506 -199 349 -199 c 2,50,-1
 261 -199 l 2,51,52
 35 -199 35 -199 35 -4 c 0,53,54
 35 25 35 25 40 59 c 2,55,-1
 113 521 l 2,56,57
 135 657 135 657 215 700 c 0,58,59
 256 723 256 723 300.5 731 c 128,-1,60
 345 739 345 739 409 739 c 2,0,-1
446 375 m 128,-1,62
 426 347 426 347 417.5 290 c 128,-1,63
 409 233 409 233 409 217.5 c 128,-1,64
 409 202 409 202 410.5 183 c 128,-1,65
 412 164 412 164 425 152 c 128,-1,66
 438 140 438 140 460 140 c 0,67,68
 552 140 552 140 558 210 c 1,69,-1
 587 398 l 1,70,71
 551 403 551 403 508.5 403 c 128,-1,61
 466 403 466 403 446 375 c 128,-1,62
EndSplineSet
Substitution2: "'case' Case-Sensitive Forms lookup 18 subtable" at.alt
Substitution2: "'smcp' Lowercase to Small Capitals lookup 1 subtable" at.smcp
EndChar

StartChar: A
Encoding: 65 65 36
Width: 711
GlyphClass: 2
Flags: W
LayerCount: 2
Fore
SplineSet
25 0 m 1,0,-1
 370 732 l 1,1,-1
 599 732 l 1,2,-1
 705 0 l 1,3,-1
 506 0 l 1,4,-1
 485 128 l 1,5,-1
 297 128 l 1,6,-1
 240 0 l 1,7,-1
 25 0 l 1,0,-1
367 293 m 1,8,-1
 472 293 l 1,9,-1
 449 489 l 1,10,-1
 367 293 l 1,8,-1
EndSplineSet
Substitution2: "'c2sc' Capitals to Small Capitals in Latin lookup 2 subtable" a.smcp
EndChar

StartChar: B
Encoding: 66 66 37
Width: 601
GlyphClass: 2
Flags: W
LayerCount: 2
Fore
SplineSet
469 732 m 2,0,1
 581 732 581 732 627 672 c 0,2,3
 661 627 661 627 661 561 c 0,4,5
 661 475 661 475 614 423 c 0,6,7
 578 384 578 384 526 380 c 1,8,9
 580 371 580 371 608 320 c 0,10,11
 629 282 629 282 629 232 c 0,12,13
 629 178 629 178 613 130 c 128,-1,14
 597 82 597 82 578 60.5 c 128,-1,15
 559 39 559 39 540.5 26.5 c 128,-1,16
 522 14 522 14 489 8 c 0,17,18
 438 0 438 0 358 0 c 2,19,-1
 45 0 l 1,20,-1
 161 732 l 1,21,-1
 469 732 l 2,0,1
374 164 m 2,22,23
 401 164 401 164 414 182 c 0,24,25
 436 210 436 210 436 258 c 128,-1,26
 436 306 436 306 396 306 c 2,27,-1
 287 306 l 1,28,-1
 265 164 l 1,29,-1
 374 164 l 2,22,23
411 460 m 2,30,31
 433 460 433 460 447 474 c 0,32,33
 466 494 466 494 466 528 c 0,34,35
 466 568 466 568 428 568 c 2,36,-1
 329 568 l 1,37,-1
 312 460 l 1,38,-1
 411 460 l 2,30,31
EndSplineSet
Substitution2: "'c2sc' Capitals to Small Capitals in Latin lookup 2 subtable" b.smcp
EndChar

StartChar: C
Encoding: 67 67 38
Width: 566
GlyphClass: 2
Flags: W
LayerCount: 2
Fore
SplineSet
400 740 m 0,0,1
 504 740 504 740 549 732.5 c 128,-1,2
 594 725 594 725 658 700 c 1,3,-1
 634 549 l 1,4,5
 622 551 622 551 612 552 c 2,6,-1
 587 556 l 1,7,8
 517 566 517 566 464 566 c 2,9,-1
 404 566 l 2,10,11
 369 566 369 566 359.5 559 c 128,-1,12
 350 552 350 552 338.5 542.5 c 128,-1,13
 327 533 327 533 321.5 519 c 128,-1,14
 316 505 316 505 308 484 c 0,15,16
 295 449 295 449 283 374 c 128,-1,17
 271 299 271 299 271 260.5 c 128,-1,18
 271 222 271 222 278 206 c 0,19,20
 295 168 295 168 370 168 c 0,21,22
 474 168 474 168 547 174 c 1,23,-1
 575 177 l 1,24,-1
 551 26 l 1,25,26
 500 6 500 6 451 0 c 128,-1,27
 402 -6 402 -6 354 -6 c 128,-1,28
 306 -6 306 -6 282 -6 c 0,29,30
 76 -3 76 -3 76 258 c 0,31,32
 76 321 76 321 88 399 c 0,33,34
 116 580 116 580 185.5 660 c 128,-1,35
 255 740 255 740 400 740 c 0,0,1
EndSplineSet
Substitution2: "'c2sc' Capitals to Small Capitals in Latin lookup 2 subtable" c.smcp
EndChar

StartChar: D
Encoding: 68 68 39
Width: 646
GlyphClass: 2
Flags: W
LayerCount: 2
Fore
SplineSet
477 732 m 2,0,1
 685 732 685 732 685 468 c 0,2,3
 685 408 685 408 672 318.5 c 128,-1,4
 659 229 659 229 635 163 c 128,-1,5
 611 97 611 97 572.5 61.5 c 128,-1,6
 534 26 534 26 489.5 13 c 128,-1,7
 445 0 445 0 378 0 c 2,8,-1
 45 0 l 1,9,-1
 161 732 l 1,10,-1
 477 732 l 2,0,1
369 164 m 2,11,12
 416 164 416 164 440 209.5 c 128,-1,13
 464 255 464 255 481 364 c 1,14,15
 493 428 493 428 493 456 c 0,16,17
 493 536 493 536 470 556 c 0,18,19
 455 568 455 568 423 568 c 2,20,-1
 329 568 l 1,21,-1
 265 164 l 1,22,-1
 369 164 l 2,11,12
EndSplineSet
Substitution2: "'c2sc' Capitals to Small Capitals in Latin lookup 2 subtable" d.smcp
EndChar

StartChar: E
Encoding: 69 69 40
Width: 555
GlyphClass: 2
Flags: W
LayerCount: 2
Fore
SplineSet
340 732 m 0,0,1
 529 732 529 732 644 716 c 1,2,-1
 618 553 l 1,3,-1
 371 553 l 2,4,5
 325 553 325 553 315 518 c 0,6,7
 313 511 313 511 311 497 c 2,8,-1
 305 457 l 1,9,-1
 551 446 l 1,10,-1
 525 285 l 1,11,-1
 276 276 l 1,12,-1
 268 228 l 2,13,14
 262 189 262 189 282 182 c 0,15,16
 297 176 297 176 322 176 c 2,17,-1
 559 176 l 1,18,-1
 533 14 l 1,19,20
 430 1 430 1 284 -2 c 2,21,-1
 233 -3 l 2,22,23
 229 -3 229 -3 213 -3 c 128,-1,24
 197 -3 197 -3 170 3 c 0,25,26
 61 27 61 27 61 135 c 0,27,28
 61 153 61 153 64 173 c 2,29,-1
 127 572 l 2,30,31
 143 674 143 674 210 706 c 0,32,33
 263 732 263 732 340 732 c 0,0,1
EndSplineSet
Substitution2: "'c2sc' Capitals to Small Capitals in Latin lookup 2 subtable" e.smcp
EndChar

StartChar: F
Encoding: 70 70 41
Width: 557
GlyphClass: 2
Flags: W
LayerCount: 2
Fore
SplineSet
342 732 m 0,0,1
 531 732 531 732 646 716 c 1,2,-1
 621 553 l 1,3,-1
 374 553 l 2,4,5
 326 553 326 553 317 518 c 0,6,7
 315 510 315 510 313 497 c 2,8,-1
 306 453 l 1,9,-1
 553 442 l 1,10,-1
 528 281 l 1,11,-1
 277 272 l 1,12,-1
 234 0 l 1,13,-1
 40 0 l 1,14,-1
 127 552 l 2,15,16
 143 655 143 655 210 696 c 0,17,18
 269 732 269 732 342 732 c 0,0,1
EndSplineSet
Substitution2: "'c2sc' Capitals to Small Capitals in Latin lookup 2 subtable" f.smcp
EndChar

StartChar: G
Encoding: 71 71 42
Width: 618
GlyphClass: 2
Flags: W
LayerCount: 2
Fore
SplineSet
271 722 m 128,-1,1
 321 740 321 740 417 740 c 128,-1,2
 513 740 513 740 554 734.5 c 128,-1,3
 595 729 595 729 693 701 c 1,4,-1
 669 554 l 2,5,6
 668 554 668 554 654.5 556.5 c 128,-1,7
 641 559 641 559 618 562 c 128,-1,8
 595 565 595 565 567 568 c 0,9,10
 492 576 492 576 426.5 576 c 128,-1,11
 361 576 361 576 334 534.5 c 128,-1,12
 307 493 307 493 287 368 c 0,13,14
 272 279 272 279 272 256 c 128,-1,15
 272 233 272 233 272.5 218.5 c 128,-1,16
 273 204 273 204 282.5 194 c 128,-1,17
 292 184 292 184 307 178.5 c 128,-1,18
 322 173 322 173 350 173 c 128,-1,19
 378 173 378 173 397.5 184.5 c 128,-1,20
 417 196 417 196 423 208 c 2,21,-1
 429 219 l 1,22,-1
 441 294 l 1,23,-1
 392 294 l 1,24,-1
 411 414 l 1,25,26
 462 439 462 439 590 439 c 0,27,28
 622 439 622 439 658 436 c 1,29,-1
 588 0 l 1,30,-1
 451 0 l 1,31,-1
 404 49 l 1,32,33
 377 20 377 20 353 10 c 0,34,35
 318 -6 318 -6 254.5 -6 c 128,-1,36
 191 -6 191 -6 148 26 c 0,37,38
 74 80 74 80 74 243 c 0,39,40
 74 318 74 318 92.5 410.5 c 128,-1,41
 111 503 111 503 131.5 561 c 128,-1,42
 152 619 152 619 186.5 661.5 c 128,-1,0
 221 704 221 704 271 722 c 128,-1,1
EndSplineSet
Substitution2: "'c2sc' Capitals to Small Capitals in Latin lookup 2 subtable" g.smcp
EndChar

StartChar: H
Encoding: 72 72 43
Width: 636
GlyphClass: 2
Flags: W
LayerCount: 2
Fore
SplineSet
45 0 m 1,0,-1
 161 732 l 1,1,-1
 355 732 l 1,2,-1
 309 441 l 1,3,-1
 479 441 l 1,4,-1
 525 732 l 1,5,-1
 719 732 l 1,6,-1
 603 0 l 1,7,-1
 409 0 l 1,8,-1
 451 267 l 1,9,-1
 281 267 l 1,10,-1
 239 0 l 1,11,-1
 45 0 l 1,0,-1
EndSplineSet
Substitution2: "'c2sc' Capitals to Small Capitals in Latin lookup 2 subtable" h.smcp
EndChar

StartChar: I
Encoding: 73 73 44
Width: 282
GlyphClass: 2
Flags: W
LayerCount: 2
Fore
SplineSet
45 0 m 1,0,-1
 161 732 l 1,1,-1
 355 732 l 1,2,-1
 239 0 l 1,3,-1
 45 0 l 1,0,-1
EndSplineSet
Substitution2: "'c2sc' Capitals to Small Capitals in Latin lookup 2 subtable" i.smcp
EndChar

StartChar: J
Encoding: 74 74 45
Width: 354
GlyphClass: 2
Flags: W
LayerCount: 2
Fore
SplineSet
23 25 m 1,0,-1
 47 179 l 1,1,2
 139 179 139 179 156 215 c 0,3,4
 164 232 164 232 171 276 c 2,5,-1
 243 732 l 1,6,-1
 437 732 l 1,7,-1
 347 165 l 2,8,9
 330 53 330 53 270 18 c 0,10,11
 231 -4 231 -4 147.5 -4 c 128,-1,12
 64 -4 64 -4 23 25 c 1,0,-1
EndSplineSet
Substitution2: "'c2sc' Capitals to Small Capitals in Latin lookup 2 subtable" j.smcp
EndChar

StartChar: K
Encoding: 75 75 46
Width: 660
GlyphClass: 2
Flags: W
LayerCount: 2
Fore
SplineSet
45 0 m 1,0,-1
 161 732 l 1,1,-1
 345 732 l 1,2,-1
 299 444 l 1,3,-1
 329 444 l 1,4,-1
 524 732 l 1,5,-1
 757 732 l 1,6,-1
 498 349 l 1,7,-1
 641 0 l 1,8,-1
 423 0 l 1,9,-1
 323 280 l 1,10,-1
 274 280 l 1,11,-1
 230 0 l 1,12,-1
 45 0 l 1,0,-1
EndSplineSet
Substitution2: "'c2sc' Capitals to Small Capitals in Latin lookup 2 subtable" k.smcp
EndChar

StartChar: L
Encoding: 76 76 47
Width: 525
GlyphClass: 2
Flags: W
LayerCount: 2
Fore
SplineSet
328 174 m 2,0,-1
 534 174 l 1,1,-1
 506 0 l 1,2,-1
 210 0 l 2,3,4
 136 0 136 0 96 38 c 0,5,6
 66 67 66 67 66 119 c 0,7,8
 66 136 66 136 69 156 c 2,9,-1
 160 732 l 1,10,-1
 354 732 l 1,11,-1
 274 226 l 2,12,13
 268 187 268 187 288 180 c 0,14,15
 303 174 303 174 328 174 c 2,0,-1
EndSplineSet
Substitution2: "'c2sc' Capitals to Small Capitals in Latin lookup 2 subtable" l.smcp
EndChar

StartChar: M
Encoding: 77 77 48
Width: 849
GlyphClass: 2
Flags: W
LayerCount: 2
Fore
SplineSet
31 0 m 1,0,-1
 225 732 l 1,1,-1
 495 732 l 1,2,-1
 492 321 l 1,3,-1
 618 732 l 1,4,-1
 893 732 l 1,5,-1
 856 0 l 1,6,-1
 665 0 l 1,7,-1
 685 399 l 1,8,-1
 559 0 l 1,9,-1
 332 0 l 1,10,-1
 331 399 l 1,11,-1
 227 0 l 1,12,-1
 31 0 l 1,0,-1
EndSplineSet
AlternateSubs2: "'salt' Stylistic Alternatives in Latin lookup 16 subtable" M.salt
Substitution2: "'c2sc' Capitals to Small Capitals in Latin lookup 2 subtable" m.smcp
EndChar

StartChar: N
Encoding: 78 78 49
Width: 677
GlyphClass: 2
Flags: W
LayerCount: 2
Fore
SplineSet
45 0 m 1,0,-1
 161 732 l 1,1,-1
 357 732 l 1,2,-1
 507 353 l 1,3,-1
 566 732 l 1,4,-1
 760 732 l 1,5,-1
 644 0 l 1,6,-1
 450 0 l 1,7,-1
 298 369 l 1,8,-1
 240 0 l 1,9,-1
 45 0 l 1,0,-1
EndSplineSet
AlternateSubs2: "'salt' Stylistic Alternatives in Latin lookup 16 subtable" N.salt
Substitution2: "'c2sc' Capitals to Small Capitals in Latin lookup 2 subtable" n.smcp
EndChar

StartChar: O
Encoding: 79 79 50
Width: 666
GlyphClass: 2
Flags: W
LayerCount: 2
Fore
SplineSet
385 735.5 m 128,-1,1
 411 737 411 737 453.5 737 c 128,-1,2
 496 737 496 737 527 733 c 128,-1,3
 558 729 558 729 589 717.5 c 128,-1,4
 620 706 620 706 642 687 c 0,5,6
 712 626 712 626 712 479 c 0,7,8
 712 415 712 415 700.5 341.5 c 128,-1,9
 689 268 689 268 672.5 215.5 c 128,-1,10
 656 163 656 163 638 127 c 128,-1,11
 620 91 620 91 593 66.5 c 128,-1,12
 566 42 566 42 541.5 28 c 128,-1,13
 517 14 517 14 480 7 c 0,14,15
 422 -4 422 -4 360 -4 c 128,-1,16
 298 -4 298 -4 266 0 c 128,-1,17
 234 4 234 4 203 15 c 128,-1,18
 172 26 172 26 150 44 c 0,19,20
 81 104 81 104 81 241 c 0,21,22
 81 305 81 305 93 381.5 c 128,-1,23
 105 458 105 458 123 513.5 c 128,-1,24
 141 569 141 569 159.5 606 c 128,-1,25
 178 643 178 643 207 668.5 c 128,-1,26
 236 694 236 694 259.5 707 c 128,-1,27
 283 720 283 720 321 727 c 128,-1,0
 359 734 359 734 385 735.5 c 128,-1,1
318.5 494 m 128,-1,29
 302 452 302 452 289 372 c 128,-1,30
 276 292 276 292 276 257.5 c 128,-1,31
 276 223 276 223 282 208 c 0,32,33
 295 170 295 170 363 170 c 128,-1,34
 431 170 431 170 459 208 c 128,-1,35
 487 246 487 246 506 361 c 1,36,37
 519 427 519 427 519 454 c 0,38,39
 519 530 519 530 497.5 546.5 c 128,-1,40
 476 563 476 563 429 563 c 128,-1,41
 382 563 382 563 358.5 549.5 c 128,-1,28
 335 536 335 536 318.5 494 c 128,-1,29
EndSplineSet
Substitution2: "'c2sc' Capitals to Small Capitals in Latin lookup 2 subtable" o.smcp
EndChar

StartChar: P
Encoding: 80 80 51
Width: 600
GlyphClass: 2
Flags: W
LayerCount: 2
Fore
SplineSet
466 732 m 2,0,1
 551 732 551 732 610 678 c 1,2,3
 660 634 660 634 660 536 c 0,4,5
 660 452 660 452 632 378 c 0,6,7
 617 341 617 341 601.5 317.5 c 128,-1,8
 586 294 586 294 562 278.5 c 128,-1,9
 538 263 538 263 520 256 c 0,10,11
 494 245 494 245 438 245 c 0,12,13
 386 245 386 245 335.5 255 c 128,-1,14
 285 265 285 265 280 268 c 1,15,-1
 238 0 l 1,16,-1
 44 0 l 1,17,-1
 160 732 l 1,18,-1
 466 732 l 2,0,1
395 412 m 2,19,20
 446 412 446 412 459 492 c 0,21,22
 461 506 461 506 461 518 c 0,23,24
 461 567 461 567 420 567 c 2,25,-1
 328 567 l 1,26,-1
 303 412 l 1,27,-1
 395 412 l 2,19,20
EndSplineSet
Substitution2: "'c2sc' Capitals to Small Capitals in Latin lookup 2 subtable" p.smcp
EndChar

StartChar: Q
Encoding: 81 81 52
Width: 666
GlyphClass: 2
Flags: W
LayerCount: 2
Fore
SplineSet
400.5 736.5 m 128,-1,1
 420 737 420 737 457.5 737 c 128,-1,2
 495 737 495 737 527 732.5 c 128,-1,3
 559 728 559 728 589.5 716.5 c 128,-1,4
 620 705 620 705 642 686 c 0,5,6
 712 623 712 623 712 475 c 0,7,8
 712 410 712 410 700.5 336.5 c 128,-1,9
 689 263 689 263 672.5 211 c 128,-1,10
 656 159 656 159 638 123.5 c 128,-1,11
 620 88 620 88 592.5 64 c 128,-1,12
 565 40 565 40 541.5 27 c 128,-1,13
 518 14 518 14 480 7 c 0,14,15
 430 -2 430 -2 364 -3 c 128,-1,16
 298 -4 298 -4 265.5 0.5 c 128,-1,17
 233 5 233 5 202.5 16.5 c 128,-1,18
 172 28 172 28 150 47 c 0,19,20
 81 106 81 106 81 246 c 0,21,22
 81 367 81 367 116 493 c 0,23,24
 142 590 142 590 175 633 c 0,25,26
 195 659 195 659 211.5 676.5 c 128,-1,27
 228 694 228 694 254.5 705.5 c 128,-1,28
 281 717 281 717 299 723.5 c 128,-1,29
 317 730 317 730 349 733 c 128,-1,0
 381 736 381 736 400.5 736.5 c 128,-1,1
318.5 494 m 128,-1,31
 302 452 302 452 289 372 c 128,-1,32
 276 292 276 292 276 257.5 c 128,-1,33
 276 223 276 223 282 208 c 0,34,35
 295 170 295 170 363 170 c 128,-1,36
 431 170 431 170 459 208 c 128,-1,37
 487 246 487 246 506 361 c 1,38,39
 519 427 519 427 519 454 c 0,40,41
 519 530 519 530 497.5 546.5 c 128,-1,42
 476 563 476 563 429 563 c 128,-1,43
 382 563 382 563 358.5 549.5 c 128,-1,30
 335 536 335 536 318.5 494 c 128,-1,31
382 -33 m 1,44,45
 380 -76 380 -76 434 -78 c 0,46,47
 442 -78 442 -78 455 -78 c 0,48,49
 484 -78 484 -78 535 -68 c 1,50,-1
 513 -208 l 1,51,52
 487 -213 487 -213 463.5 -213 c 128,-1,53
 440 -213 440 -213 407.5 -207.5 c 128,-1,54
 375 -202 375 -202 340.5 -184 c 128,-1,55
 306 -166 306 -166 291.5 -133 c 128,-1,56
 277 -100 277 -100 277 -75 c 128,-1,57
 277 -50 277 -50 280 -33 c 1,58,-1
 382 -33 l 1,44,45
EndSplineSet
Substitution2: "'c2sc' Capitals to Small Capitals in Latin lookup 2 subtable" q.smcp
EndChar

StartChar: R
Encoding: 82 82 53
Width: 599
GlyphClass: 2
Flags: W
LayerCount: 2
Fore
SplineSet
467 732 m 2,0,1
 570 732 570 732 622 668 c 0,2,3
 660 621 660 621 660 541 c 0,4,5
 660 458 660 458 632 386 c 0,6,7
 618 349 618 349 604 330 c 128,-1,8
 590 311 590 311 570 298 c 0,9,10
 543 281 543 281 511 277 c 1,11,-1
 613 0 l 1,12,-1
 392 0 l 1,13,-1
 317 269 l 1,14,-1
 281 273 l 1,15,-1
 238 0 l 1,16,-1
 44 0 l 1,17,-1
 160 732 l 1,18,-1
 467 732 l 2,0,1
392 419 m 2,19,20
 428 419 428 419 440 436 c 128,-1,21
 452 453 452 453 456.5 482 c 128,-1,22
 461 511 461 511 461 526 c 0,23,24
 461 567 461 567 416 567 c 2,25,-1
 329 567 l 1,26,-1
 305 419 l 1,27,-1
 392 419 l 2,19,20
EndSplineSet
Substitution2: "'c2sc' Capitals to Small Capitals in Latin lookup 2 subtable" r.smcp
EndChar

StartChar: S
Encoding: 83 83 54
Width: 586
GlyphClass: 2
Flags: W
LayerCount: 2
Fore
SplineSet
335 166 m 0,0,1
 367 166 367 166 382 175.5 c 128,-1,2
 397 185 397 185 401 207 c 1,3,-1
 403 223 l 2,4,5
 404 230 404 230 404 239 c 0,6,7
 404 267 404 267 357 267 c 2,8,-1
 287 267 l 2,9,10
 195 267 195 267 154 314 c 0,11,12
 115 360 115 360 110 407 c 0,13,14
 108 434 108 434 108 451 c 128,-1,15
 108 468 108 468 110 484 c 2,16,-1
 121 568 l 1,17,18
 138 686 138 686 228 718 c 0,19,20
 285 739 285 739 396 739 c 0,21,22
 560 739 560 739 647 705 c 1,23,-1
 623 554 l 1,24,25
 533 564 533 564 394 564 c 0,26,27
 350 564 350 564 334 557 c 128,-1,28
 318 550 318 550 313 520 c 2,29,-1
 311 509 l 2,30,31
 310 501 310 501 310 490.5 c 128,-1,32
 310 480 310 480 318 470.5 c 128,-1,33
 326 461 326 461 364 461 c 2,34,-1
 438 461 l 2,35,36
 492 461 492 461 528.5 439 c 128,-1,37
 565 417 565 417 578 385 c 0,38,39
 602 330 602 330 602 282 c 0,40,41
 602 265 602 265 598 249 c 1,42,-1
 596 186 l 2,43,44
 594 132 594 132 576 94 c 128,-1,45
 558 56 558 56 535 36.5 c 128,-1,46
 512 17 512 17 475 6.5 c 128,-1,47
 438 -4 438 -4 412.5 -6 c 128,-1,48
 387 -8 387 -8 307.5 -8 c 128,-1,49
 228 -8 228 -8 179.5 -3 c 128,-1,50
 131 2 131 2 64 26 c 1,51,-1
 88 177 l 1,52,53
 195 166 195 166 335 166 c 0,0,1
EndSplineSet
Substitution2: "'c2sc' Capitals to Small Capitals in Latin lookup 2 subtable" s.smcp
EndChar

StartChar: T
Encoding: 84 84 55
Width: 597
GlyphClass: 2
Flags: W
LayerCount: 2
Fore
SplineSet
108 558 m 1,0,-1
 136 732 l 1,1,-1
 704 732 l 1,2,-1
 676 558 l 1,3,-1
 486 558 l 1,4,-1
 398 0 l 1,5,-1
 204 0 l 1,6,-1
 292 558 l 1,7,-1
 108 558 l 1,0,-1
EndSplineSet
Substitution2: "'c2sc' Capitals to Small Capitals in Latin lookup 2 subtable" t.smcp
EndChar

StartChar: U
Encoding: 85 85 56
Width: 652
GlyphClass: 2
Flags: W
LayerCount: 2
Fore
SplineSet
419 -5 m 2,0,-1
 388 -5 l 2,1,2
 374 -5 374 -5 357.5 -5 c 128,-1,3
 341 -5 341 -5 321.5 -5 c 128,-1,4
 302 -5 302 -5 280 -3.5 c 128,-1,5
 258 -2 258 -2 230.5 3.5 c 128,-1,6
 203 9 203 9 183.5 20 c 128,-1,7
 164 31 164 31 144 48 c 1,8,9
 108 76 108 76 92 154 c 0,10,11
 85 185 85 185 85 209 c 128,-1,12
 85 233 85 233 85.5 261 c 128,-1,13
 86 289 86 289 96 350 c 2,14,-1
 158 732 l 1,15,-1
 352 732 l 1,16,-1
 287 320 l 2,17,18
 278 258 278 258 278 233 c 0,19,20
 278 169 278 169 360 169 c 0,21,22
 392 169 392 169 413 178.5 c 128,-1,23
 434 188 434 188 446 212 c 0,24,25
 465 249 465 249 475 320 c 1,26,-1
 540 732 l 1,27,-1
 735 732 l 1,28,-1
 675 290 l 1,29,30
 648 120 648 120 568 47 c 0,31,32
 544 25 544 25 518 16 c 0,33,34
 462 -5 462 -5 419 -5 c 2,0,-1
EndSplineSet
Substitution2: "'c2sc' Capitals to Small Capitals in Latin lookup 2 subtable" u.smcp
EndChar

StartChar: V
Encoding: 86 86 57
Width: 699
GlyphClass: 2
Flags: W
LayerCount: 2
Fore
SplineSet
130 732 m 1,0,-1
 334 732 l 1,1,-1
 373 238 l 1,2,-1
 576 732 l 1,3,-1
 790 732 l 1,4,-1
 455 0 l 1,5,-1
 221 0 l 1,6,-1
 130 732 l 1,0,-1
EndSplineSet
Substitution2: "'c2sc' Capitals to Small Capitals in Latin lookup 2 subtable" v.smcp
EndChar

StartChar: W
Encoding: 87 87 58
Width: 1017
GlyphClass: 2
Flags: W
LayerCount: 2
Fore
SplineSet
130 732 m 1,0,-1
 334 732 l 1,1,-1
 375 248 l 1,2,-1
 546 732 l 1,3,-1
 750 732 l 1,4,-1
 686 570 l 1,5,-1
 730 248 l 1,6,-1
 906 732 l 1,7,-1
 1110 732 l 1,8,-1
 815 0 l 1,9,-1
 589 0 l 1,10,-1
 554 241 l 1,11,-1
 462 0 l 1,12,-1
 221 0 l 1,13,-1
 130 732 l 1,0,-1
EndSplineSet
Substitution2: "'c2sc' Capitals to Small Capitals in Latin lookup 2 subtable" w.smcp
EndChar

StartChar: X
Encoding: 88 88 59
Width: 679
GlyphClass: 2
Flags: W
LayerCount: 2
Fore
SplineSet
28 0 m 1,0,-1
 294 383 l 1,1,-1
 141 732 l 1,2,-1
 356 732 l 1,3,-1
 429 529 l 1,4,-1
 566 732 l 1,5,-1
 781 732 l 1,6,-1
 509 343 l 1,7,-1
 660 0 l 1,8,-1
 445 0 l 1,9,-1
 375 196 l 1,10,-1
 243 0 l 1,11,-1
 28 0 l 1,0,-1
EndSplineSet
AlternateSubs2: "'salt' Stylistic Alternatives in Latin lookup 16 subtable" X.salt
Substitution2: "'c2sc' Capitals to Small Capitals in Latin lookup 2 subtable" x.smcp
EndChar

StartChar: Y
Encoding: 89 89 60
Width: 679
GlyphClass: 2
Flags: W
LayerCount: 2
Fore
SplineSet
130 732 m 1,0,-1
 341 732 l 1,1,-1
 389 408 l 1,2,-1
 551 732 l 1,3,-1
 770 732 l 1,4,-1
 455 200 l 1,5,-1
 423 0 l 1,6,-1
 229 0 l 1,7,-1
 261 200 l 1,8,-1
 130 732 l 1,0,-1
EndSplineSet
Substitution2: "'c2sc' Capitals to Small Capitals in Latin lookup 2 subtable" y.smcp
EndChar

StartChar: Z
Encoding: 90 90 61
Width: 552
GlyphClass: 2
Flags: W
LayerCount: 2
Fore
SplineSet
20 0 m 1,0,-1
 48 174 l 1,1,-1
 389 558 l 1,2,-1
 108 558 l 1,3,-1
 136 732 l 1,4,-1
 649 732 l 1,5,-1
 621 558 l 1,6,-1
 299 174 l 1,7,-1
 561 174 l 1,8,-1
 533 0 l 1,9,-1
 20 0 l 1,0,-1
EndSplineSet
Substitution2: "'c2sc' Capitals to Small Capitals in Latin lookup 2 subtable" z.smcp
EndChar

StartChar: bracketleft
Encoding: 91 91 62
Width: 345
GlyphClass: 2
Flags: W
LayerCount: 2
Fore
SplineSet
241 -66 m 0,0,1
 241 -116 241 -116 291 -116 c 2,2,-1
 326 -116 l 1,3,-1
 302 -270 l 1,4,-1
 206 -270 l 2,5,6
 161 -270 161 -270 128 -254 c 128,-1,7
 95 -238 95 -238 78 -212 c 0,8,9
 44 -158 44 -158 44 -95 c 0,10,11
 44 -66 44 -66 50 -19 c 1,12,-1
 153 606 l 2,13,14
 169 704 169 704 222 743 c 128,-1,15
 275 782 275 782 388 782 c 2,16,-1
 468 782 l 1,17,-1
 444 628 l 1,18,-1
 414 628 l 2,19,20
 384 628 384 628 365.5 610.5 c 128,-1,21
 347 593 347 593 340 550 c 2,22,-1
 244 -38 l 2,23,24
 241 -54 241 -54 241 -66 c 0,0,1
EndSplineSet
EndChar

StartChar: backslash
Encoding: 92 92 63
Width: 497
GlyphClass: 2
Flags: W
LayerCount: 2
Fore
SplineSet
132 770 m 1,0,-1
 328 770 l 1,1,-1
 476 -72 l 1,2,-1
 280 -72 l 1,3,-1
 132 770 l 1,0,-1
EndSplineSet
EndChar

StartChar: bracketright
Encoding: 93 93 64
Width: 339
GlyphClass: 2
Flags: W
LayerCount: 2
Fore
SplineSet
32 -116 m 2,0,1
 62 -116 62 -116 81 -98.5 c 128,-1,2
 100 -81 100 -81 107 -38 c 2,3,-1
 200 550 l 2,4,5
 202 563 202 563 202 574 c 0,6,7
 202 628 202 628 150 628 c 2,8,-1
 120 628 l 1,9,-1
 145 782 l 1,10,-1
 229 782 l 2,11,12
 328 782 328 782 368 718 c 0,13,14
 399 670 399 670 399 599 c 0,15,16
 399 575 399 575 395 548 c 2,17,-1
 305 -93 l 2,18,19
 294 -176 294 -176 244.5 -223 c 128,-1,20
 195 -270 195 -270 78 -270 c 2,21,-1
 -22 -270 l 1,22,-1
 2 -116 l 1,23,-1
 32 -116 l 2,0,1
EndSplineSet
EndChar

StartChar: asciicircum
Encoding: 94 94 65
Width: 378
GlyphClass: 2
Flags: W
LayerCount: 2
Fore
SplineSet
112 531 m 1,0,-1
 234 671 l 1,1,-1
 365 671 l 1,2,-1
 434 531 l 1,3,-1
 323 531 l 1,4,-1
 292 582 l 1,5,-1
 244 531 l 1,6,-1
 112 531 l 1,0,-1
EndSplineSet
EndChar

StartChar: underscore
Encoding: 95 95 66
Width: 673
GlyphClass: 2
Flags: W
LayerCount: 2
Fore
SplineSet
29 -1 m 1,0,-1
 53 153 l 1,1,-1
 687 153 l 1,2,-1
 663 -1 l 1,3,-1
 29 -1 l 1,0,-1
EndSplineSet
EndChar

StartChar: grave
Encoding: 96 96 67
Width: 243
GlyphClass: 2
Flags: W
LayerCount: 2
Fore
SplineSet
117 674 m 1,0,-1
 262 674 l 1,1,-1
 316 531 l 1,2,-1
 207 531 l 1,3,-1
 117 674 l 1,0,-1
EndSplineSet
Substitution2: "'smcp' Lowercase to Small Capitals lookup 1 subtable" grave.smcp
EndChar

StartChar: a
Encoding: 97 97 68
Width: 546
GlyphClass: 2
Flags: W
LayerCount: 2
Fore
SplineSet
338 541 m 0,0,1
 525 541 525 541 590 479 c 1,2,-1
 520 2 l 1,3,-1
 367 2 l 1,4,-1
 337 52 l 1,5,6
 306 -5 306 -5 197 -5 c 0,7,8
 120 -5 120 -5 79 82 c 0,9,10
 56 132 56 132 56 191 c 128,-1,11
 56 250 56 250 67.5 304 c 128,-1,12
 79 358 79 358 94 394.5 c 128,-1,13
 109 431 109 431 124.5 454.5 c 128,-1,14
 140 478 140 478 162 495 c 128,-1,15
 184 512 184 512 202.5 521 c 128,-1,16
 221 530 221 530 248 534 c 0,17,18
 286 541 286 541 338 541 c 0,0,1
277 353 m 128,-1,20
 265 329 265 329 258.5 283.5 c 128,-1,21
 252 238 252 238 252 220.5 c 128,-1,22
 252 203 252 203 252.5 187 c 128,-1,23
 253 171 253 171 262.5 160.5 c 128,-1,24
 272 150 272 150 290 150 c 0,25,26
 350 150 350 150 355 202 c 1,27,-1
 382 392 l 1,28,29
 373 400 373 400 359 400 c 128,-1,30
 345 400 345 400 328 396 c 128,-1,31
 311 392 311 392 300 384.5 c 128,-1,19
 289 377 289 377 277 353 c 128,-1,20
EndSplineSet
AlternateSubs2: "'salt' Stylistic Alternatives in Latin lookup 16 subtable" a.salt
Substitution2: "'smcp' Lowercase to Small Capitals lookup 1 subtable" a.smcp
EndChar

StartChar: b
Encoding: 98 98 69
Width: 559
GlyphClass: 2
Flags: W
LayerCount: 2
Fore
SplineSet
445 539 m 0,0,1
 586 539 586 539 586 371 c 0,2,3
 586 307 586 307 574.5 229.5 c 128,-1,4
 563 152 563 152 545 106 c 128,-1,5
 527 60 527 60 499 36 c 128,-1,6
 471 12 471 12 439 3 c 128,-1,7
 407 -6 407 -6 362.5 -6 c 128,-1,8
 318 -6 318 -6 292 7 c 128,-1,9
 266 20 266 20 237 49 c 1,10,-1
 200 0 l 1,11,-1
 34 0 l 1,12,-1
 158 785 l 1,13,-1
 352 785 l 1,14,-1
 309 509 l 1,15,16
 371 539 371 539 445 539 c 0,0,1
318 151 m 0,17,18
 342 151 342 151 355.5 174 c 128,-1,19
 369 197 369 197 379 258 c 128,-1,20
 389 319 389 319 389 335 c 128,-1,21
 389 351 389 351 388 367.5 c 128,-1,22
 387 384 387 384 380 392 c 128,-1,23
 373 400 373 400 357 400 c 0,24,25
 306 400 306 400 290 385 c 1,26,-1
 256 173 l 1,27,28
 265 151 265 151 318 151 c 0,17,18
EndSplineSet
AlternateSubs2: "'salt' Stylistic Alternatives in Latin lookup 16 subtable" b.salt
Substitution2: "'smcp' Lowercase to Small Capitals lookup 1 subtable" b.smcp
EndChar

StartChar: c
Encoding: 99 99 70
Width: 489
GlyphClass: 2
Flags: W
LayerCount: 2
Fore
SplineSet
287 541 m 0,0,1
 449 541 449 541 540 505 c 1,2,-1
 522 391 l 1,3,4
 463 397 463 397 403.5 397 c 128,-1,5
 344 397 344 397 330 394.5 c 128,-1,6
 316 392 316 392 301.5 379 c 128,-1,7
 287 366 287 366 279 340 c 0,8,9
 263 288 263 288 259 246 c 128,-1,10
 255 204 255 204 255 195 c 128,-1,11
 255 186 255 186 257.5 174.5 c 128,-1,12
 260 163 260 163 263.5 155.5 c 128,-1,13
 267 148 267 148 279 144 c 0,14,15
 294 139 294 139 334 139 c 0,16,17
 415 139 415 139 472 145 c 2,18,-1
 491 147 l 1,19,-1
 473 33 l 1,20,21
 420 9 420 9 368 2 c 128,-1,22
 316 -5 316 -5 269 -5 c 128,-1,23
 222 -5 222 -5 202 -5 c 0,24,25
 123 -4 123 -4 84 72 c 0,26,27
 61 118 61 118 61 178.5 c 128,-1,28
 61 239 61 239 71.5 305 c 128,-1,29
 82 371 82 371 103 421.5 c 128,-1,30
 124 472 124 472 153.5 497 c 128,-1,31
 183 522 183 522 214 531.5 c 128,-1,32
 245 541 245 541 287 541 c 0,0,1
EndSplineSet
Substitution2: "'smcp' Lowercase to Small Capitals lookup 1 subtable" c.smcp
EndChar

StartChar: d
Encoding: 100 100 71
Width: 549
GlyphClass: 2
Flags: W
LayerCount: 2
Fore
SplineSet
285 539 m 0,0,1
 360 539 360 539 412 509 c 1,2,-1
 456 785 l 1,3,-1
 650 785 l 1,4,-1
 526 0 l 1,5,-1
 360 0 l 1,6,-1
 338 49 l 1,7,8
 300 21 300 21 270 7.5 c 128,-1,9
 240 -6 240 -6 199 -6 c 0,10,11
 112 -6 112 -6 78 80 c 0,12,13
 58 129 58 129 58 187 c 128,-1,14
 58 245 58 245 69 303 c 0,15,16
 91 426 91 426 137 482.5 c 128,-1,17
 183 539 183 539 285 539 c 0,0,1
292 376 m 128,-1,19
 278 352 278 352 267.5 291.5 c 128,-1,20
 257 231 257 231 257 214.5 c 128,-1,21
 257 198 257 198 258.5 182 c 128,-1,22
 260 166 260 166 267 158.5 c 128,-1,23
 274 151 274 151 290 151 c 0,24,25
 341 151 341 151 358 173 c 1,26,-1
 392 385 l 1,27,28
 381 400 381 400 329 400 c 0,29,18
 306 400 306 400 292 376 c 128,-1,19
EndSplineSet
AlternateSubs2: "'salt' Stylistic Alternatives in Latin lookup 16 subtable" d.salt
Substitution2: "'smcp' Lowercase to Small Capitals lookup 1 subtable" d.smcp
EndChar

StartChar: e
Encoding: 101 101 72
Width: 529
GlyphClass: 2
Flags: W
LayerCount: 2
Fore
SplineSet
345 541 m 1,0,1
 567 541 567 541 567 392 c 0,2,3
 567 328 567 328 545.5 283 c 128,-1,4
 524 238 524 238 492 218 c 0,5,6
 430 178 430 178 364 178 c 2,7,-1
 352 178 l 1,8,9
 280 182 280 182 256 192 c 1,10,11
 255 184 255 184 255 178 c 0,12,13
 255 157 255 157 270 148 c 128,-1,14
 285 139 285 139 361.5 139 c 128,-1,15
 438 139 438 139 531 158 c 1,16,-1
 507 22 l 1,17,18
 406 -11 406 -11 290 -11 c 0,19,20
 250 -11 250 -11 208 -7 c 0,21,22
 114 1 114 1 79 86 c 0,23,24
 59 134 59 134 59 194 c 128,-1,25
 59 254 59 254 71 318 c 0,26,27
 95 445 95 445 149 492.5 c 128,-1,28
 203 540 203 540 345 541 c 1,0,1
271 316 m 1,29,30
 287 311 287 311 303.5 311 c 128,-1,31
 320 311 320 311 330.5 313 c 128,-1,32
 341 315 341 315 352 325 c 0,33,34
 368 339 368 339 368 366 c 0,35,36
 368 397 368 397 334 397 c 0,37,38
 302 397 302 397 289.5 376.5 c 128,-1,39
 277 356 277 356 271 316 c 1,29,30
EndSplineSet
Substitution2: "'smcp' Lowercase to Small Capitals lookup 1 subtable" e.smcp
EndChar

StartChar: f
Encoding: 102 102 73
Width: 406
GlyphClass: 2
Flags: W
LayerCount: 2
Fore
SplineSet
246 751.5 m 128,-1,1
 296 786 296 786 384.5 786 c 128,-1,2
 473 786 473 786 516 762 c 1,3,-1
 498 651 l 1,4,-1
 425 652 l 2,5,6
 423 652 423 652 421 652 c 0,7,8
 392 652 392 652 383.5 639 c 128,-1,9
 375 626 375 626 371.5 603.5 c 128,-1,10
 368 581 368 581 368 580 c 0,11,12
 366 575 366 575 366 570 c 2,13,-1
 360 531 l 1,14,-1
 458 531 l 1,15,-1
 437 397 l 1,16,-1
 339 397 l 1,17,-1
 276 0 l 1,18,-1
 82 0 l 1,19,-1
 145 397 l 1,20,-1
 73 397 l 1,21,-1
 92 514 l 1,22,-1
 166 531 l 1,23,-1
 182 630 l 2,24,0
 196 717 196 717 246 751.5 c 128,-1,1
EndSplineSet
AlternateSubs2: "'salt' Stylistic Alternatives in Latin lookup 16 subtable" f.salt
Substitution2: "'smcp' Lowercase to Small Capitals lookup 1 subtable" f.smcp
EndChar

StartChar: g
Encoding: 103 103 74
Width: 560
GlyphClass: 2
Flags: W
LayerCount: 2
Fore
SplineSet
223 -119 m 2,0,1
 308 -119 308 -119 323 -24 c 2,2,-1
 334 44 l 1,3,4
 299 6 299 6 231 6 c 0,5,6
 121 6 121 6 84 84 c 0,7,8
 62 131 62 131 62 192 c 128,-1,9
 62 253 62 253 72 313 c 0,10,11
 93 446 93 446 153 494.5 c 128,-1,12
 213 543 213 543 306 543 c 128,-1,13
 399 543 399 543 483 533 c 128,-1,14
 567 523 567 523 604 507 c 1,15,-1
 515 -54 l 2,16,17
 486 -235 486 -235 350 -267 c 0,18,19
 317 -275 317 -275 285.5 -275 c 128,-1,20
 254 -275 254 -275 229 -272 c 2,21,-1
 5 -248 l 1,22,-1
 25 -119 l 1,23,-1
 223 -119 l 2,0,1
275.5 336 m 128,-1,25
 272 321 272 321 264 276 c 128,-1,26
 256 231 256 231 256 208 c 128,-1,27
 256 185 256 185 258 176 c 0,28,29
 264 146 264 146 299.5 146 c 128,-1,30
 335 146 335 146 353 165 c 1,31,-1
 392 409 l 1,32,-1
 345 409 l 2,33,34
 304 409 304 409 288 371 c 0,35,24
 279 351 279 351 275.5 336 c 128,-1,25
EndSplineSet
AlternateSubs2: "'salt' Stylistic Alternatives in Latin lookup 16 subtable" g.salt
Substitution2: "'smcp' Lowercase to Small Capitals lookup 1 subtable" g.smcp
EndChar

StartChar: h
Encoding: 104 104 75
Width: 555
GlyphClass: 2
Flags: W
LayerCount: 2
Fore
SplineSet
390 367 m 0,0,1
 390 396 390 396 364 396 c 0,2,3
 307 396 307 396 285 359 c 1,4,-1
 228 0 l 1,5,-1
 34 0 l 1,6,-1
 158 782 l 1,7,-1
 351 782 l 1,8,-1
 303 479 l 1,9,10
 325 497 325 497 341.5 508.5 c 128,-1,11
 358 520 358 520 390 530 c 128,-1,12
 422 540 422 540 460 540 c 0,13,14
 525 540 525 540 556 513 c 0,15,16
 589 485 589 485 589 438 c 128,-1,17
 589 391 589 391 582 340 c 1,18,-1
 528 0 l 1,19,-1
 334 0 l 1,20,-1
 388 344 l 2,21,22
 390 358 390 358 390 367 c 0,0,1
EndSplineSet
Substitution2: "'smcp' Lowercase to Small Capitals lookup 1 subtable" h.smcp
EndChar

StartChar: i
Encoding: 105 105 76
Width: 252
GlyphClass: 2
Flags: W
LayerCount: 2
Fore
SplineSet
29 0 m 1,0,-1
 113 531 l 1,1,-1
 307 531 l 1,2,-1
 223 0 l 1,3,-1
 29 0 l 1,0,-1
170 746 m 2,4,-1
 320 746 l 2,5,6
 339 746 339 746 339 728 c 0,7,8
 339 725 339 725 338 721 c 2,9,-1
 320 604 l 2,10,11
 317 581 317 581 294 581 c 2,12,-1
 144 581 l 2,13,14
 124 581 124 581 124 599 c 0,15,16
 124 601 124 601 124 604 c 2,17,-1
 142 721 l 2,18,19
 145 746 145 746 170 746 c 2,4,-1
EndSplineSet
Substitution2: "'smcp' Lowercase to Small Capitals lookup 1 subtable" i.smcp
EndChar

StartChar: j
Encoding: 106 106 77
Width: 265
GlyphClass: 2
Flags: W
LayerCount: 2
Fore
SplineSet
-6 -270 m 1,0,-1
 121 531 l 1,1,-1
 315 531 l 1,2,-1
 230 -4 l 2,3,4
 222 -59 222 -59 214 -96 c 128,-1,5
 206 -133 206 -133 187.5 -183.5 c 128,-1,6
 169 -234 169 -234 142 -270 c 1,7,-1
 -6 -270 l 1,0,-1
177 746 m 2,8,-1
 327 746 l 2,9,10
 347 746 347 746 347 728 c 0,11,12
 347 725 347 725 346 721 c 2,13,-1
 327 604 l 2,14,15
 324 581 324 581 301 581 c 2,16,-1
 151 581 l 2,17,18
 127 581 127 581 130 604 c 2,19,-1
 149 721 l 1,20,21
 152 746 152 746 177 746 c 2,8,-1
EndSplineSet
Substitution2: "'smcp' Lowercase to Small Capitals lookup 1 subtable" j.smcp
EndChar

StartChar: k
Encoding: 107 107 78
Width: 564
GlyphClass: 2
Flags: W
LayerCount: 2
Fore
SplineSet
34 0 m 1,0,-1
 158 782 l 1,1,-1
 352 782 l 1,2,-1
 284 356 l 1,3,4
 391 402 391 402 434 531 c 1,5,-1
 637 531 l 1,6,7
 609 429 609 429 567.5 374.5 c 128,-1,8
 526 320 526 320 474 288 c 1,9,-1
 605 0 l 1,10,-1
 395 0 l 1,11,-1
 302 224 l 1,12,-1
 264 223 l 1,13,-1
 228 0 l 1,14,-1
 34 0 l 1,0,-1
EndSplineSet
Substitution2: "'smcp' Lowercase to Small Capitals lookup 1 subtable" k.smcp
EndChar

StartChar: l
Encoding: 108 108 79
Width: 322
GlyphClass: 2
Flags: W
LayerCount: 2
Fore
SplineSet
262 229 m 1,0,1
 259 200 259 200 259 184 c 128,-1,2
 259 168 259 168 262.5 156.5 c 128,-1,3
 266 145 266 145 284 134 c 0,4,5
 322 113 322 113 329 113 c 1,6,-1
 311 0 l 1,7,-1
 203 0 l 2,8,9
 125 0 125 0 85 45 c 0,10,11
 56 77 56 77 56 137 c 0,12,13
 56 161 56 161 61 189 c 2,14,-1
 155 783 l 1,15,-1
 349 783 l 1,16,-1
 262 229 l 1,0,1
EndSplineSet
Substitution2: "'smcp' Lowercase to Small Capitals lookup 1 subtable" l.smcp
EndChar

StartChar: m
Encoding: 109 109 80
Width: 857
GlyphClass: 2
Flags: W
LayerCount: 2
Fore
SplineSet
390 367 m 0,0,1
 390 396 390 396 364 396 c 0,2,3
 307 396 307 396 285 359 c 1,4,-1
 228 0 l 1,5,-1
 34 0 l 1,6,-1
 118 531 l 1,7,-1
 280 531 l 1,8,-1
 304 479 l 1,9,10
 333 501 333 501 347 510.5 c 128,-1,11
 361 520 361 520 391.5 530 c 128,-1,12
 422 540 422 540 460 540 c 0,13,14
 556 540 556 540 580 479 c 1,15,16
 613 498 613 498 633 508.5 c 128,-1,17
 653 519 653 519 689.5 529.5 c 128,-1,18
 726 540 726 540 762 540 c 0,19,20
 827 540 827 540 858 513 c 0,21,22
 891 485 891 485 891 438 c 128,-1,23
 891 391 891 391 884 340 c 1,24,-1
 830 0 l 1,25,-1
 636 0 l 1,26,-1
 691 344 l 2,27,28
 693 358 693 358 693 367 c 0,29,30
 693 396 693 396 666 396 c 0,31,32
 609 396 609 396 586 366 c 1,33,34
 586 360 586 360 582 340 c 2,35,-1
 528 0 l 1,36,-1
 334 0 l 1,37,-1
 388 344 l 2,38,39
 390 358 390 358 390 367 c 0,0,1
EndSplineSet
AlternateSubs2: "'salt' Stylistic Alternatives in Latin lookup 16 subtable" m.salt
Substitution2: "'smcp' Lowercase to Small Capitals lookup 1 subtable" m.smcp
EndChar

StartChar: n
Encoding: 110 110 81
Width: 555
GlyphClass: 2
Flags: W
LayerCount: 2
Fore
SplineSet
390 367 m 0,0,1
 390 396 390 396 364 396 c 0,2,3
 307 396 307 396 285 359 c 1,4,-1
 228 0 l 1,5,-1
 34 0 l 1,6,-1
 118 531 l 1,7,-1
 280 531 l 1,8,-1
 304 479 l 1,9,10
 329 499 329 499 344.5 509.5 c 128,-1,11
 360 520 360 520 391 530 c 128,-1,12
 422 540 422 540 460 540 c 0,13,14
 525 540 525 540 556 513 c 0,15,16
 589 485 589 485 589 438 c 128,-1,17
 589 391 589 391 582 340 c 1,18,-1
 528 0 l 1,19,-1
 334 0 l 1,20,-1
 388 344 l 2,21,22
 390 358 390 358 390 367 c 0,0,1
EndSplineSet
AlternateSubs2: "'salt' Stylistic Alternatives in Latin lookup 16 subtable" n.salt
Substitution2: "'smcp' Lowercase to Small Capitals lookup 1 subtable" n.smcp
EndChar

StartChar: o
Encoding: 111 111 82
Width: 553
GlyphClass: 2
Flags: W
LayerCount: 2
Fore
SplineSet
361 539 m 0,0,1
 498 539 498 539 544 466 c 1,2,3
 575 419 575 419 575 335 c 0,4,5
 575 289 575 289 564.5 223.5 c 128,-1,6
 554 158 554 158 535 112.5 c 128,-1,7
 516 67 516 67 480 40.5 c 128,-1,8
 444 14 444 14 397 4.5 c 128,-1,9
 350 -5 350 -5 275 -5 c 0,10,11
 139 -5 139 -5 92 66 c 0,12,13
 60 113 60 113 60 195 c 0,14,15
 60 235 60 235 70.5 300 c 128,-1,16
 81 365 81 365 101.5 415 c 128,-1,17
 122 465 122 465 159 492.5 c 128,-1,18
 196 520 196 520 241.5 529.5 c 128,-1,19
 287 539 287 539 361 539 c 0,0,1
288.5 376.5 m 128,-1,21
 278 358 278 358 265.5 282.5 c 128,-1,22
 253 207 253 207 253 186 c 128,-1,23
 253 165 253 165 254 159 c 0,24,25
 260 139 260 139 299 139 c 128,-1,26
 338 139 338 139 348 156 c 128,-1,27
 358 173 358 173 371 248.5 c 128,-1,28
 384 324 384 324 384 343.5 c 128,-1,29
 384 363 384 363 383 370 c 0,30,31
 378 395 378 395 338.5 395 c 128,-1,20
 299 395 299 395 288.5 376.5 c 128,-1,21
EndSplineSet
Substitution2: "'smcp' Lowercase to Small Capitals lookup 1 subtable" o.smcp
EndChar

StartChar: p
Encoding: 112 112 83
Width: 555
GlyphClass: 2
Flags: W
LayerCount: 2
Fore
SplineSet
241.5 527 m 128,-1,1
 328 537 328 537 417.5 537 c 128,-1,2
 507 537 507 537 550 460 c 0,3,4
 579 410 579 410 579 331 c 0,5,6
 579 288 579 288 571 238 c 0,7,8
 549 96 549 96 494.5 43 c 128,-1,9
 440 -10 440 -10 324 -10 c 0,10,11
 256 -10 256 -10 233 29 c 1,12,-1
 186 -270 l 1,13,-1
 -8 -270 l 1,14,-1
 114 501 l 1,15,0
 155 517 155 517 241.5 527 c 128,-1,1
252 149 m 1,16,17
 265 130 265 130 300 130 c 128,-1,18
 335 130 335 130 349.5 158 c 128,-1,19
 364 186 364 186 378 275 c 1,20,21
 386 306 386 306 386 327 c 128,-1,22
 386 348 386 348 384 362 c 0,23,24
 379 403 379 403 340 403 c 2,25,-1
 293 403 l 1,26,-1
 252 149 l 1,16,17
EndSplineSet
AlternateSubs2: "'salt' Stylistic Alternatives in Latin lookup 16 subtable" p.salt
Substitution2: "'smcp' Lowercase to Small Capitals lookup 1 subtable" p.smcp
EndChar

StartChar: q
Encoding: 113 113 84
Width: 554
GlyphClass: 2
Flags: W
LayerCount: 2
Fore
SplineSet
152 490 m 128,-1,1
 212 541 212 541 305 541 c 128,-1,2
 398 541 398 541 481 531 c 128,-1,3
 564 521 564 521 601 505 c 1,4,-1
 479 -270 l 1,5,-1
 285 -270 l 1,6,-1
 332 29 l 1,7,8
 296 -10 296 -10 229 -10 c 0,9,10
 119 -10 119 -10 82 68 c 0,11,12
 60 116 60 116 60 177 c 128,-1,13
 60 238 60 238 70 298 c 0,14,0
 92 439 92 439 152 490 c 128,-1,1
261.5 258 m 128,-1,16
 254 215 254 215 254 192 c 128,-1,17
 254 169 254 169 256 160 c 0,18,19
 262 130 262 130 297.5 130 c 128,-1,20
 333 130 333 130 351 149 c 1,21,-1
 391 407 l 1,22,-1
 344 407 l 2,23,24
 313 407 313 407 294 378 c 0,25,26
 281 359 281 359 275 330 c 128,-1,15
 269 301 269 301 261.5 258 c 128,-1,16
EndSplineSet
Substitution2: "'smcp' Lowercase to Small Capitals lookup 1 subtable" q.smcp
EndChar

StartChar: r
Encoding: 114 114 85
Width: 410
GlyphClass: 2
Flags: W
LayerCount: 2
Fore
SplineSet
355 514.5 m 128,-1,1
 390 536 390 536 424.5 536 c 128,-1,2
 459 536 459 536 474 531 c 1,3,-1
 445 345 l 1,4,-1
 366 345 l 2,5,6
 302 345 302 345 286 320 c 0,7,8
 277 306 277 306 273 285 c 2,9,-1
 228 0 l 1,10,-1
 34 0 l 1,11,-1
 118 531 l 1,12,-1
 290 531 l 1,13,-1
 301 464 l 1,14,0
 320 493 320 493 355 514.5 c 128,-1,1
EndSplineSet
AlternateSubs2: "'salt' Stylistic Alternatives in Latin lookup 16 subtable" r.salt
Substitution2: "'smcp' Lowercase to Small Capitals lookup 1 subtable" r.smcp
EndChar

StartChar: s
Encoding: 115 115 86
Width: 510
GlyphClass: 2
Flags: W
LayerCount: 2
Fore
SplineSet
298 146 m 2,0,1
 317 146 317 146 320 163 c 0,2,3
 325 186 325 186 304 186 c 2,4,-1
 209 186 l 2,5,6
 138 186 138 186 100 234 c 0,7,8
 72 269 72 269 72 322 c 0,9,10
 72 339 72 339 75 358 c 2,11,-1
 83 404 l 1,12,13
 104 536 104 536 245 536 c 0,14,15
 433 536 433 536 480.5 527.5 c 128,-1,16
 528 519 528 519 540 500 c 1,17,-1
 522 386 l 1,18,-1
 299 386 l 2,19,20
 284 386 284 386 280 382 c 256,21,22
 276 378 276 378 274 367 c 128,-1,23
 272 356 272 356 273 352.5 c 128,-1,24
 274 349 274 349 278 348 c 0,25,26
 284 346 284 346 293 346 c 2,27,-1
 393 346 l 2,28,29
 471 346 471 346 501 298 c 0,30,31
 523 262 523 262 523 217 c 0,32,33
 523 200 523 200 520 182 c 2,34,-1
 511 123 l 2,35,36
 491 -5 491 -5 357 -5 c 0,37,38
 345 -5 345 -5 301.5 -5 c 128,-1,39
 258 -5 258 -5 226 -4.5 c 128,-1,40
 194 -4 194 -4 150 -1 c 0,41,42
 70 4 70 4 49 32 c 1,43,-1
 67 146 l 1,44,-1
 298 146 l 2,0,1
EndSplineSet
Substitution2: "'smcp' Lowercase to Small Capitals lookup 1 subtable" s.smcp
EndChar

StartChar: t
Encoding: 116 116 87
Width: 375
GlyphClass: 2
Flags: W
LayerCount: 2
Fore
SplineSet
306 230 m 1,0,1
 303 200 303 200 303 183 c 128,-1,2
 303 166 303 166 306.5 154.5 c 128,-1,3
 310 143 310 143 327 133 c 0,4,5
 366 112 366 112 373 112 c 1,6,-1
 355 -1 l 1,7,-1
 235 -1 l 2,8,9
 168 -1 168 -1 130 46 c 1,10,11
 102 79 102 79 102 139 c 0,12,13
 102 163 102 163 106 190 c 2,14,-1
 139 398 l 1,15,-1
 64 398 l 1,16,-1
 79 494 l 1,17,-1
 160 532 l 1,18,-1
 212 680 l 1,19,-1
 378 680 l 1,20,-1
 354 532 l 1,21,-1
 443 532 l 1,22,-1
 422 398 l 1,23,-1
 333 398 l 1,24,-1
 306 230 l 1,0,1
EndSplineSet
AlternateSubs2: "'salt' Stylistic Alternatives in Latin lookup 16 subtable" t.salt
Substitution2: "'smcp' Lowercase to Small Capitals lookup 1 subtable" t.smcp
EndChar

StartChar: u
Encoding: 117 117 88
Width: 554
GlyphClass: 2
Flags: W
LayerCount: 2
Fore
SplineSet
249 164 m 0,0,1
 249 135 249 135 276 135 c 0,2,3
 333 135 333 135 355 172 c 1,4,-1
 412 531 l 1,5,-1
 606 531 l 1,6,-1
 521 0 l 1,7,-1
 359 0 l 1,8,-1
 336 52 l 1,9,10
 301 19 301 19 268.5 5 c 128,-1,11
 236 -9 236 -9 175.5 -9 c 128,-1,12
 115 -9 115 -9 84 18 c 0,13,14
 51 46 51 46 51 93 c 128,-1,15
 51 140 51 140 58 191 c 1,16,-1
 112 531 l 1,17,-1
 306 531 l 1,18,-1
 251 187 l 2,19,20
 249 173 249 173 249 164 c 0,0,1
EndSplineSet
AlternateSubs2: "'salt' Stylistic Alternatives in Latin lookup 16 subtable" u.salt
Substitution2: "'smcp' Lowercase to Small Capitals lookup 1 subtable" u.smcp
EndChar

StartChar: v
Encoding: 118 118 89
Width: 551
GlyphClass: 2
Flags: W
LayerCount: 2
Fore
SplineSet
605 497 m 0,0,1
 605 421 605 421 555 325 c 1,2,-1
 391 0 l 1,3,-1
 157 0 l 1,4,-1
 75 531 l 1,5,-1
 281 531 l 1,6,-1
 301 209 l 1,7,-1
 379 395 l 1,8,9
 411 460 411 460 416 533 c 1,10,-1
 602 533 l 1,11,12
 605 516 605 516 605 497 c 0,0,1
EndSplineSet
Substitution2: "'smcp' Lowercase to Small Capitals lookup 1 subtable" v.smcp
EndChar

StartChar: w
Encoding: 119 119 90
Width: 853
GlyphClass: 2
Flags: W
LayerCount: 2
Fore
SplineSet
604 500 m 0,0,1
 604 448 604 448 582 386 c 1,2,-1
 576 370 l 1,3,-1
 604 209 l 1,4,-1
 682 395 l 1,5,6
 714 460 714 460 719 533 c 1,7,-1
 905 533 l 1,8,9
 908 516 908 516 908 497 c 0,10,11
 908 421 908 421 858 325 c 1,12,-1
 694 0 l 1,13,-1
 472 0 l 1,14,-1
 449 142 l 1,15,-1
 391 0 l 1,16,-1
 157 0 l 1,17,-1
 75 531 l 1,18,-1
 281 531 l 1,19,-1
 301 209 l 1,20,-1
 379 395 l 1,21,22
 411 460 411 460 416 533 c 1,23,-1
 602 533 l 1,24,25
 604 517 604 517 604 500 c 0,0,1
EndSplineSet
Substitution2: "'smcp' Lowercase to Small Capitals lookup 1 subtable" w.smcp
EndChar

StartChar: x
Encoding: 120 120 91
Width: 613
GlyphClass: 2
Flags: W
LayerCount: 2
Fore
SplineSet
14 0 m 1,0,-1
 232 280 l 1,1,-1
 98 531 l 1,2,-1
 330 531 l 1,3,-1
 370 409 l 1,4,-1
 451 531 l 1,5,-1
 683 531 l 1,6,-1
 462 243 l 1,7,-1
 591 0 l 1,8,-1
 367 0 l 1,9,-1
 325 115 l 1,10,-1
 246 0 l 1,11,-1
 14 0 l 1,0,-1
EndSplineSet
AlternateSubs2: "'salt' Stylistic Alternatives in Latin lookup 16 subtable" x.salt
Substitution2: "'smcp' Lowercase to Small Capitals lookup 1 subtable" x.smcp
EndChar

StartChar: y
Encoding: 121 121 92
Width: 575
GlyphClass: 2
Flags: W
LayerCount: 2
Fore
SplineSet
623 491 m 0,0,1
 623 418 623 418 584 324 c 1,2,-1
 454 0 l 1,3,4
 337 -274 337 -274 99 -302 c 0,5,6
 91 -303 91 -303 87 -304 c 1,7,-1
 87 -168 l 1,8,9
 156 -136 156 -136 195.5 -97.5 c 128,-1,10
 235 -59 235 -59 264 0 c 1,11,12
 110 0 110 0 100 156 c 2,13,-1
 76 531 l 1,14,-1
 277 531 l 1,15,-1
 285 195 l 2,16,17
 286 158 286 158 322 156 c 1,18,-1
 408 394 l 2,19,20
 428 449 428 449 434 532 c 1,21,-1
 620 532 l 1,22,23
 623 512 623 512 623 491 c 0,0,1
EndSplineSet
Substitution2: "'smcp' Lowercase to Small Capitals lookup 1 subtable" y.smcp
EndChar

StartChar: z
Encoding: 122 122 93
Width: 488
GlyphClass: 2
Flags: W
LayerCount: 2
Fore
SplineSet
32 1 m 1,0,-1
 56 153 l 1,1,-1
 289 377 l 1,2,-1
 77 377 l 1,3,-1
 101 531 l 1,4,-1
 557 531 l 1,5,-1
 533 377 l 1,6,-1
 316 155 l 1,7,-1
 497 155 l 1,8,-1
 473 1 l 1,9,-1
 32 1 l 1,0,-1
EndSplineSet
Substitution2: "'smcp' Lowercase to Small Capitals lookup 1 subtable" z.smcp
EndChar

StartChar: braceleft
Encoding: 123 123 94
Width: 321
GlyphClass: 2
Flags: W
LayerCount: 2
Fore
SplineSet
301 189 m 0,0,1
 301 180 301 180 300 171 c 2,2,-1
 268 -28 l 1,3,4
 261 -61 261 -61 261 -77 c 128,-1,5
 261 -93 261 -93 263 -102 c 0,6,7
 268 -126 268 -126 300 -126 c 1,8,-1
 277 -270 l 1,9,10
 150 -270 150 -270 101 -218 c 0,11,12
 64 -179 64 -179 64 -113 c 0,13,14
 64 -92 64 -92 68 -68 c 2,15,-1
 103 152 l 2,16,17
 104 158 104 158 104 169.5 c 128,-1,18
 104 181 104 181 93.5 193 c 128,-1,19
 83 205 83 205 59 205 c 0,20,21
 56 205 56 205 52 205 c 1,22,-1
 74 342 l 1,23,24
 134 347 134 347 142 395 c 2,25,-1
 179 626 l 2,26,27
 193 714 193 714 254.5 748 c 128,-1,28
 316 782 316 782 443 782 c 1,29,-1
 419 628 l 1,30,31
 388 628 388 628 377 607 c 128,-1,32
 366 586 366 586 355 516 c 2,33,-1
 334 380 l 2,34,35
 325 327 325 327 294.5 302.5 c 128,-1,36
 264 278 264 278 212 274 c 1,37,38
 301 255 301 255 301 189 c 0,0,1
EndSplineSet
EndChar

StartChar: bar
Encoding: 124 124 95
Width: 250
GlyphClass: 2
Flags: W
LayerCount: 2
Fore
SplineSet
36 -72 m 1,0,-1
 169 770 l 1,1,-1
 323 770 l 1,2,-1
 190 -72 l 1,3,-1
 36 -72 l 1,0,-1
EndSplineSet
EndChar

StartChar: braceright
Encoding: 125 125 96
Width: 322
GlyphClass: 2
Flags: W
LayerCount: 2
Fore
SplineSet
124 352 m 0,0,1
 124 365 124 365 127 380 c 2,2,-1
 148 516 l 2,3,4
 156 564 156 564 156 582 c 128,-1,5
 156 600 156 600 155 606 c 0,6,7
 150 628 150 628 120 628 c 1,8,-1
 145 782 l 1,9,10
 262 782 262 782 310 722 c 0,11,12
 346 677 346 677 346 611 c 0,13,14
 346 590 346 590 342 567 c 1,15,-1
 323 395 l 2,16,17
 323 391 323 391 323 388 c 0,18,19
 323 347 323 347 375 342 c 1,20,-1
 353 205 l 1,21,22
 349 205 349 205 346 205 c 0,23,24
 295 205 295 205 286 152 c 2,25,-1
 242 -108 l 2,26,27
 225 -205 225 -205 169 -237.5 c 128,-1,28
 113 -270 113 -270 -22 -270 c 1,29,-1
 1 -126 l 1,30,31
 33 -126 33 -126 43.5 -105 c 128,-1,32
 54 -84 54 -84 63 -28 c 2,33,-1
 95 171 l 2,34,35
 108 253 108 253 215 274 c 1,36,37
 164 278 164 278 144 299 c 128,-1,38
 124 320 124 320 124 352 c 0,0,1
EndSplineSet
EndChar

StartChar: asciitilde
Encoding: 126 126 97
Width: 403
GlyphClass: 2
Flags: W
LayerCount: 2
Fore
SplineSet
257 672 m 0,0,1
 280 672 280 672 309 654.5 c 128,-1,2
 338 637 338 637 357 637 c 0,3,4
 360 637 360 637 364 637 c 0,5,6
 412 637 412 637 457 677 c 1,7,-1
 471 603 l 1,8,9
 412 531 412 531 347 531 c 0,10,11
 325 531 325 531 290.5 548.5 c 128,-1,12
 256 566 256 566 237 566 c 0,13,14
 189 566 189 566 138 531 c 1,15,-1
 122 598 l 1,16,17
 186 672 186 672 257 672 c 0,0,1
EndSplineSet
EndChar

StartChar: exclamdown
Encoding: 161 161 98
Width: 281
GlyphClass: 2
Flags: W
LayerCount: 2
Fore
SplineSet
4 -270 m 1,0,-1
 109 265 l 1,1,-1
 256 265 l 1,2,-1
 190 -270 l 1,3,-1
 4 -270 l 1,0,-1
246 296 m 2,4,-1
 130 296 l 2,5,6
 109 296 109 296 109 316 c 0,7,8
 109 319 109 319 110 323 c 2,9,-1
 128 438 l 2,10,11
 131 459 131 459 156 461 c 1,12,-1
 270 461 l 1,13,14
 279 460 279 460 285 452.5 c 128,-1,15
 291 445 291 445 290 435 c 2,16,-1
 272 323 l 2,17,18
 268 296 268 296 246 296 c 2,4,-1
EndSplineSet
Substitution2: "'case' Case-Sensitive Forms lookup 18 subtable" exclamdown.alt
Substitution2: "'smcp' Lowercase to Small Capitals lookup 1 subtable" exclamdown.smcp
EndChar

StartChar: cent
Encoding: 162 162 99
Width: 483
GlyphClass: 2
Flags: W
LayerCount: 2
Fore
SplineSet
516 386 m 1,0,1
 457 392 457 392 401.5 392 c 128,-1,2
 346 392 346 392 337.5 391.5 c 128,-1,3
 329 391 329 391 314.5 387.5 c 128,-1,4
 300 384 300 384 294.5 376.5 c 128,-1,5
 289 369 289 369 280 355 c 0,6,7
 261 322 261 322 250 212 c 0,8,9
 249 204 249 204 249 195 c 128,-1,10
 249 186 249 186 251.5 174.5 c 128,-1,11
 254 163 254 163 257.5 155.5 c 128,-1,12
 261 148 261 148 273 144 c 0,13,14
 288 139 288 139 328 139 c 0,15,16
 409 139 409 139 466 145 c 2,17,-1
 485 147 l 1,18,-1
 467 33 l 1,19,20
 405 -6 405 -6 299 -6 c 1,21,-1
 285 -95 l 1,22,-1
 177 -95 l 1,23,-1
 192 -5 l 1,24,25
 115 -3 115 -3 78 73 c 0,26,27
 55 120 55 120 55 180 c 128,-1,28
 55 240 55 240 65.5 305.5 c 128,-1,29
 76 371 76 371 96.5 420.5 c 128,-1,30
 117 470 117 470 147 494.5 c 128,-1,31
 177 519 177 519 207.5 527.5 c 128,-1,32
 238 536 238 536 281 536 c 1,33,-1
 297 634 l 1,34,-1
 405 634 l 1,35,-1
 389 534 l 1,36,37
 472 527 472 527 534 500 c 1,38,-1
 516 386 l 1,0,1
EndSplineSet
EndChar

StartChar: sterling
Encoding: 163 163 100
Width: 572
GlyphClass: 2
Flags: W
LayerCount: 2
Fore
SplineSet
626 720 m 2,0,-1
 657 716 l 1,1,-1
 633 559 l 1,2,-1
 449 559 l 2,3,4
 403 559 403 559 385.5 546.5 c 128,-1,5
 368 534 368 534 361 487 c 2,6,-1
 351 422 l 1,7,-1
 529 405 l 1,8,-1
 513 300 l 1,9,-1
 332 300 l 1,10,-1
 312 174 l 1,11,-1
 571 174 l 1,12,-1
 543 0 l 1,13,-1
 28 0 l 1,14,-1
 52 149 l 1,15,-1
 118 174 l 1,16,-1
 138 300 l 1,17,-1
 76 300 l 1,18,-1
 91 395 l 1,19,-1
 157 422 l 1,20,-1
 169 495 l 2,21,22
 188 613 188 613 228 658 c 0,23,24
 250 683 250 683 272 698.5 c 128,-1,25
 294 714 294 714 332 721 c 0,26,27
 392 732 392 732 463.5 732 c 128,-1,28
 535 732 535 732 626 720 c 2,0,-1
EndSplineSet
Substitution2: "'smcp' Lowercase to Small Capitals lookup 1 subtable" sterling.smcp
EndChar

StartChar: currency
Encoding: 164 164 101
Width: 436
GlyphClass: 2
Flags: W
LayerCount: 2
Fore
SplineSet
429 334 m 0,0,1
 429 269 429 269 382 216 c 1,2,-1
 421 173 l 1,3,-1
 359 112 l 1,4,-1
 311 165 l 1,5,6
 278 151 278 151 239 151 c 128,-1,7
 200 151 200 151 165 175 c 1,8,-1
 111 126 l 1,9,-1
 61 182 l 1,10,-1
 119 233 l 1,11,12
 110 260 110 260 110 297.5 c 128,-1,13
 110 335 110 335 140 381 c 1,14,-1
 96 429 l 1,15,-1
 160 488 l 1,16,-1
 202 441 l 1,17,18
 246 468 246 468 291.5 468 c 128,-1,19
 337 468 337 468 372 444 c 1,20,-1
 425 492 l 1,21,-1
 478 439 l 1,22,-1
 419 387 l 1,23,24
 429 362 429 362 429 334 c 0,0,1
279 373 m 128,-1,26
 253 373 253 373 229 351.5 c 128,-1,27
 205 330 205 330 205 291 c 0,28,29
 205 279 205 279 219 262.5 c 128,-1,30
 233 246 233 246 259 246 c 128,-1,31
 285 246 285 246 306 264 c 0,32,33
 333 288 333 288 333 321 c 0,34,35
 333 340 333 340 319 356.5 c 128,-1,25
 305 373 305 373 279 373 c 128,-1,26
EndSplineSet
EndChar

StartChar: yen
Encoding: 165 165 102
Width: 662
GlyphClass: 2
Flags: W
LayerCount: 2
Fore
SplineSet
130 128 m 1,0,-1
 146 227 l 1,1,-1
 261 227 l 1,2,-1
 265 252 l 1,3,-1
 150 252 l 1,4,-1
 166 351 l 1,5,-1
 219 351 l 1,6,-1
 126 732 l 1,7,-1
 337 732 l 1,8,-1
 382 408 l 1,9,-1
 535 732 l 1,10,-1
 766 732 l 1,11,-1
 539 351 l 1,12,-1
 593 351 l 1,13,-1
 577 252 l 1,14,-1
 459 252 l 1,15,-1
 455 227 l 1,16,-1
 573 227 l 1,17,-1
 557 128 l 1,18,-1
 439 128 l 1,19,-1
 419 0 l 1,20,-1
 225 0 l 1,21,-1
 245 128 l 1,22,-1
 130 128 l 1,0,-1
EndSplineSet
Substitution2: "'smcp' Lowercase to Small Capitals lookup 1 subtable" yen.smcp
EndChar

StartChar: brokenbar
Encoding: 166 166 103
Width: 250
GlyphClass: 2
Flags: W
LayerCount: 2
Fore
SplineSet
36 -72 m 1,0,-1
 88 256 l 1,1,-1
 242 256 l 1,2,-1
 190 -72 l 1,3,-1
 36 -72 l 1,0,-1
115 429 m 1,4,-1
 169 770 l 1,5,-1
 323 770 l 1,6,-1
 269 429 l 1,7,-1
 115 429 l 1,4,-1
EndSplineSet
EndChar

StartChar: section
Encoding: 167 167 104
Width: 531
GlyphClass: 2
Flags: W
LayerCount: 2
Fore
SplineSet
480 315 m 1,0,1
 535 305 535 305 535 213 c 0,2,3
 535 198 535 198 533 183 c 2,4,-1
 527 140 l 1,5,6
 513 47 513 47 460 16 c 0,7,8
 418 -8 418 -8 362 -8 c 0,9,10
 128 -8 128 -8 69 11 c 1,11,-1
 90 146 l 1,12,-1
 304 146 l 2,13,14
 320 146 320 146 326.5 150.5 c 128,-1,15
 333 155 333 155 335 167 c 2,16,-1
 337 179 l 2,17,18
 339 190 339 190 333 195 c 128,-1,19
 327 200 327 200 312 200 c 2,20,-1
 232 200 l 2,21,22
 154 200 154 200 117 232.5 c 128,-1,23
 80 265 80 265 80 315 c 0,24,25
 80 328 80 328 82 343 c 2,26,-1
 84 355 l 2,27,28
 94 421 94 421 130 446 c 0,29,30
 149 459 149 459 179 468 c 1,31,32
 122 498 122 498 122 572 c 0,33,34
 122 590 122 590 125 610 c 2,35,-1
 128 640 l 1,36,37
 146 784 146 784 304 784 c 0,38,39
 515 784 515 784 585 765 c 1,40,-1
 564 630 l 1,41,-1
 350 630 l 2,42,43
 323 630 323 630 320 606 c 0,44,45
 315 575 315 575 343 575 c 2,46,-1
 420 575 l 2,47,48
 576 575 576 575 576 466 c 0,49,50
 576 454 576 454 574 440 c 2,51,-1
 572 428 l 2,52,53
 558 340 558 340 480 315 c 1,0,1
284 377 m 2,54,55
 283 371 283 371 283 363 c 0,56,57
 283 344 283 344 315 344 c 2,58,-1
 325 344 l 2,59,60
 348 344 348 344 356.5 350.5 c 128,-1,61
 365 357 365 357 368 378 c 2,62,-1
 371 396 l 2,63,64
 372 402 372 402 372 409.5 c 128,-1,65
 372 417 372 417 367.5 423.5 c 128,-1,66
 363 430 363 430 338 430 c 2,67,-1
 328 430 l 2,68,69
 297 430 297 430 291 413 c 0,70,71
 289 407 289 407 287 394 c 2,72,-1
 284 377 l 2,54,55
EndSplineSet
EndChar

StartChar: dieresis
Encoding: 168 168 105
Width: 441
GlyphClass: 2
Flags: W
LayerCount: 2
Fore
SplineSet
196 647 m 128,-1,1
 223 647 223 647 237.5 630 c 128,-1,2
 252 613 252 613 252 600 c 0,3,4
 252 560 252 560 227 538 c 128,-1,5
 202 516 202 516 175 516 c 128,-1,6
 148 516 148 516 133.5 533.5 c 128,-1,7
 119 551 119 551 119 564 c 0,8,9
 119 605 119 605 144 626 c 128,-1,0
 169 647 169 647 196 647 c 128,-1,1
451 647 m 128,-1,11
 478 647 478 647 492.5 630 c 128,-1,12
 507 613 507 613 507 600 c 0,13,14
 507 560 507 560 482 538 c 128,-1,15
 457 516 457 516 430 516 c 128,-1,16
 403 516 403 516 388.5 533 c 128,-1,17
 374 550 374 550 374 563 c 0,18,19
 374 605 374 605 399 626 c 128,-1,10
 424 647 424 647 451 647 c 128,-1,11
EndSplineSet
Substitution2: "'smcp' Lowercase to Small Capitals lookup 1 subtable" dieresis.smcp
EndChar

StartChar: copyright
Encoding: 169 169 106
Width: 791
GlyphClass: 2
Flags: W
LayerCount: 2
Fore
SplineSet
421 732 m 2,0,-1
 621 732 l 2,1,2
 831 732 831 732 831 475 c 0,3,4
 831 414 831 414 819 338 c 0,5,6
 790 154 790 154 711 77 c 128,-1,7
 632 0 632 0 510 0 c 2,8,-1
 310 0 l 2,9,10
 171 0 171 0 116 107 c 0,11,12
 79 178 79 178 79 279 c 0,13,14
 79 330 79 330 90 398.5 c 128,-1,15
 101 467 101 467 121.5 525 c 128,-1,16
 142 583 142 583 180 632 c 0,17,18
 256 732 256 732 421 732 c 2,0,-1
194 276 m 0,19,20
 194 104 194 104 323 104 c 2,21,-1
 513 104 l 2,22,23
 586 104 586 104 634 164 c 0,24,25
 695 240 695 240 715 442 c 0,26,27
 717 461 717 461 717 478.5 c 128,-1,28
 717 496 717 496 715.5 522 c 128,-1,29
 714 548 714 548 703.5 571.5 c 128,-1,30
 693 595 693 595 668.5 611.5 c 128,-1,31
 644 628 644 628 606 628 c 2,32,-1
 406 628 l 2,33,34
 286 628 286 628 235 499 c 0,35,36
 214 446 214 446 204 381.5 c 128,-1,37
 194 317 194 317 194 276 c 0,19,20
384 321 m 0,38,39
 384 251 384 251 447 251 c 0,40,41
 514 251 514 251 596 267 c 1,42,-1
 582 175 l 1,43,44
 534 151 534 151 461 148 c 0,45,46
 437 147 437 147 392 147 c 0,47,48
 325 147 325 147 290 203 c 0,49,50
 267 239 267 239 267 289 c 128,-1,51
 267 339 267 339 274 382 c 0,52,53
 292 496 292 496 335.5 539.5 c 128,-1,54
 379 583 379 583 452 583 c 0,55,56
 576 583 576 583 636 559 c 1,57,-1
 622 467 l 1,58,59
 539 479 539 479 476 479 c 0,60,61
 435 479 435 479 416.5 455.5 c 128,-1,62
 398 432 398 432 387 362 c 0,63,64
 384 339 384 339 384 321 c 0,38,39
EndSplineSet
EndChar

StartChar: ordfeminine
Encoding: 170 170 107
Width: 360
GlyphClass: 3
Flags: W
LayerCount: 2
Fore
SplineSet
57 258 m 1,0,-1
 69 336 l 1,1,-1
 404 336 l 1,2,-1
 392 258 l 1,3,-1
 57 258 l 1,0,-1
272 734 m 0,4,5
 402 734 402 734 444 693 c 1,6,-1
 397 370 l 1,7,-1
 295 370 l 1,8,-1
 275 412 l 1,9,10
 264 388 264 388 234 376.5 c 128,-1,11
 204 365 204 365 172 365 c 0,12,13
 120 365 120 365 92 426 c 0,14,15
 76 460 76 460 76 500 c 128,-1,16
 76 540 76 540 85.5 583 c 128,-1,17
 95 626 95 626 111.5 656 c 128,-1,18
 128 686 128 686 144.5 701 c 128,-1,19
 161 716 161 716 186.5 724 c 128,-1,20
 212 732 212 732 228 733 c 128,-1,21
 244 734 244 734 272 734 c 0,4,5
206 519 m 0,22,23
 206 481 206 481 233 481 c 0,24,25
 255 481 255 481 270.5 489.5 c 128,-1,26
 286 498 286 498 287 512 c 1,27,-1
 305 632 l 1,28,29
 297 638 297 638 284.5 638 c 128,-1,30
 272 638 272 638 257 634.5 c 128,-1,31
 242 631 242 631 230 617.5 c 128,-1,32
 218 604 218 604 213 567 c 1,33,34
 206 541 206 541 206 519 c 0,22,23
EndSplineSet
Substitution2: "'smcp' Lowercase to Small Capitals lookup 1 subtable" ordfeminine.smcp
Ligature2: "'ordn' Ordinals lookup 0 subtable" a
EndChar

StartChar: guillemotleft
Encoding: 171 171 108
Width: 596
GlyphClass: 2
Flags: W
LayerCount: 2
Fore
SplineSet
84 354 m 1,0,-1
 322 557 l 1,1,-1
 404 462 l 1,2,-1
 267 344 l 1,3,-1
 371 224 l 1,4,-1
 262 146 l 1,5,-1
 84 354 l 1,0,-1
320 354 m 1,6,-1
 558 557 l 1,7,-1
 640 462 l 1,8,-1
 503 344 l 1,9,-1
 607 224 l 1,10,-1
 498 146 l 1,11,-1
 320 354 l 1,6,-1
EndSplineSet
EndChar

StartChar: logicalnot
Encoding: 172 172 109
Width: 466
GlyphClass: 2
Flags: W
LayerCount: 2
Fore
SplineSet
505 370 m 1,0,-1
 471 159 l 1,1,-1
 327 159 l 1,2,-1
 338 226 l 1,3,-1
 55 226 l 1,4,-1
 78 370 l 1,5,-1
 505 370 l 1,0,-1
EndSplineSet
EndChar

StartChar: uni00AD
Encoding: 173 173 110
Width: 353
GlyphClass: 2
Flags: W
LayerCount: 2
Fore
SplineSet
53 213 m 1,0,-1
 77 367 l 1,1,-1
 391 367 l 1,2,-1
 367 213 l 1,3,-1
 53 213 l 1,0,-1
EndSplineSet
Substitution2: "'case' Case-Sensitive Forms lookup 18 subtable" uni00AD.alt
Substitution2: "'c2sc' Capitals to Small Capitals in Latin lookup 2 subtable" uni00AD.smcp
Substitution2: "'smcp' Lowercase to Small Capitals lookup 1 subtable" uni00AD.smcp
EndChar

StartChar: registered
Encoding: 174 174 111
Width: 791
GlyphClass: 2
Flags: W
LayerCount: 2
Fore
SplineSet
421 732 m 2,0,-1
 621 732 l 2,1,2
 831 732 831 732 831 475 c 0,3,4
 831 414 831 414 819 338 c 0,5,6
 790 154 790 154 711 77 c 128,-1,7
 632 0 632 0 510 0 c 2,8,-1
 310 0 l 2,9,10
 171 0 171 0 116 107 c 0,11,12
 79 178 79 178 79 279 c 0,13,14
 79 330 79 330 90 398.5 c 128,-1,15
 101 467 101 467 121.5 525 c 128,-1,16
 142 583 142 583 180 632 c 0,17,18
 256 732 256 732 421 732 c 2,0,-1
194 276 m 0,19,20
 194 104 194 104 323 104 c 2,21,-1
 513 104 l 2,22,23
 586 104 586 104 634 164 c 0,24,25
 695 240 695 240 715 442 c 0,26,27
 717 461 717 461 717 478.5 c 128,-1,28
 717 496 717 496 715.5 522 c 128,-1,29
 714 548 714 548 703.5 571.5 c 128,-1,30
 693 595 693 595 668.5 611.5 c 128,-1,31
 644 628 644 628 606 628 c 2,32,-1
 406 628 l 2,33,34
 286 628 286 628 235 499 c 0,35,36
 214 446 214 446 204 381.5 c 128,-1,37
 194 317 194 317 194 276 c 0,19,20
514 580 m 2,38,39
 629 580 629 580 629 478 c 0,40,41
 629 461 629 461 626 442 c 0,42,43
 617 384 617 384 597 353.5 c 128,-1,44
 577 323 577 323 541 311 c 1,45,-1
 600 153 l 1,46,-1
 479 153 l 1,47,-1
 426 303 l 1,48,-1
 399 315 l 1,49,-1
 373 153 l 1,50,-1
 259 153 l 1,51,-1
 327 580 l 1,52,-1
 514 580 l 2,38,39
451 399 m 2,53,54
 489 399 489 399 498 405.5 c 128,-1,55
 507 412 507 412 510 430 c 128,-1,56
 513 448 513 448 513 457 c 128,-1,57
 513 466 513 466 505.5 471 c 128,-1,58
 498 476 498 476 463 476 c 2,59,-1
 424 476 l 1,60,-1
 412 399 l 1,61,-1
 451 399 l 2,53,54
EndSplineSet
EndChar

StartChar: macron
Encoding: 175 175 112
Width: 348
GlyphClass: 2
Flags: W
LayerCount: 2
Fore
SplineSet
112 531 m 1,0,-1
 127 624 l 1,1,-1
 419 624 l 1,2,-1
 404 531 l 1,3,-1
 112 531 l 1,0,-1
EndSplineSet
Substitution2: "'smcp' Lowercase to Small Capitals lookup 1 subtable" macron.smcp
EndChar

StartChar: degree
Encoding: 176 176 113
Width: 256
GlyphClass: 2
Flags: W
LayerCount: 2
Fore
SplineSet
236 731 m 128,-1,1
 278 731 278 731 304 704.5 c 128,-1,2
 330 678 330 678 330 642 c 0,3,4
 330 594 330 594 296.5 564.5 c 128,-1,5
 263 535 263 535 220 535 c 128,-1,6
 177 535 177 535 151 561 c 128,-1,7
 125 587 125 587 125 622 c 0,8,9
 125 670 125 670 159.5 700.5 c 128,-1,0
 194 731 194 731 236 731 c 128,-1,1
232 668 m 128,-1,11
 217 668 217 668 204.5 657 c 128,-1,12
 192 646 192 646 192 631 c 128,-1,13
 192 616 192 616 201 606.5 c 128,-1,14
 210 597 210 597 225 597 c 128,-1,15
 240 597 240 597 250 607 c 0,16,17
 263 619 263 619 263 634 c 128,-1,18
 263 649 263 649 255 658.5 c 128,-1,10
 247 668 247 668 232 668 c 128,-1,11
EndSplineSet
Substitution2: "'smcp' Lowercase to Small Capitals lookup 1 subtable" degree.smcp
EndChar

StartChar: plusminus
Encoding: 177 177 114
Width: 480
GlyphClass: 2
Flags: W
LayerCount: 2
Fore
SplineSet
41 57 m 1,0,-1
 65 211 l 1,1,-1
 481 211 l 1,2,-1
 457 57 l 1,3,-1
 41 57 l 1,0,-1
93 377 m 1,4,-1
 117 531 l 1,5,-1
 247 531 l 1,6,-1
 268 662 l 1,7,-1
 422 662 l 1,8,-1
 401 531 l 1,9,-1
 533 531 l 1,10,-1
 509 377 l 1,11,-1
 377 377 l 1,12,-1
 356 246 l 1,13,-1
 202 246 l 1,14,-1
 223 377 l 1,15,-1
 93 377 l 1,4,-1
EndSplineSet
EndChar

StartChar: twosuperior
Encoding: 178 178 115
Width: 409
GlyphClass: 2
Flags: W
LayerCount: 2
Fore
SplineSet
484 712 m 0,0,1
 484 591 484 591 332 486 c 1,2,-1
 449 486 l 1,3,-1
 428 355 l 1,4,-1
 61 355 l 1,5,-1
 81 481 l 1,6,7
 144 515 144 515 236 582 c 128,-1,8
 328 649 328 649 333 678 c 0,9,10
 334 683 334 683 334 688 c 0,11,12
 334 705 334 705 320 711.5 c 128,-1,13
 306 718 306 718 262 718 c 2,14,-1
 114 718 l 1,15,-1
 132 827 l 1,16,17
 232 849 232 849 340 849 c 0,18,19
 418 849 418 849 455 800 c 0,20,21
 484 763 484 763 484 712 c 0,0,1
EndSplineSet
EndChar

StartChar: threesuperior
Encoding: 179 179 116
Width: 410
GlyphClass: 2
Flags: W
LayerCount: 2
Fore
SplineSet
227 481 m 2,0,1
 269 481 269 481 281.5 485 c 128,-1,2
 294 489 294 489 296 505 c 1,3,4
 300 525 300 525 288 529 c 128,-1,5
 276 533 276 533 239 535 c 2,6,-1
 131 539 l 1,7,-1
 149 658 l 1,8,-1
 260 662 l 2,9,10
 311 664 311 664 318 669.5 c 128,-1,11
 325 675 325 675 326 685 c 1,12,-1
 326 689 l 1,13,14
 329 705 329 705 315 709 c 128,-1,15
 301 713 301 713 268 713 c 2,16,-1
 113 713 l 1,17,-1
 130 822 l 1,18,19
 193 845 193 845 322 845 c 0,20,21
 342 845 342 845 363 844 c 0,22,23
 421 843 421 843 449 809.5 c 128,-1,24
 477 776 477 776 477 735 c 0,25,26
 477 722 477 722 475 708 c 2,27,-1
 471 682 l 2,28,29
 459 607 459 607 393 598 c 1,30,31
 443 585 443 585 443 519 c 0,32,33
 443 502 443 502 440 482 c 2,34,-1
 436 462 l 1,35,36
 418 350 418 350 280 350 c 0,37,38
 244 350 244 350 217.5 350 c 128,-1,39
 191 350 191 350 185 350.5 c 128,-1,40
 179 351 179 351 163.5 352 c 128,-1,41
 148 353 148 353 140.5 354 c 128,-1,42
 133 355 133 355 120.5 356.5 c 128,-1,43
 108 358 108 358 100 360 c 0,44,45
 80 365 80 365 63 371 c 1,46,-1
 81 481 l 1,47,-1
 227 481 l 2,0,1
EndSplineSet
EndChar

StartChar: acute
Encoding: 180 180 117
Width: 244
GlyphClass: 2
Flags: W
LayerCount: 2
Fore
SplineSet
95 531 m 1,0,-1
 195 674 l 1,1,-1
 340 674 l 1,2,-1
 204 531 l 1,3,-1
 95 531 l 1,0,-1
EndSplineSet
Substitution2: "'smcp' Lowercase to Small Capitals lookup 1 subtable" acute.smcp
EndChar

StartChar: uni00B5
Encoding: 181 181 118
Width: 583
GlyphClass: 2
Flags: W
LayerCount: 2
Fore
SplineSet
272 164 m 0,0,1
 272 135 272 135 299 135 c 0,2,3
 356 135 356 135 378 172 c 1,4,-1
 435 531 l 1,5,-1
 629 531 l 1,6,-1
 545 0 l 1,7,-1
 383 0 l 1,8,-1
 359 52 l 1,9,10
 305 16 305 16 285 7 c 128,-1,11
 265 -2 265 -2 244 -6 c 1,12,-1
 202 -270 l 1,13,-1
 8 -270 l 1,14,-1
 135 531 l 1,15,-1
 329 531 l 1,16,-1
 274 187 l 2,17,18
 272 173 272 173 272 164 c 0,0,1
EndSplineSet
EndChar

StartChar: paragraph
Encoding: 182 182 119
Width: 573
GlyphClass: 2
Flags: W
LayerCount: 2
Fore
SplineSet
290 372 m 1,0,1
 263 355 263 355 234 355 c 0,2,3
 155 355 155 355 123 404 c 0,4,5
 99 442 99 442 99 490 c 0,6,7
 99 505 99 505 101 521 c 2,8,-1
 115 614 l 2,9,10
 126 681 126 681 170.5 706.5 c 128,-1,11
 215 732 215 732 293 732 c 2,12,-1
 678 732 l 1,13,-1
 658 606 l 1,14,-1
 619 606 l 1,15,-1
 523 0 l 1,16,-1
 399 0 l 1,17,-1
 496 608 l 1,18,-1
 452 608 l 1,19,-1
 313 -270 l 1,20,-1
 189 -270 l 1,21,-1
 290 372 l 1,0,1
228 519 m 2,22,23
 227 510 227 510 227 500 c 128,-1,24
 227 490 227 490 233 484.5 c 128,-1,25
 239 479 239 479 263 479 c 2,26,-1
 307 479 l 1,27,-1
 328 608 l 1,28,-1
 284 608 l 2,29,30
 255 608 255 608 247 599.5 c 128,-1,31
 239 591 239 591 234 558 c 2,32,-1
 228 519 l 2,22,23
EndSplineSet
EndChar

StartChar: periodcentered
Encoding: 183 183 120
Width: 256
GlyphClass: 2
Flags: W
LayerCount: 2
Fore
SplineSet
146 470 m 2,0,-1
 259 470 l 2,1,2
 281 470 281 470 281 452 c 0,3,4
 281 449 281 449 280 445 c 2,5,-1
 261 328 l 2,6,7
 257 305 257 305 233 305 c 2,8,-1
 120 305 l 2,9,10
 96 305 96 305 99 328 c 2,11,-1
 118 445 l 1,12,13
 121 470 121 470 146 470 c 2,0,-1
EndSplineSet
Substitution2: "'smcp' Lowercase to Small Capitals lookup 1 subtable" periodcentered.smcp
EndChar

StartChar: cedilla
Encoding: 184 184 121
Width: 238
GlyphClass: 2
Flags: W
LayerCount: 2
Fore
SplineSet
61 -183 m 2,0,-1
 0 -183 l 1,1,-1
 13 -104 l 1,2,-1
 52 -89 l 2,3,4
 74 -80 74 -80 78.5 -73 c 128,-1,5
 83 -66 83 -66 88 -37 c 1,6,-1
 205 -37 l 1,7,8
 193 -115 193 -115 161 -149 c 128,-1,9
 129 -183 129 -183 61 -183 c 2,0,-1
EndSplineSet
EndChar

StartChar: onesuperior
Encoding: 185 185 122
Width: 282
GlyphClass: 2
Flags: W
LayerCount: 2
Fore
SplineSet
196 700 m 1,0,1
 178 685 178 685 133 685 c 0,2,3
 127 685 127 685 122 686 c 2,4,-1
 105 687 l 1,5,-1
 120 787 l 1,6,7
 187 805 187 805 219 842 c 1,8,-1
 363 842 l 1,9,-1
 286 355 l 1,10,-1
 140 355 l 1,11,-1
 196 700 l 1,0,1
EndSplineSet
EndChar

StartChar: ordmasculine
Encoding: 186 186 123
Width: 384
GlyphClass: 3
Flags: W
LayerCount: 2
Fore
SplineSet
72 258 m 1,0,-1
 84 336 l 1,1,-1
 419 336 l 1,2,-1
 407 258 l 1,3,-1
 72 258 l 1,0,-1
171.5 700 m 128,-1,5
 216 733 216 733 310 733 c 128,-1,6
 404 733 404 733 438 685 c 0,7,8
 460 653 460 653 460 596 c 0,9,10
 460 567 460 567 454 531 c 0,11,12
 439 436 439 436 396.5 404.5 c 128,-1,13
 354 373 354 373 258.5 373 c 128,-1,14
 163 373 163 373 130 420 c 0,15,16
 106 453 106 453 106 510 c 0,17,18
 106 535 106 535 111 565 c 0,19,4
 127 667 127 667 171.5 700 c 128,-1,5
249 570.5 m 128,-1,21
 247 557 247 557 244 538.5 c 128,-1,22
 241 520 241 520 241 508.5 c 128,-1,23
 241 497 241 497 242 492 c 1,24,25
 247 481 247 481 273 481 c 128,-1,26
 299 481 299 481 305 488 c 256,27,28
 311 495 311 495 319 549 c 1,29,30
 327 588 327 588 327 598.5 c 128,-1,31
 327 609 327 609 326 612 c 0,32,33
 324 625 324 625 295 625 c 0,34,35
 286 625 286 625 280.5 624 c 128,-1,36
 275 623 275 623 270.5 622.5 c 128,-1,37
 266 622 266 622 263 618 c 128,-1,38
 260 614 260 614 258 611.5 c 128,-1,39
 256 609 256 609 254.5 601 c 128,-1,40
 253 593 253 593 252 588.5 c 128,-1,20
 251 584 251 584 249 570.5 c 128,-1,21
EndSplineSet
Substitution2: "'smcp' Lowercase to Small Capitals lookup 1 subtable" ordmasculine.smcp
Ligature2: "'ordn' Ordinals lookup 0 subtable" o
EndChar

StartChar: guillemotright
Encoding: 187 187 124
Width: 595
GlyphClass: 2
Flags: W
LayerCount: 2
Fore
SplineSet
66 244 m 1,0,-1
 206 368 l 1,1,-1
 112 472 l 1,2,-1
 214 557 l 1,3,-1
 387 354 l 1,4,-1
 153 146 l 1,5,-1
 66 244 l 1,0,-1
302 244 m 1,6,-1
 442 368 l 1,7,-1
 347 472 l 1,8,-1
 449 557 l 1,9,-1
 623 354 l 1,10,-1
 389 146 l 1,11,-1
 302 244 l 1,6,-1
EndSplineSet
EndChar

StartChar: onequarter
Encoding: 188 188 125
Width: 1021
GlyphClass: 3
Flags: W
LayerCount: 2
Fore
SplineSet
196 600 m 1,0,1
 178 585 178 585 133 585 c 0,2,3
 127 585 127 585 122 586 c 2,4,-1
 105 587 l 1,5,-1
 120 687 l 1,6,7
 187 705 187 705 219 742 c 1,8,-1
 363 742 l 1,9,-1
 286 255 l 1,10,-1
 140 255 l 1,11,-1
 196 600 l 1,0,1
208 0 m 1,12,-1
 696 770 l 1,13,-1
 837 770 l 1,14,-1
 349 0 l 1,15,-1
 208 0 l 1,12,-1
597 144 m 1,16,-1
 792 486 l 1,17,-1
 945 486 l 1,18,-1
 796 213 l 1,19,-1
 863 213 l 1,20,-1
 877 300 l 1,21,-1
 906 351 l 1,22,-1
 1025 351 l 1,23,-1
 1003 213 l 1,24,-1
 1043 213 l 1,25,-1
 1025 101 l 1,26,-1
 979 80 l 1,27,-1
 970 1 l 1,28,-1
 830 1 l 1,29,-1
 842 79 l 1,30,-1
 620 79 l 1,31,-1
 597 144 l 1,16,-1
EndSplineSet
Ligature2: "'frac' Diagonal Fractions lookup 7 subtable" one slash four
Ligature2: "'frac' Diagonal Fractions lookup 7 subtable" one fraction four
EndChar

StartChar: onehalf
Encoding: 189 189 126
Width: 1040
GlyphClass: 3
Flags: W
LayerCount: 2
Fore
SplineSet
196 600 m 1,0,1
 178 585 178 585 133 585 c 0,2,3
 127 585 127 585 122 586 c 2,4,-1
 105 587 l 1,5,-1
 120 687 l 1,6,7
 187 705 187 705 219 742 c 1,8,-1
 363 742 l 1,9,-1
 286 255 l 1,10,-1
 140 255 l 1,11,-1
 196 600 l 1,0,1
207 0 m 1,12,-1
 695 770 l 1,13,-1
 836 770 l 1,14,-1
 348 0 l 1,15,-1
 207 0 l 1,12,-1
1075 356 m 0,16,17
 1075 235 1075 235 923 130 c 1,18,-1
 1040 130 l 1,19,-1
 1019 -1 l 1,20,-1
 652 -1 l 1,21,-1
 672 125 l 1,22,23
 735 159 735 159 827 226 c 128,-1,24
 919 293 919 293 924 322 c 0,25,26
 925 327 925 327 925 338 c 128,-1,27
 925 349 925 349 911.5 355.5 c 128,-1,28
 898 362 898 362 854 362 c 2,29,-1
 706 362 l 1,30,-1
 723 471 l 1,31,32
 823 493 823 493 931 493 c 0,33,34
 1009 493 1009 493 1046 444 c 0,35,36
 1075 407 1075 407 1075 356 c 0,16,17
EndSplineSet
Ligature2: "'frac' Diagonal Fractions lookup 7 subtable" one slash two
Ligature2: "'frac' Diagonal Fractions lookup 7 subtable" one fraction two
EndChar

StartChar: threequarters
Encoding: 190 190 127
Width: 1130
GlyphClass: 3
Flags: W
LayerCount: 2
Fore
SplineSet
227 381 m 2,0,1
 269 381 269 381 281.5 385 c 128,-1,2
 294 389 294 389 296 405 c 1,3,4
 300 425 300 425 288 429 c 128,-1,5
 276 433 276 433 239 435 c 2,6,-1
 131 439 l 1,7,-1
 149 558 l 1,8,-1
 260 562 l 2,9,10
 311 564 311 564 318 569.5 c 128,-1,11
 325 575 325 575 326 585 c 1,12,-1
 326 589 l 1,13,14
 329 605 329 605 315 609 c 128,-1,15
 301 613 301 613 268 613 c 2,16,-1
 113 613 l 1,17,-1
 130 722 l 1,18,19
 193 745 193 745 322 745 c 0,20,21
 342 745 342 745 363 744 c 0,22,23
 421 743 421 743 449 709.5 c 128,-1,24
 477 676 477 676 477 635 c 0,25,26
 477 622 477 622 475 608 c 2,27,-1
 471 582 l 2,28,29
 459 507 459 507 393 498 c 1,30,31
 443 485 443 485 443 419 c 0,32,33
 443 402 443 402 440 382 c 2,34,-1
 436 362 l 1,35,36
 418 250 418 250 280 250 c 0,37,38
 244 250 244 250 217.5 250 c 128,-1,39
 191 250 191 250 185 250.5 c 128,-1,40
 179 251 179 251 163.5 252 c 128,-1,41
 148 253 148 253 140.5 254 c 128,-1,42
 133 255 133 255 120.5 256.5 c 128,-1,43
 108 258 108 258 100 260 c 0,44,45
 80 265 80 265 63 271 c 1,46,-1
 81 381 l 1,47,-1
 227 381 l 2,0,1
310 0 m 1,48,-1
 798 770 l 1,49,-1
 939 770 l 1,50,-1
 451 0 l 1,51,-1
 310 0 l 1,48,-1
689 144 m 1,52,-1
 885 486 l 1,53,-1
 1038 486 l 1,54,-1
 888 213 l 1,55,-1
 955 213 l 1,56,-1
 969 300 l 1,57,-1
 998 351 l 1,58,-1
 1117 351 l 1,59,-1
 1095 213 l 1,60,-1
 1135 213 l 1,61,-1
 1118 101 l 1,62,-1
 1071 80 l 1,63,-1
 1062 1 l 1,64,-1
 922 1 l 1,65,-1
 934 79 l 1,66,-1
 712 79 l 1,67,-1
 689 144 l 1,52,-1
EndSplineSet
Ligature2: "'frac' Diagonal Fractions lookup 7 subtable" three slash four
Ligature2: "'frac' Diagonal Fractions lookup 7 subtable" three fraction four
EndChar

StartChar: questiondown
Encoding: 191 191 128
Width: 542
GlyphClass: 2
Flags: W
LayerCount: 2
Fore
SplineSet
208 -42 m 0,0,1
 208 -92 208 -92 287 -92 c 2,2,-1
 518 -92 l 1,3,-1
 495 -237 l 1,4,5
 373 -268 373 -268 249 -268 c 0,6,7
 229 -268 229 -268 208 -267 c 1,8,9
 136 -267 136 -267 87 -230 c 128,-1,10
 38 -193 38 -193 23 -150.5 c 128,-1,11
 8 -108 8 -108 8 -82 c 128,-1,12
 8 -56 8 -56 11 -40 c 2,13,-1
 19 11 l 2,14,15
 35 115 35 115 87 155.5 c 128,-1,16
 139 196 139 196 245 196 c 0,17,18
 255 196 255 196 265 196 c 1,19,-1
 278 277 l 1,20,-1
 423 277 l 1,21,-1
 388 55 l 1,22,-1
 296 55 l 1,23,24
 257 53 257 53 237.5 38 c 128,-1,25
 218 23 218 23 212 -15 c 1,26,-1
 209 -30 l 2,27,28
 208 -37 208 -37 208 -42 c 0,0,1
326 472 m 2,29,-1
 439 472 l 2,30,31
 459 472 459 472 459 454 c 0,32,33
 459 452 459 452 459 449 c 2,34,-1
 441 332 l 2,35,36
 438 307 438 307 413 307 c 2,37,-1
 300 307 l 2,38,39
 278 307 278 307 278 325 c 0,40,41
 278 328 278 328 279 332 c 2,42,-1
 297 449 l 2,43,44
 301 472 301 472 326 472 c 2,29,-1
EndSplineSet
Substitution2: "'case' Case-Sensitive Forms lookup 18 subtable" questiondown.alt
Substitution2: "'smcp' Lowercase to Small Capitals lookup 1 subtable" questiondown.smcp
EndChar

StartChar: Agrave
Encoding: 192 192 129
Width: 711
GlyphClass: 2
Flags: W
LayerCount: 2
Fore
SplineSet
350 940 m 1,0,-1
 495 940 l 1,1,-1
 549 797 l 1,2,-1
 440 797 l 1,3,-1
 350 940 l 1,0,-1
25 0 m 1,4,-1
 370 732 l 1,5,-1
 599 732 l 1,6,-1
 705 0 l 1,7,-1
 506 0 l 1,8,-1
 485 128 l 1,9,-1
 297 128 l 1,10,-1
 240 0 l 1,11,-1
 25 0 l 1,4,-1
367 293 m 1,12,-1
 472 293 l 1,13,-1
 449 489 l 1,14,-1
 367 293 l 1,12,-1
EndSplineSet
Substitution2: "'c2sc' Capitals to Small Capitals in Latin lookup 2 subtable" agrave.smcp
EndChar

StartChar: Aacute
Encoding: 193 193 130
Width: 711
GlyphClass: 2
Flags: W
LayerCount: 2
Fore
SplineSet
440 797 m 1,0,-1
 540 940 l 1,1,-1
 685 940 l 1,2,-1
 549 797 l 1,3,-1
 440 797 l 1,0,-1
25 0 m 1,4,-1
 370 732 l 1,5,-1
 599 732 l 1,6,-1
 705 0 l 1,7,-1
 506 0 l 1,8,-1
 485 128 l 1,9,-1
 297 128 l 1,10,-1
 240 0 l 1,11,-1
 25 0 l 1,4,-1
367 293 m 1,12,-1
 472 293 l 1,13,-1
 449 489 l 1,14,-1
 367 293 l 1,12,-1
EndSplineSet
Substitution2: "'c2sc' Capitals to Small Capitals in Latin lookup 2 subtable" aacute.smcp
EndChar

StartChar: Acircumflex
Encoding: 194 194 131
Width: 711
GlyphClass: 2
Flags: W
LayerCount: 2
Fore
SplineSet
334 797 m 1,0,-1
 456 937 l 1,1,-1
 587 937 l 1,2,-1
 656 797 l 1,3,-1
 545 797 l 1,4,-1
 514 848 l 1,5,-1
 456 797 l 1,6,-1
 334 797 l 1,0,-1
25 0 m 1,7,-1
 370 732 l 1,8,-1
 599 732 l 1,9,-1
 705 0 l 1,10,-1
 506 0 l 1,11,-1
 485 128 l 1,12,-1
 297 128 l 1,13,-1
 240 0 l 1,14,-1
 25 0 l 1,7,-1
367 293 m 1,15,-1
 472 293 l 1,16,-1
 449 489 l 1,17,-1
 367 293 l 1,15,-1
EndSplineSet
Substitution2: "'c2sc' Capitals to Small Capitals in Latin lookup 2 subtable" acircumflex.smcp
EndChar

StartChar: Atilde
Encoding: 195 195 132
Width: 711
GlyphClass: 2
Flags: W
LayerCount: 2
Fore
SplineSet
467 938 m 0,0,1
 489 938 489 938 518.5 920.5 c 128,-1,2
 548 903 548 903 567 903 c 0,3,4
 570 903 570 903 574 903 c 0,5,6
 622 903 622 903 667 943 c 1,7,-1
 681 869 l 1,8,9
 622 797 622 797 557 797 c 0,10,11
 535 797 535 797 500.5 814.5 c 128,-1,12
 466 832 466 832 447 832 c 0,13,14
 399 832 399 832 348 797 c 1,15,-1
 332 864 l 1,16,17
 396 938 396 938 467 938 c 0,0,1
25 0 m 1,18,-1
 370 732 l 1,19,-1
 599 732 l 1,20,-1
 705 0 l 1,21,-1
 506 0 l 1,22,-1
 485 128 l 1,23,-1
 297 128 l 1,24,-1
 240 0 l 1,25,-1
 25 0 l 1,18,-1
367 293 m 1,26,-1
 472 293 l 1,27,-1
 449 489 l 1,28,-1
 367 293 l 1,26,-1
EndSplineSet
Substitution2: "'c2sc' Capitals to Small Capitals in Latin lookup 2 subtable" atilde.smcp
EndChar

StartChar: Adieresis
Encoding: 196 196 133
Width: 711
GlyphClass: 2
Flags: W
LayerCount: 2
Fore
SplineSet
389 928 m 128,-1,1
 416 928 416 928 430.5 911 c 128,-1,2
 445 894 445 894 445 881 c 0,3,4
 445 841 445 841 420 819 c 128,-1,5
 395 797 395 797 368 797 c 128,-1,6
 341 797 341 797 326.5 814 c 128,-1,7
 312 831 312 831 312 844 c 0,8,9
 312 886 312 886 337 907 c 128,-1,0
 362 928 362 928 389 928 c 128,-1,1
644 928 m 128,-1,11
 671 928 671 928 685.5 911 c 128,-1,12
 700 894 700 894 700 881 c 0,13,14
 700 841 700 841 675 819 c 128,-1,15
 650 797 650 797 623 797 c 128,-1,16
 596 797 596 797 581.5 814.5 c 128,-1,17
 567 832 567 832 567 845 c 0,18,19
 567 886 567 886 592 907 c 128,-1,10
 617 928 617 928 644 928 c 128,-1,11
25 0 m 1,20,-1
 370 732 l 1,21,-1
 599 732 l 1,22,-1
 705 0 l 1,23,-1
 506 0 l 1,24,-1
 485 128 l 1,25,-1
 297 128 l 1,26,-1
 240 0 l 1,27,-1
 25 0 l 1,20,-1
367 293 m 1,28,-1
 472 293 l 1,29,-1
 449 489 l 1,30,-1
 367 293 l 1,28,-1
EndSplineSet
Substitution2: "'c2sc' Capitals to Small Capitals in Latin lookup 2 subtable" adieresis.smcp
EndChar

StartChar: Aring
Encoding: 197 197 134
Width: 711
GlyphClass: 2
Flags: W
LayerCount: 2
Fore
SplineSet
500 930 m 128,-1,1
 458 930 458 930 424.5 899.5 c 128,-1,2
 391 869 391 869 391 820 c 0,3,4
 391 784 391 784 417.5 757 c 128,-1,5
 444 730 444 730 486.5 730 c 128,-1,6
 529 730 529 730 561.5 760.5 c 128,-1,7
 594 791 594 791 594 840 c 0,8,9
 594 876 594 876 568 903 c 128,-1,0
 542 930 542 930 500 930 c 128,-1,1
490 797 m 128,-1,11
 476 797 476 797 467 806.5 c 128,-1,12
 458 816 458 816 459.5 830 c 128,-1,13
 461 844 461 844 471.5 854 c 128,-1,14
 482 864 482 864 496 864 c 128,-1,15
 510 864 510 864 519 854 c 128,-1,16
 528 844 528 844 526 830 c 128,-1,17
 524 816 524 816 514 806.5 c 128,-1,10
 504 797 504 797 490 797 c 128,-1,11
25 0 m 1,18,-1
 370 732 l 1,19,-1
 599 732 l 1,20,-1
 705 0 l 1,21,-1
 506 0 l 1,22,-1
 485 128 l 1,23,-1
 297 128 l 1,24,-1
 240 0 l 1,25,-1
 25 0 l 1,18,-1
367 293 m 1,26,-1
 472 293 l 1,27,-1
 449 489 l 1,28,-1
 367 293 l 1,26,-1
EndSplineSet
Substitution2: "'c2sc' Capitals to Small Capitals in Latin lookup 2 subtable" aring.smcp
EndChar

StartChar: AE
Encoding: 198 198 135
Width: 1094
GlyphClass: 2
Flags: W
LayerCount: 2
Fore
SplineSet
560 706 m 0,0,1
 612 724 612 724 651 728.5 c 128,-1,2
 690 733 690 733 717.5 733 c 128,-1,3
 745 733 745 733 765 732 c 1,4,5
 955 732 955 732 1069 716 c 1,6,-1
 1044 553 l 1,7,-1
 797 553 l 2,8,9
 749 553 749 553 740 518 c 0,10,11
 738 510 738 510 736 497 c 2,12,-1
 729 453 l 1,13,-1
 976 442 l 1,14,-1
 951 281 l 1,15,-1
 700 272 l 1,16,-1
 693 228 l 2,17,18
 687 189 687 189 706 182 c 0,19,20
 722 176 722 176 747 176 c 2,21,-1
 984 176 l 1,22,-1
 958 14 l 1,23,24
 855 1 855 1 712 -2 c 2,25,-1
 662 -3 l 2,26,27
 654 -3 654 -3 646 -3 c 2,28,-1
 614 -2 l 1,29,30
 514 6 514 6 488 68 c 1,31,32
 480 84 480 84 480 99 c 128,-1,33
 480 114 480 114 482 124 c 2,34,-1
 489 167 l 1,35,-1
 342 167 l 1,36,-1
 232 0 l 1,37,-1
 17 0 l 1,38,-1
 375 552 l 1,39,40
 454 671 454 671 560 706 c 0,0,1
446 331 m 1,41,-1
 515 331 l 1,42,-1
 539 482 l 1,43,-1
 446 331 l 1,41,-1
EndSplineSet
EndChar

StartChar: Ccedilla
Encoding: 199 199 136
Width: 566
GlyphClass: 2
Flags: W
LayerCount: 2
Fore
SplineSet
400 740 m 0,0,1
 504 740 504 740 549 732.5 c 128,-1,2
 594 725 594 725 658 700 c 1,3,-1
 634 549 l 1,4,5
 622 551 622 551 612 552 c 2,6,-1
 587 556 l 1,7,8
 517 566 517 566 464 566 c 2,9,-1
 404 566 l 2,10,11
 369 566 369 566 359.5 559 c 128,-1,12
 350 552 350 552 338.5 542.5 c 128,-1,13
 327 533 327 533 321.5 519 c 128,-1,14
 316 505 316 505 308 484 c 0,15,16
 295 449 295 449 283 374 c 128,-1,17
 271 299 271 299 271 260.5 c 128,-1,18
 271 222 271 222 278 206 c 0,19,20
 295 168 295 168 370 168 c 0,21,22
 474 168 474 168 547 174 c 1,23,-1
 575 177 l 1,24,-1
 551 26 l 1,25,26
 500 6 500 6 451 0 c 128,-1,27
 402 -6 402 -6 354 -6 c 128,-1,28
 306 -6 306 -6 282 -6 c 0,29,30
 76 -3 76 -3 76 258 c 0,31,32
 76 321 76 321 88 399 c 0,33,34
 116 580 116 580 185.5 660 c 128,-1,35
 255 740 255 740 400 740 c 0,0,1
226 -182 m 2,36,-1
 165 -182 l 1,37,-1
 178 -103 l 1,38,-1
 217 -88 l 2,39,40
 239 -79 239 -79 244 -72 c 128,-1,41
 249 -65 249 -65 254 -36 c 1,42,-1
 371 -36 l 1,43,44
 359 -114 359 -114 326.5 -148 c 128,-1,45
 294 -182 294 -182 226 -182 c 2,36,-1
EndSplineSet
Substitution2: "'c2sc' Capitals to Small Capitals in Latin lookup 2 subtable" ccedilla.smcp
EndChar

StartChar: Egrave
Encoding: 200 200 137
Width: 555
GlyphClass: 2
Flags: W
LayerCount: 2
Fore
SplineSet
271 935 m 1,0,-1
 416 935 l 1,1,-1
 470 792 l 1,2,-1
 361 792 l 1,3,-1
 271 935 l 1,0,-1
340 732 m 0,4,5
 529 732 529 732 644 716 c 1,6,-1
 618 553 l 1,7,-1
 371 553 l 2,8,9
 325 553 325 553 315 518 c 0,10,11
 313 511 313 511 311 497 c 2,12,-1
 305 457 l 1,13,-1
 551 446 l 1,14,-1
 525 285 l 1,15,-1
 276 276 l 1,16,-1
 268 228 l 2,17,18
 262 189 262 189 282 182 c 0,19,20
 297 176 297 176 322 176 c 2,21,-1
 559 176 l 1,22,-1
 533 14 l 1,23,24
 430 1 430 1 284 -2 c 2,25,-1
 233 -3 l 2,26,27
 229 -3 229 -3 213 -3 c 128,-1,28
 197 -3 197 -3 170 3 c 0,29,30
 61 27 61 27 61 135 c 0,31,32
 61 153 61 153 64 173 c 2,33,-1
 127 572 l 2,34,35
 143 674 143 674 210 706 c 0,36,37
 263 732 263 732 340 732 c 0,4,5
EndSplineSet
Substitution2: "'c2sc' Capitals to Small Capitals in Latin lookup 2 subtable" egrave.smcp
EndChar

StartChar: Eacute
Encoding: 201 201 138
Width: 555
GlyphClass: 2
Flags: W
LayerCount: 2
Fore
SplineSet
368 792 m 1,0,-1
 468 935 l 1,1,-1
 613 935 l 1,2,-1
 477 792 l 1,3,-1
 368 792 l 1,0,-1
340 732 m 0,4,5
 529 732 529 732 644 716 c 1,6,-1
 618 553 l 1,7,-1
 371 553 l 2,8,9
 325 553 325 553 315 518 c 0,10,11
 313 511 313 511 311 497 c 2,12,-1
 305 457 l 1,13,-1
 551 446 l 1,14,-1
 525 285 l 1,15,-1
 276 276 l 1,16,-1
 268 228 l 2,17,18
 262 189 262 189 282 182 c 0,19,20
 297 176 297 176 322 176 c 2,21,-1
 559 176 l 1,22,-1
 533 14 l 1,23,24
 430 1 430 1 284 -2 c 2,25,-1
 233 -3 l 2,26,27
 229 -3 229 -3 213 -3 c 128,-1,28
 197 -3 197 -3 170 3 c 0,29,30
 61 27 61 27 61 135 c 0,31,32
 61 153 61 153 64 173 c 2,33,-1
 127 572 l 2,34,35
 143 674 143 674 210 706 c 0,36,37
 263 732 263 732 340 732 c 0,4,5
EndSplineSet
Substitution2: "'c2sc' Capitals to Small Capitals in Latin lookup 2 subtable" eacute.smcp
EndChar

StartChar: Ecircumflex
Encoding: 202 202 139
Width: 555
GlyphClass: 2
Flags: W
LayerCount: 2
Fore
SplineSet
267 792 m 1,0,-1
 389 932 l 1,1,-1
 520 932 l 1,2,-1
 589 792 l 1,3,-1
 478 792 l 1,4,-1
 447 843 l 1,5,-1
 399 792 l 1,6,-1
 267 792 l 1,0,-1
340 732 m 0,7,8
 529 732 529 732 644 716 c 1,9,-1
 618 553 l 1,10,-1
 371 553 l 2,11,12
 325 553 325 553 315 518 c 0,13,14
 313 511 313 511 311 497 c 2,15,-1
 305 457 l 1,16,-1
 551 446 l 1,17,-1
 525 285 l 1,18,-1
 276 276 l 1,19,-1
 268 228 l 2,20,21
 262 189 262 189 282 182 c 0,22,23
 297 176 297 176 322 176 c 2,24,-1
 559 176 l 1,25,-1
 533 14 l 1,26,27
 430 1 430 1 284 -2 c 2,28,-1
 233 -3 l 2,29,30
 229 -3 229 -3 213 -3 c 128,-1,31
 197 -3 197 -3 170 3 c 0,32,33
 61 27 61 27 61 135 c 0,34,35
 61 153 61 153 64 173 c 2,36,-1
 127 572 l 2,37,38
 143 674 143 674 210 706 c 0,39,40
 263 732 263 732 340 732 c 0,7,8
EndSplineSet
Substitution2: "'c2sc' Capitals to Small Capitals in Latin lookup 2 subtable" ecircumflex.smcp
EndChar

StartChar: Edieresis
Encoding: 203 203 140
Width: 555
GlyphClass: 2
Flags: W
LayerCount: 2
Fore
SplineSet
307 908 m 128,-1,1
 334 908 334 908 348.5 891 c 128,-1,2
 363 874 363 874 363 861 c 0,3,4
 363 821 363 821 338 799 c 128,-1,5
 313 777 313 777 286 777 c 128,-1,6
 259 777 259 777 244.5 794 c 128,-1,7
 230 811 230 811 230 824 c 0,8,9
 230 866 230 866 255 887 c 128,-1,0
 280 908 280 908 307 908 c 128,-1,1
562 908 m 128,-1,11
 589 908 589 908 603.5 891 c 128,-1,12
 618 874 618 874 618 861 c 0,13,14
 618 821 618 821 593 799 c 128,-1,15
 568 777 568 777 541 777 c 128,-1,16
 514 777 514 777 499.5 794.5 c 128,-1,17
 485 812 485 812 485 825 c 0,18,19
 485 866 485 866 510 887 c 128,-1,10
 535 908 535 908 562 908 c 128,-1,11
340 732 m 0,20,21
 529 732 529 732 644 716 c 1,22,-1
 618 553 l 1,23,-1
 371 553 l 2,24,25
 325 553 325 553 315 518 c 0,26,27
 313 511 313 511 311 497 c 2,28,-1
 305 457 l 1,29,-1
 551 446 l 1,30,-1
 525 285 l 1,31,-1
 276 276 l 1,32,-1
 268 228 l 2,33,34
 262 189 262 189 282 182 c 0,35,36
 297 176 297 176 322 176 c 2,37,-1
 559 176 l 1,38,-1
 533 14 l 1,39,40
 430 1 430 1 284 -2 c 2,41,-1
 233 -3 l 2,42,43
 229 -3 229 -3 213 -3 c 128,-1,44
 197 -3 197 -3 170 3 c 0,45,46
 61 27 61 27 61 135 c 0,47,48
 61 153 61 153 64 173 c 2,49,-1
 127 572 l 2,50,51
 143 674 143 674 210 706 c 0,52,53
 263 732 263 732 340 732 c 0,20,21
EndSplineSet
Substitution2: "'c2sc' Capitals to Small Capitals in Latin lookup 2 subtable" edieresis.smcp
EndChar

StartChar: Igrave
Encoding: 204 204 141
Width: 282
GlyphClass: 2
Flags: W
LayerCount: 2
Fore
SplineSet
124 940 m 1,0,-1
 269 940 l 1,1,-1
 323 797 l 1,2,-1
 214 797 l 1,3,-1
 124 940 l 1,0,-1
45 0 m 1,4,-1
 161 732 l 1,5,-1
 355 732 l 1,6,-1
 239 0 l 1,7,-1
 45 0 l 1,4,-1
EndSplineSet
Substitution2: "'c2sc' Capitals to Small Capitals in Latin lookup 2 subtable" igrave.smcp
EndChar

StartChar: Iacute
Encoding: 205 205 142
Width: 282
GlyphClass: 2
Flags: W
LayerCount: 2
Fore
SplineSet
214 797 m 1,0,-1
 314 940 l 1,1,-1
 459 940 l 1,2,-1
 323 797 l 1,3,-1
 214 797 l 1,0,-1
45 0 m 1,4,-1
 161 732 l 1,5,-1
 355 732 l 1,6,-1
 239 0 l 1,7,-1
 45 0 l 1,4,-1
EndSplineSet
Substitution2: "'c2sc' Capitals to Small Capitals in Latin lookup 2 subtable" iacute.smcp
EndChar

StartChar: Icircumflex
Encoding: 206 206 143
Width: 282
GlyphClass: 2
Flags: W
LayerCount: 2
Fore
SplineSet
107 797 m 1,0,-1
 229 937 l 1,1,-1
 360 937 l 1,2,-1
 429 797 l 1,3,-1
 318 797 l 1,4,-1
 287 848 l 1,5,-1
 229 797 l 1,6,-1
 107 797 l 1,0,-1
45 0 m 1,7,-1
 161 732 l 1,8,-1
 355 732 l 1,9,-1
 239 0 l 1,10,-1
 45 0 l 1,7,-1
EndSplineSet
Substitution2: "'c2sc' Capitals to Small Capitals in Latin lookup 2 subtable" icircumflex.smcp
EndChar

StartChar: Idieresis
Encoding: 207 207 144
Width: 282
GlyphClass: 2
Flags: W
LayerCount: 2
Fore
SplineSet
162 928 m 128,-1,1
 189 928 189 928 203.5 911 c 128,-1,2
 218 894 218 894 218 881 c 0,3,4
 218 841 218 841 193 819 c 128,-1,5
 168 797 168 797 141 797 c 128,-1,6
 114 797 114 797 99.5 814 c 128,-1,7
 85 831 85 831 85 844 c 0,8,9
 85 886 85 886 110 907 c 128,-1,0
 135 928 135 928 162 928 c 128,-1,1
417 928 m 128,-1,11
 444 928 444 928 458.5 911 c 128,-1,12
 473 894 473 894 473 881 c 0,13,14
 473 841 473 841 448 819 c 128,-1,15
 423 797 423 797 396 797 c 128,-1,16
 369 797 369 797 354.5 814 c 128,-1,17
 340 831 340 831 340 844 c 0,18,19
 340 886 340 886 365 907 c 128,-1,10
 390 928 390 928 417 928 c 128,-1,11
45 0 m 1,20,-1
 161 732 l 1,21,-1
 355 732 l 1,22,-1
 239 0 l 1,23,-1
 45 0 l 1,20,-1
EndSplineSet
Substitution2: "'c2sc' Capitals to Small Capitals in Latin lookup 2 subtable" idieresis.smcp
EndChar

StartChar: Eth
Encoding: 208 208 145
Width: 640
GlyphClass: 2
Flags: W
LayerCount: 2
Fore
SplineSet
484 732 m 2,0,1
 556 732 556 732 602.5 699 c 128,-1,2
 649 666 649 666 666 610 c 0,3,4
 686 544 686 544 686 471 c 128,-1,5
 686 398 686 398 674 333 c 1,6,7
 644 144 644 144 580 72 c 128,-1,8
 516 0 516 0 388 0 c 2,9,-1
 45 0 l 1,10,-1
 98 336 l 1,11,-1
 33 336 l 1,12,-1
 45 410 l 1,13,-1
 110 410 l 1,14,-1
 161 732 l 1,15,-1
 484 732 l 2,0,1
374 164 m 2,16,17
 416 164 416 164 439.5 210 c 128,-1,18
 463 256 463 256 480 364 c 1,19,20
 493 434 493 434 493 461 c 0,21,22
 493 537 493 537 478.5 552.5 c 128,-1,23
 464 568 464 568 438 568 c 2,24,-1
 329 568 l 1,25,-1
 304 410 l 1,26,-1
 393 410 l 1,27,-1
 381 336 l 1,28,-1
 292 336 l 1,29,-1
 265 164 l 1,30,-1
 374 164 l 2,16,17
EndSplineSet
Substitution2: "'c2sc' Capitals to Small Capitals in Latin lookup 2 subtable" eth.smcp
EndChar

StartChar: Ntilde
Encoding: 209 209 146
Width: 677
GlyphClass: 2
Flags: W
LayerCount: 2
Fore
SplineSet
443 938 m 0,0,1
 466 938 466 938 495 920.5 c 128,-1,2
 524 903 524 903 543 903 c 0,3,4
 546 903 546 903 550 903 c 0,5,6
 598 903 598 903 643 943 c 1,7,-1
 657 869 l 1,8,9
 598 797 598 797 533 797 c 0,10,11
 511 797 511 797 476.5 814.5 c 128,-1,12
 442 832 442 832 423 832 c 0,13,14
 375 832 375 832 324 797 c 1,15,-1
 308 864 l 1,16,17
 372 938 372 938 443 938 c 0,0,1
45 0 m 1,18,-1
 161 732 l 1,19,-1
 357 732 l 1,20,-1
 507 353 l 1,21,-1
 566 732 l 1,22,-1
 760 732 l 1,23,-1
 644 0 l 1,24,-1
 450 0 l 1,25,-1
 298 369 l 1,26,-1
 240 0 l 1,27,-1
 45 0 l 1,18,-1
EndSplineSet
AlternateSubs2: "'salt' Stylistic Alternatives in Latin lookup 16 subtable" Ntilde.salt
Substitution2: "'c2sc' Capitals to Small Capitals in Latin lookup 2 subtable" ntilde.smcp
EndChar

StartChar: Ograve
Encoding: 210 210 147
Width: 666
GlyphClass: 2
Flags: W
LayerCount: 2
Fore
SplineSet
321 940 m 1,0,-1
 466 940 l 1,1,-1
 520 797 l 1,2,-1
 411 797 l 1,3,-1
 321 940 l 1,0,-1
385 735.5 m 128,-1,5
 411 737 411 737 453.5 737 c 128,-1,6
 496 737 496 737 527 733 c 128,-1,7
 558 729 558 729 589 717.5 c 128,-1,8
 620 706 620 706 642 687 c 0,9,10
 712 626 712 626 712 479 c 0,11,12
 712 415 712 415 700.5 341.5 c 128,-1,13
 689 268 689 268 672.5 215.5 c 128,-1,14
 656 163 656 163 638 127 c 128,-1,15
 620 91 620 91 593 66.5 c 128,-1,16
 566 42 566 42 541.5 28 c 128,-1,17
 517 14 517 14 480 7 c 0,18,19
 422 -4 422 -4 360 -4 c 128,-1,20
 298 -4 298 -4 266 0 c 128,-1,21
 234 4 234 4 203 15 c 128,-1,22
 172 26 172 26 150 44 c 0,23,24
 81 104 81 104 81 241 c 0,25,26
 81 305 81 305 93 381.5 c 128,-1,27
 105 458 105 458 123 513.5 c 128,-1,28
 141 569 141 569 159.5 606 c 128,-1,29
 178 643 178 643 207 668.5 c 128,-1,30
 236 694 236 694 259.5 707 c 128,-1,31
 283 720 283 720 321 727 c 128,-1,4
 359 734 359 734 385 735.5 c 128,-1,5
318.5 494 m 128,-1,33
 302 452 302 452 289 372 c 128,-1,34
 276 292 276 292 276 257.5 c 128,-1,35
 276 223 276 223 282 208 c 0,36,37
 295 170 295 170 363 170 c 128,-1,38
 431 170 431 170 459 208 c 128,-1,39
 487 246 487 246 506 361 c 1,40,41
 519 427 519 427 519 454 c 0,42,43
 519 530 519 530 497.5 546.5 c 128,-1,44
 476 563 476 563 429 563 c 128,-1,45
 382 563 382 563 358.5 549.5 c 128,-1,32
 335 536 335 536 318.5 494 c 128,-1,33
EndSplineSet
Substitution2: "'c2sc' Capitals to Small Capitals in Latin lookup 2 subtable" ograve.smcp
EndChar

StartChar: Oacute
Encoding: 211 211 148
Width: 666
GlyphClass: 2
Flags: W
LayerCount: 2
Fore
SplineSet
411 797 m 1,0,-1
 511 940 l 1,1,-1
 656 940 l 1,2,-1
 520 797 l 1,3,-1
 411 797 l 1,0,-1
385 735.5 m 128,-1,5
 411 737 411 737 453.5 737 c 128,-1,6
 496 737 496 737 527 733 c 128,-1,7
 558 729 558 729 589 717.5 c 128,-1,8
 620 706 620 706 642 687 c 0,9,10
 712 626 712 626 712 479 c 0,11,12
 712 415 712 415 700.5 341.5 c 128,-1,13
 689 268 689 268 672.5 215.5 c 128,-1,14
 656 163 656 163 638 127 c 128,-1,15
 620 91 620 91 593 66.5 c 128,-1,16
 566 42 566 42 541.5 28 c 128,-1,17
 517 14 517 14 480 7 c 0,18,19
 422 -4 422 -4 360 -4 c 128,-1,20
 298 -4 298 -4 266 0 c 128,-1,21
 234 4 234 4 203 15 c 128,-1,22
 172 26 172 26 150 44 c 0,23,24
 81 104 81 104 81 241 c 0,25,26
 81 305 81 305 93 381.5 c 128,-1,27
 105 458 105 458 123 513.5 c 128,-1,28
 141 569 141 569 159.5 606 c 128,-1,29
 178 643 178 643 207 668.5 c 128,-1,30
 236 694 236 694 259.5 707 c 128,-1,31
 283 720 283 720 321 727 c 128,-1,4
 359 734 359 734 385 735.5 c 128,-1,5
318.5 494 m 128,-1,33
 302 452 302 452 289 372 c 128,-1,34
 276 292 276 292 276 257.5 c 128,-1,35
 276 223 276 223 282 208 c 0,36,37
 295 170 295 170 363 170 c 128,-1,38
 431 170 431 170 459 208 c 128,-1,39
 487 246 487 246 506 361 c 1,40,41
 519 427 519 427 519 454 c 0,42,43
 519 530 519 530 497.5 546.5 c 128,-1,44
 476 563 476 563 429 563 c 128,-1,45
 382 563 382 563 358.5 549.5 c 128,-1,32
 335 536 335 536 318.5 494 c 128,-1,33
EndSplineSet
Substitution2: "'c2sc' Capitals to Small Capitals in Latin lookup 2 subtable" oacute.smcp
EndChar

StartChar: Ocircumflex
Encoding: 212 212 149
Width: 666
GlyphClass: 2
Flags: W
LayerCount: 2
Fore
SplineSet
305 797 m 1,0,-1
 427 937 l 1,1,-1
 558 937 l 1,2,-1
 627 797 l 1,3,-1
 516 797 l 1,4,-1
 485 848 l 1,5,-1
 427 797 l 1,6,-1
 305 797 l 1,0,-1
385 735.5 m 128,-1,8
 411 737 411 737 453.5 737 c 128,-1,9
 496 737 496 737 527 733 c 128,-1,10
 558 729 558 729 589 717.5 c 128,-1,11
 620 706 620 706 642 687 c 0,12,13
 712 626 712 626 712 479 c 0,14,15
 712 415 712 415 700.5 341.5 c 128,-1,16
 689 268 689 268 672.5 215.5 c 128,-1,17
 656 163 656 163 638 127 c 128,-1,18
 620 91 620 91 593 66.5 c 128,-1,19
 566 42 566 42 541.5 28 c 128,-1,20
 517 14 517 14 480 7 c 0,21,22
 422 -4 422 -4 360 -4 c 128,-1,23
 298 -4 298 -4 266 0 c 128,-1,24
 234 4 234 4 203 15 c 128,-1,25
 172 26 172 26 150 44 c 0,26,27
 81 104 81 104 81 241 c 0,28,29
 81 305 81 305 93 381.5 c 128,-1,30
 105 458 105 458 123 513.5 c 128,-1,31
 141 569 141 569 159.5 606 c 128,-1,32
 178 643 178 643 207 668.5 c 128,-1,33
 236 694 236 694 259.5 707 c 128,-1,34
 283 720 283 720 321 727 c 128,-1,7
 359 734 359 734 385 735.5 c 128,-1,8
318.5 494 m 128,-1,36
 302 452 302 452 289 372 c 128,-1,37
 276 292 276 292 276 257.5 c 128,-1,38
 276 223 276 223 282 208 c 0,39,40
 295 170 295 170 363 170 c 128,-1,41
 431 170 431 170 459 208 c 128,-1,42
 487 246 487 246 506 361 c 1,43,44
 519 427 519 427 519 454 c 0,45,46
 519 530 519 530 497.5 546.5 c 128,-1,47
 476 563 476 563 429 563 c 128,-1,48
 382 563 382 563 358.5 549.5 c 128,-1,35
 335 536 335 536 318.5 494 c 128,-1,36
EndSplineSet
Substitution2: "'c2sc' Capitals to Small Capitals in Latin lookup 2 subtable" ocircumflex.smcp
EndChar

StartChar: Otilde
Encoding: 213 213 150
Width: 666
GlyphClass: 2
Flags: W
LayerCount: 2
Fore
SplineSet
437 938 m 0,0,1
 460 938 460 938 489 920.5 c 128,-1,2
 518 903 518 903 537 903 c 0,3,4
 540 903 540 903 544 903 c 0,5,6
 592 903 592 903 637 943 c 1,7,-1
 651 869 l 1,8,9
 592 797 592 797 527 797 c 0,10,11
 505 797 505 797 470.5 814.5 c 128,-1,12
 436 832 436 832 417 832 c 0,13,14
 369 832 369 832 318 797 c 1,15,-1
 302 864 l 1,16,17
 366 938 366 938 437 938 c 0,0,1
385 735.5 m 128,-1,19
 411 737 411 737 453.5 737 c 128,-1,20
 496 737 496 737 527 733 c 128,-1,21
 558 729 558 729 589 717.5 c 128,-1,22
 620 706 620 706 642 687 c 0,23,24
 712 626 712 626 712 479 c 0,25,26
 712 415 712 415 700.5 341.5 c 128,-1,27
 689 268 689 268 672.5 215.5 c 128,-1,28
 656 163 656 163 638 127 c 128,-1,29
 620 91 620 91 593 66.5 c 128,-1,30
 566 42 566 42 541.5 28 c 128,-1,31
 517 14 517 14 480 7 c 0,32,33
 422 -4 422 -4 360 -4 c 128,-1,34
 298 -4 298 -4 266 0 c 128,-1,35
 234 4 234 4 203 15 c 128,-1,36
 172 26 172 26 150 44 c 0,37,38
 81 104 81 104 81 241 c 0,39,40
 81 305 81 305 93 381.5 c 128,-1,41
 105 458 105 458 123 513.5 c 128,-1,42
 141 569 141 569 159.5 606 c 128,-1,43
 178 643 178 643 207 668.5 c 128,-1,44
 236 694 236 694 259.5 707 c 128,-1,45
 283 720 283 720 321 727 c 128,-1,18
 359 734 359 734 385 735.5 c 128,-1,19
318.5 494 m 128,-1,47
 302 452 302 452 289 372 c 128,-1,48
 276 292 276 292 276 257.5 c 128,-1,49
 276 223 276 223 282 208 c 0,50,51
 295 170 295 170 363 170 c 128,-1,52
 431 170 431 170 459 208 c 128,-1,53
 487 246 487 246 506 361 c 1,54,55
 519 427 519 427 519 454 c 0,56,57
 519 530 519 530 497.5 546.5 c 128,-1,58
 476 563 476 563 429 563 c 128,-1,59
 382 563 382 563 358.5 549.5 c 128,-1,46
 335 536 335 536 318.5 494 c 128,-1,47
EndSplineSet
Substitution2: "'c2sc' Capitals to Small Capitals in Latin lookup 2 subtable" otilde.smcp
EndChar

StartChar: Odieresis
Encoding: 214 214 151
Width: 666
GlyphClass: 2
Flags: W
LayerCount: 2
Fore
SplineSet
360 928 m 128,-1,1
 387 928 387 928 401.5 911 c 128,-1,2
 416 894 416 894 416 881 c 0,3,4
 416 841 416 841 391 819 c 128,-1,5
 366 797 366 797 339 797 c 128,-1,6
 312 797 312 797 297.5 814.5 c 128,-1,7
 283 832 283 832 283 845 c 0,8,9
 283 886 283 886 308 907 c 128,-1,0
 333 928 333 928 360 928 c 128,-1,1
615 928 m 128,-1,11
 642 928 642 928 656.5 911 c 128,-1,12
 671 894 671 894 671 881 c 0,13,14
 671 841 671 841 646 819 c 128,-1,15
 621 797 621 797 594 797 c 128,-1,16
 567 797 567 797 552.5 814 c 128,-1,17
 538 831 538 831 538 844 c 0,18,19
 538 886 538 886 563 907 c 128,-1,10
 588 928 588 928 615 928 c 128,-1,11
385 735.5 m 128,-1,21
 411 737 411 737 453.5 737 c 128,-1,22
 496 737 496 737 527 733 c 128,-1,23
 558 729 558 729 589 717.5 c 128,-1,24
 620 706 620 706 642 687 c 0,25,26
 712 626 712 626 712 479 c 0,27,28
 712 415 712 415 700.5 341.5 c 128,-1,29
 689 268 689 268 672.5 215.5 c 128,-1,30
 656 163 656 163 638 127 c 128,-1,31
 620 91 620 91 593 66.5 c 128,-1,32
 566 42 566 42 541.5 28 c 128,-1,33
 517 14 517 14 480 7 c 0,34,35
 422 -4 422 -4 360 -4 c 128,-1,36
 298 -4 298 -4 266 0 c 128,-1,37
 234 4 234 4 203 15 c 128,-1,38
 172 26 172 26 150 44 c 0,39,40
 81 104 81 104 81 241 c 0,41,42
 81 305 81 305 93 381.5 c 128,-1,43
 105 458 105 458 123 513.5 c 128,-1,44
 141 569 141 569 159.5 606 c 128,-1,45
 178 643 178 643 207 668.5 c 128,-1,46
 236 694 236 694 259.5 707 c 128,-1,47
 283 720 283 720 321 727 c 128,-1,20
 359 734 359 734 385 735.5 c 128,-1,21
318.5 494 m 128,-1,49
 302 452 302 452 289 372 c 128,-1,50
 276 292 276 292 276 257.5 c 128,-1,51
 276 223 276 223 282 208 c 0,52,53
 295 170 295 170 363 170 c 128,-1,54
 431 170 431 170 459 208 c 128,-1,55
 487 246 487 246 506 361 c 1,56,57
 519 427 519 427 519 454 c 0,58,59
 519 530 519 530 497.5 546.5 c 128,-1,60
 476 563 476 563 429 563 c 128,-1,61
 382 563 382 563 358.5 549.5 c 128,-1,48
 335 536 335 536 318.5 494 c 128,-1,49
EndSplineSet
Substitution2: "'c2sc' Capitals to Small Capitals in Latin lookup 2 subtable" odieresis.smcp
EndChar

StartChar: multiply
Encoding: 215 215 152
Width: 464
GlyphClass: 2
Flags: W
LayerCount: 2
Fore
SplineSet
73 263 m 1,0,-1
 179 355 l 1,1,-1
 102 448 l 1,2,-1
 221 554 l 1,3,-1
 299 461 l 1,4,-1
 414 558 l 1,5,-1
 505 449 l 1,6,-1
 388 349 l 1,7,-1
 466 257 l 1,8,-1
 349 160 l 1,9,-1
 274 247 l 1,10,-1
 167 149 l 1,11,-1
 73 263 l 1,0,-1
EndSplineSet
EndChar

StartChar: Oslash
Encoding: 216 216 153
Width: 666
GlyphClass: 2
Flags: W
LayerCount: 2
Fore
SplineSet
103 93 m 1,0,1
 80 143 80 143 80 225.5 c 128,-1,2
 80 308 80 308 94.5 399.5 c 128,-1,3
 109 491 109 491 137 558.5 c 128,-1,4
 165 626 165 626 194 661 c 128,-1,5
 223 696 223 696 273 713.5 c 128,-1,6
 323 731 323 731 357 734 c 128,-1,7
 391 737 391 737 456 737 c 0,8,9
 581 737 581 737 635 701 c 1,10,-1
 662 732 l 1,11,-1
 748 732 l 1,12,-1
 680 654 l 1,13,14
 712 601 712 601 712 485 c 0,15,16
 712 416 712 416 700 339.5 c 128,-1,17
 688 263 688 263 671.5 211 c 128,-1,18
 655 159 655 159 637 123.5 c 128,-1,19
 619 88 619 88 591.5 63.5 c 128,-1,20
 564 39 564 39 540 26 c 128,-1,21
 516 13 516 13 478 6 c 0,22,23
 425 -4 425 -4 338 -4 c 0,24,25
 195 -4 195 -4 142 40 c 1,26,-1
 107 0 l 1,27,-1
 21 0 l 1,28,-1
 103 93 l 1,0,1
498 545 m 1,29,30
 480 563 480 563 430.5 563 c 128,-1,31
 381 563 381 563 357.5 549.5 c 128,-1,32
 334 536 334 536 317.5 494 c 128,-1,33
 301 452 301 452 289.5 377 c 128,-1,34
 278 302 278 302 277 293 c 1,35,-1
 498 545 l 1,29,30
284 202 m 1,36,37
 300 170 300 170 365.5 170 c 128,-1,38
 431 170 431 170 458.5 207.5 c 128,-1,39
 486 245 486 245 501.5 341.5 c 128,-1,40
 517 438 517 438 517 469 c 1,41,-1
 284 202 l 1,36,37
EndSplineSet
Substitution2: "'c2sc' Capitals to Small Capitals in Latin lookup 2 subtable" oslash.smcp
EndChar

StartChar: Ugrave
Encoding: 217 217 154
Width: 652
GlyphClass: 2
Flags: W
LayerCount: 2
Fore
SplineSet
312 940 m 1,0,-1
 457 940 l 1,1,-1
 511 797 l 1,2,-1
 402 797 l 1,3,-1
 312 940 l 1,0,-1
419 -5 m 2,4,-1
 388 -5 l 2,5,6
 374 -5 374 -5 357.5 -5 c 128,-1,7
 341 -5 341 -5 321.5 -5 c 128,-1,8
 302 -5 302 -5 280 -3.5 c 128,-1,9
 258 -2 258 -2 230.5 3.5 c 128,-1,10
 203 9 203 9 183.5 20 c 128,-1,11
 164 31 164 31 144 48 c 1,12,13
 108 76 108 76 92 154 c 0,14,15
 85 185 85 185 85 209 c 128,-1,16
 85 233 85 233 85.5 261 c 128,-1,17
 86 289 86 289 96 350 c 2,18,-1
 158 732 l 1,19,-1
 352 732 l 1,20,-1
 287 320 l 2,21,22
 278 258 278 258 278 233 c 0,23,24
 278 169 278 169 360 169 c 0,25,26
 392 169 392 169 413 178.5 c 128,-1,27
 434 188 434 188 446 212 c 0,28,29
 465 249 465 249 475 320 c 1,30,-1
 540 732 l 1,31,-1
 735 732 l 1,32,-1
 675 290 l 1,33,34
 648 120 648 120 568 47 c 0,35,36
 544 25 544 25 518 16 c 0,37,38
 462 -5 462 -5 419 -5 c 2,4,-1
EndSplineSet
Substitution2: "'c2sc' Capitals to Small Capitals in Latin lookup 2 subtable" ugrave.smcp
EndChar

StartChar: Uacute
Encoding: 218 218 155
Width: 652
GlyphClass: 2
Flags: W
LayerCount: 2
Fore
SplineSet
402 797 m 1,0,-1
 502 940 l 1,1,-1
 647 940 l 1,2,-1
 511 797 l 1,3,-1
 402 797 l 1,0,-1
419 -5 m 2,4,-1
 388 -5 l 2,5,6
 374 -5 374 -5 357.5 -5 c 128,-1,7
 341 -5 341 -5 321.5 -5 c 128,-1,8
 302 -5 302 -5 280 -3.5 c 128,-1,9
 258 -2 258 -2 230.5 3.5 c 128,-1,10
 203 9 203 9 183.5 20 c 128,-1,11
 164 31 164 31 144 48 c 1,12,13
 108 76 108 76 92 154 c 0,14,15
 85 185 85 185 85 209 c 128,-1,16
 85 233 85 233 85.5 261 c 128,-1,17
 86 289 86 289 96 350 c 2,18,-1
 158 732 l 1,19,-1
 352 732 l 1,20,-1
 287 320 l 2,21,22
 278 258 278 258 278 233 c 0,23,24
 278 169 278 169 360 169 c 0,25,26
 392 169 392 169 413 178.5 c 128,-1,27
 434 188 434 188 446 212 c 0,28,29
 465 249 465 249 475 320 c 1,30,-1
 540 732 l 1,31,-1
 735 732 l 1,32,-1
 675 290 l 1,33,34
 648 120 648 120 568 47 c 0,35,36
 544 25 544 25 518 16 c 0,37,38
 462 -5 462 -5 419 -5 c 2,4,-1
EndSplineSet
Substitution2: "'c2sc' Capitals to Small Capitals in Latin lookup 2 subtable" uacute.smcp
EndChar

StartChar: Ucircumflex
Encoding: 219 219 156
Width: 652
GlyphClass: 2
Flags: W
LayerCount: 2
Fore
SplineSet
296 797 m 1,0,-1
 418 937 l 1,1,-1
 549 937 l 1,2,-1
 618 797 l 1,3,-1
 507 797 l 1,4,-1
 476 848 l 1,5,-1
 418 797 l 1,6,-1
 296 797 l 1,0,-1
419 -5 m 2,7,-1
 388 -5 l 2,8,9
 374 -5 374 -5 357.5 -5 c 128,-1,10
 341 -5 341 -5 321.5 -5 c 128,-1,11
 302 -5 302 -5 280 -3.5 c 128,-1,12
 258 -2 258 -2 230.5 3.5 c 128,-1,13
 203 9 203 9 183.5 20 c 128,-1,14
 164 31 164 31 144 48 c 1,15,16
 108 76 108 76 92 154 c 0,17,18
 85 185 85 185 85 209 c 128,-1,19
 85 233 85 233 85.5 261 c 128,-1,20
 86 289 86 289 96 350 c 2,21,-1
 158 732 l 1,22,-1
 352 732 l 1,23,-1
 287 320 l 2,24,25
 278 258 278 258 278 233 c 0,26,27
 278 169 278 169 360 169 c 0,28,29
 392 169 392 169 413 178.5 c 128,-1,30
 434 188 434 188 446 212 c 0,31,32
 465 249 465 249 475 320 c 1,33,-1
 540 732 l 1,34,-1
 735 732 l 1,35,-1
 675 290 l 1,36,37
 648 120 648 120 568 47 c 0,38,39
 544 25 544 25 518 16 c 0,40,41
 462 -5 462 -5 419 -5 c 2,7,-1
EndSplineSet
Substitution2: "'c2sc' Capitals to Small Capitals in Latin lookup 2 subtable" ucircumflex.smcp
EndChar

StartChar: Udieresis
Encoding: 220 220 157
Width: 652
GlyphClass: 2
Flags: W
LayerCount: 2
Fore
SplineSet
351 928 m 128,-1,1
 378 928 378 928 392.5 911 c 128,-1,2
 407 894 407 894 407 881 c 0,3,4
 407 841 407 841 382 819 c 128,-1,5
 357 797 357 797 330 797 c 128,-1,6
 303 797 303 797 288.5 814 c 128,-1,7
 274 831 274 831 274 844 c 0,8,9
 274 886 274 886 299 907 c 128,-1,0
 324 928 324 928 351 928 c 128,-1,1
606 928 m 128,-1,11
 633 928 633 928 647.5 911 c 128,-1,12
 662 894 662 894 662 881 c 0,13,14
 662 841 662 841 637 819 c 128,-1,15
 612 797 612 797 585 797 c 128,-1,16
 558 797 558 797 543.5 814.5 c 128,-1,17
 529 832 529 832 529 845 c 0,18,19
 529 886 529 886 554 907 c 128,-1,10
 579 928 579 928 606 928 c 128,-1,11
419 -5 m 2,20,-1
 388 -5 l 2,21,22
 374 -5 374 -5 357.5 -5 c 128,-1,23
 341 -5 341 -5 321.5 -5 c 128,-1,24
 302 -5 302 -5 280 -3.5 c 128,-1,25
 258 -2 258 -2 230.5 3.5 c 128,-1,26
 203 9 203 9 183.5 20 c 128,-1,27
 164 31 164 31 144 48 c 1,28,29
 108 76 108 76 92 154 c 0,30,31
 85 185 85 185 85 209 c 128,-1,32
 85 233 85 233 85.5 261 c 128,-1,33
 86 289 86 289 96 350 c 2,34,-1
 158 732 l 1,35,-1
 352 732 l 1,36,-1
 287 320 l 2,37,38
 278 258 278 258 278 233 c 0,39,40
 278 169 278 169 360 169 c 0,41,42
 392 169 392 169 413 178.5 c 128,-1,43
 434 188 434 188 446 212 c 0,44,45
 465 249 465 249 475 320 c 1,46,-1
 540 732 l 1,47,-1
 735 732 l 1,48,-1
 675 290 l 1,49,50
 648 120 648 120 568 47 c 0,51,52
 544 25 544 25 518 16 c 0,53,54
 462 -5 462 -5 419 -5 c 2,20,-1
EndSplineSet
Substitution2: "'c2sc' Capitals to Small Capitals in Latin lookup 2 subtable" udieresis.smcp
EndChar

StartChar: Yacute
Encoding: 221 221 158
Width: 679
GlyphClass: 2
Flags: W
LayerCount: 2
Fore
SplineSet
406 797 m 1,0,-1
 506 940 l 1,1,-1
 651 940 l 1,2,-1
 515 797 l 1,3,-1
 406 797 l 1,0,-1
130 732 m 1,4,-1
 341 732 l 1,5,-1
 389 408 l 1,6,-1
 551 732 l 1,7,-1
 770 732 l 1,8,-1
 455 200 l 1,9,-1
 423 0 l 1,10,-1
 229 0 l 1,11,-1
 261 200 l 1,12,-1
 130 732 l 1,4,-1
EndSplineSet
Substitution2: "'c2sc' Capitals to Small Capitals in Latin lookup 2 subtable" yacute.smcp
EndChar

StartChar: Thorn
Encoding: 222 222 159
Width: 538
GlyphClass: 2
Flags: W
LayerCount: 2
Fore
SplineSet
34 0 m 1,0,1
 34 0 34 0 149 729 c 1,2,-1
 343 729 l 1,3,-1
 321 588 l 1,4,-1
 428 588 l 2,5,6
 494 588 494 588 539 542 c 0,7,8
 574 507 574 507 574 427 c 0,9,10
 574 398 574 398 567.5 351 c 128,-1,11
 561 304 561 304 542 262 c 128,-1,12
 523 220 523 220 504 199.5 c 128,-1,13
 485 179 485 179 455 167 c 128,-1,14
 425 155 425 155 407 152 c 0,15,16
 376 148 376 148 344.5 148 c 128,-1,17
 313 148 313 148 298 150.5 c 128,-1,18
 283 153 283 153 255 168 c 1,19,-1
 228 0 l 1,20,-1
 34 0 l 1,0,1
305 313 m 2,21,22
 345 313 345 313 356.5 322.5 c 128,-1,23
 368 332 368 332 372.5 357 c 128,-1,24
 377 382 377 382 377 392 c 128,-1,25
 377 402 377 402 372 411 c 128,-1,26
 367 420 367 420 356.5 422 c 128,-1,27
 346 424 346 424 322 424 c 2,28,-1
 295 424 l 1,29,-1
 278 313 l 1,30,-1
 305 313 l 2,21,22
EndSplineSet
Substitution2: "'c2sc' Capitals to Small Capitals in Latin lookup 2 subtable" thorn.smcp
EndChar

StartChar: germandbls
Encoding: 223 223 160
Width: 574
GlyphClass: 2
Flags: W
LayerCount: 2
Fore
SplineSet
411 784 m 0,0,1
 511 784 511 784 570 747.5 c 128,-1,2
 629 711 629 711 640 656 c 0,3,4
 645 634 645 634 645 605 c 128,-1,5
 645 576 645 576 630 526 c 128,-1,6
 615 476 615 476 569 422 c 0,7,8
 557 408 557 408 528.5 385.5 c 128,-1,9
 500 363 500 363 500 347.5 c 128,-1,10
 500 332 500 332 514.5 316 c 128,-1,11
 529 300 529 300 549 284 c 128,-1,12
 569 268 569 268 581 241.5 c 128,-1,13
 593 215 593 215 593 197.5 c 128,-1,14
 593 180 593 180 591 169 c 2,15,-1
 588 152 l 2,16,17
 573 62 573 62 520 27 c 128,-1,18
 467 -8 467 -8 391 -8 c 128,-1,19
 315 -8 315 -8 260 11 c 1,20,-1
 280 142 l 1,21,22
 326 136 326 136 342 136 c 0,23,24
 392 136 392 136 399 184 c 0,25,26
 403 205 403 205 393.5 219 c 128,-1,27
 384 233 384 233 370 244.5 c 128,-1,28
 356 256 356 256 342 269 c 0,29,30
 316 295 316 295 316 334 c 0,31,32
 316 370 316 370 332.5 399.5 c 128,-1,33
 349 429 349 429 361 441.5 c 128,-1,34
 373 454 373 454 406 482 c 0,35,36
 445 515 445 515 445 570 c 0,37,38
 445 590 445 590 435 601.5 c 128,-1,39
 425 613 425 613 387.5 613 c 128,-1,40
 350 613 350 613 333 585 c 128,-1,41
 316 557 316 557 303 476 c 2,42,-1
 228 0 l 1,43,-1
 34 0 l 1,44,-1
 124 566 l 2,45,46
 139 662 139 662 209 723 c 128,-1,47
 279 784 279 784 411 784 c 0,0,1
EndSplineSet
Substitution2: "'smcp' Lowercase to Small Capitals lookup 1 subtable" germandbls.smcp
EndChar

StartChar: agrave
Encoding: 224 224 161
Width: 546
GlyphClass: 2
Flags: W
LayerCount: 2
Fore
SplineSet
202 744 m 1,0,-1
 347 744 l 1,1,-1
 401 601 l 1,2,-1
 292 601 l 1,3,-1
 202 744 l 1,0,-1
338 541 m 0,4,5
 525 541 525 541 590 479 c 1,6,-1
 520 2 l 1,7,-1
 367 2 l 1,8,-1
 337 52 l 1,9,10
 306 -5 306 -5 197 -5 c 0,11,12
 120 -5 120 -5 79 82 c 0,13,14
 56 132 56 132 56 191 c 128,-1,15
 56 250 56 250 67.5 304 c 128,-1,16
 79 358 79 358 94 394.5 c 128,-1,17
 109 431 109 431 124.5 454.5 c 128,-1,18
 140 478 140 478 162 495 c 128,-1,19
 184 512 184 512 202.5 521 c 128,-1,20
 221 530 221 530 248 534 c 0,21,22
 286 541 286 541 338 541 c 0,4,5
277 353 m 128,-1,24
 265 329 265 329 258.5 283.5 c 128,-1,25
 252 238 252 238 252 220.5 c 128,-1,26
 252 203 252 203 252.5 187 c 128,-1,27
 253 171 253 171 262.5 160.5 c 128,-1,28
 272 150 272 150 290 150 c 0,29,30
 350 150 350 150 355 202 c 1,31,-1
 382 392 l 1,32,33
 373 400 373 400 359 400 c 128,-1,34
 345 400 345 400 328 396 c 128,-1,35
 311 392 311 392 300 384.5 c 128,-1,23
 289 377 289 377 277 353 c 128,-1,24
EndSplineSet
AlternateSubs2: "'salt' Stylistic Alternatives in Latin lookup 16 subtable" agrave.salt
Substitution2: "'smcp' Lowercase to Small Capitals lookup 1 subtable" agrave.smcp
EndChar

StartChar: aacute
Encoding: 225 225 162
Width: 546
GlyphClass: 2
Flags: W
LayerCount: 2
Fore
SplineSet
297 601 m 1,0,-1
 397 744 l 1,1,-1
 542 744 l 1,2,-1
 406 601 l 1,3,-1
 297 601 l 1,0,-1
338 541 m 0,4,5
 525 541 525 541 590 479 c 1,6,-1
 520 2 l 1,7,-1
 367 2 l 1,8,-1
 337 52 l 1,9,10
 306 -5 306 -5 197 -5 c 0,11,12
 120 -5 120 -5 79 82 c 0,13,14
 56 132 56 132 56 191 c 128,-1,15
 56 250 56 250 67.5 304 c 128,-1,16
 79 358 79 358 94 394.5 c 128,-1,17
 109 431 109 431 124.5 454.5 c 128,-1,18
 140 478 140 478 162 495 c 128,-1,19
 184 512 184 512 202.5 521 c 128,-1,20
 221 530 221 530 248 534 c 0,21,22
 286 541 286 541 338 541 c 0,4,5
277 353 m 128,-1,24
 265 329 265 329 258.5 283.5 c 128,-1,25
 252 238 252 238 252 220.5 c 128,-1,26
 252 203 252 203 252.5 187 c 128,-1,27
 253 171 253 171 262.5 160.5 c 128,-1,28
 272 150 272 150 290 150 c 0,29,30
 350 150 350 150 355 202 c 1,31,-1
 382 392 l 1,32,33
 373 400 373 400 359 400 c 128,-1,34
 345 400 345 400 328 396 c 128,-1,35
 311 392 311 392 300 384.5 c 128,-1,23
 289 377 289 377 277 353 c 128,-1,24
EndSplineSet
AlternateSubs2: "'salt' Stylistic Alternatives in Latin lookup 16 subtable" aacute.salt
Substitution2: "'smcp' Lowercase to Small Capitals lookup 1 subtable" aacute.smcp
EndChar

StartChar: acircumflex
Encoding: 226 226 163
Width: 546
GlyphClass: 2
Flags: W
LayerCount: 2
Fore
SplineSet
196 601 m 1,0,-1
 318 741 l 1,1,-1
 449 741 l 1,2,-1
 518 601 l 1,3,-1
 407 601 l 1,4,-1
 376 652 l 1,5,-1
 318 601 l 1,6,-1
 196 601 l 1,0,-1
338 541 m 0,7,8
 525 541 525 541 590 479 c 1,9,-1
 520 2 l 1,10,-1
 367 2 l 1,11,-1
 337 52 l 1,12,13
 306 -5 306 -5 197 -5 c 0,14,15
 120 -5 120 -5 79 82 c 0,16,17
 56 132 56 132 56 191 c 128,-1,18
 56 250 56 250 67.5 304 c 128,-1,19
 79 358 79 358 94 394.5 c 128,-1,20
 109 431 109 431 124.5 454.5 c 128,-1,21
 140 478 140 478 162 495 c 128,-1,22
 184 512 184 512 202.5 521 c 128,-1,23
 221 530 221 530 248 534 c 0,24,25
 286 541 286 541 338 541 c 0,7,8
277 353 m 128,-1,27
 265 329 265 329 258.5 283.5 c 128,-1,28
 252 238 252 238 252 220.5 c 128,-1,29
 252 203 252 203 252.5 187 c 128,-1,30
 253 171 253 171 262.5 160.5 c 128,-1,31
 272 150 272 150 290 150 c 0,32,33
 350 150 350 150 355 202 c 1,34,-1
 382 392 l 1,35,36
 373 400 373 400 359 400 c 128,-1,37
 345 400 345 400 328 396 c 128,-1,38
 311 392 311 392 300 384.5 c 128,-1,26
 289 377 289 377 277 353 c 128,-1,27
EndSplineSet
AlternateSubs2: "'salt' Stylistic Alternatives in Latin lookup 16 subtable" acircumflex.salt
Substitution2: "'smcp' Lowercase to Small Capitals lookup 1 subtable" acircumflex.smcp
EndChar

StartChar: atilde
Encoding: 227 227 164
Width: 546
GlyphClass: 2
Flags: W
LayerCount: 2
Fore
SplineSet
325 742 m 0,0,1
 348 742 348 742 377 724.5 c 128,-1,2
 406 707 406 707 425 707 c 0,3,4
 428 707 428 707 432 707 c 0,5,6
 480 707 480 707 525 747 c 1,7,-1
 539 673 l 1,8,9
 480 601 480 601 415 601 c 0,10,11
 393 601 393 601 358.5 618.5 c 128,-1,12
 324 636 324 636 305 636 c 0,13,14
 257 636 257 636 206 601 c 1,15,-1
 190 668 l 1,16,17
 254 742 254 742 325 742 c 0,0,1
338 541 m 0,18,19
 525 541 525 541 590 479 c 1,20,-1
 520 2 l 1,21,-1
 367 2 l 1,22,-1
 337 52 l 1,23,24
 306 -5 306 -5 197 -5 c 0,25,26
 120 -5 120 -5 79 82 c 0,27,28
 56 132 56 132 56 191 c 128,-1,29
 56 250 56 250 67.5 304 c 128,-1,30
 79 358 79 358 94 394.5 c 128,-1,31
 109 431 109 431 124.5 454.5 c 128,-1,32
 140 478 140 478 162 495 c 128,-1,33
 184 512 184 512 202.5 521 c 128,-1,34
 221 530 221 530 248 534 c 0,35,36
 286 541 286 541 338 541 c 0,18,19
277 353 m 128,-1,38
 265 329 265 329 258.5 283.5 c 128,-1,39
 252 238 252 238 252 220.5 c 128,-1,40
 252 203 252 203 252.5 187 c 128,-1,41
 253 171 253 171 262.5 160.5 c 128,-1,42
 272 150 272 150 290 150 c 0,43,44
 350 150 350 150 355 202 c 1,45,-1
 382 392 l 1,46,47
 373 400 373 400 359 400 c 128,-1,48
 345 400 345 400 328 396 c 128,-1,49
 311 392 311 392 300 384.5 c 128,-1,37
 289 377 289 377 277 353 c 128,-1,38
EndSplineSet
AlternateSubs2: "'salt' Stylistic Alternatives in Latin lookup 16 subtable" atilde.salt
Substitution2: "'smcp' Lowercase to Small Capitals lookup 1 subtable" atilde.smcp
EndChar

StartChar: adieresis
Encoding: 228 228 165
Width: 546
GlyphClass: 2
Flags: W
LayerCount: 2
Fore
SplineSet
248 732 m 128,-1,1
 275 732 275 732 289.5 715 c 128,-1,2
 304 698 304 698 304 685 c 0,3,4
 304 645 304 645 279 623 c 128,-1,5
 254 601 254 601 227 601 c 128,-1,6
 200 601 200 601 185.5 618.5 c 128,-1,7
 171 636 171 636 171 649 c 0,8,9
 171 690 171 690 196 711 c 128,-1,0
 221 732 221 732 248 732 c 128,-1,1
503 732 m 128,-1,11
 530 732 530 732 544.5 715 c 128,-1,12
 559 698 559 698 559 685 c 0,13,14
 559 645 559 645 534 623 c 128,-1,15
 509 601 509 601 482 601 c 128,-1,16
 455 601 455 601 440.5 618 c 128,-1,17
 426 635 426 635 426 648 c 0,18,19
 426 690 426 690 451 711 c 128,-1,10
 476 732 476 732 503 732 c 128,-1,11
338 541 m 0,20,21
 525 541 525 541 590 479 c 1,22,-1
 520 2 l 1,23,-1
 367 2 l 1,24,-1
 337 52 l 1,25,26
 306 -5 306 -5 197 -5 c 0,27,28
 120 -5 120 -5 79 82 c 0,29,30
 56 132 56 132 56 191 c 128,-1,31
 56 250 56 250 67.5 304 c 128,-1,32
 79 358 79 358 94 394.5 c 128,-1,33
 109 431 109 431 124.5 454.5 c 128,-1,34
 140 478 140 478 162 495 c 128,-1,35
 184 512 184 512 202.5 521 c 128,-1,36
 221 530 221 530 248 534 c 0,37,38
 286 541 286 541 338 541 c 0,20,21
277 353 m 128,-1,40
 265 329 265 329 258.5 283.5 c 128,-1,41
 252 238 252 238 252 220.5 c 128,-1,42
 252 203 252 203 252.5 187 c 128,-1,43
 253 171 253 171 262.5 160.5 c 128,-1,44
 272 150 272 150 290 150 c 0,45,46
 350 150 350 150 355 202 c 1,47,-1
 382 392 l 1,48,49
 373 400 373 400 359 400 c 128,-1,50
 345 400 345 400 328 396 c 128,-1,51
 311 392 311 392 300 384.5 c 128,-1,39
 289 377 289 377 277 353 c 128,-1,40
EndSplineSet
AlternateSubs2: "'salt' Stylistic Alternatives in Latin lookup 16 subtable" adieresis.salt
Substitution2: "'smcp' Lowercase to Small Capitals lookup 1 subtable" adieresis.smcp
EndChar

StartChar: aring
Encoding: 229 229 166
Width: 546
GlyphClass: 2
Flags: W
LayerCount: 2
Fore
SplineSet
378 801 m 128,-1,1
 420 801 420 801 446 774 c 128,-1,2
 472 747 472 747 472 711 c 0,3,4
 472 662 472 662 439.5 631.5 c 128,-1,5
 407 601 407 601 364.5 601 c 128,-1,6
 322 601 322 601 295.5 628 c 128,-1,7
 269 655 269 655 269 691 c 0,8,9
 269 740 269 740 302.5 770.5 c 128,-1,0
 336 801 336 801 378 801 c 128,-1,1
368 668 m 128,-1,11
 382 668 382 668 392 677.5 c 128,-1,12
 402 687 402 687 404 701 c 128,-1,13
 406 715 406 715 397 725 c 128,-1,14
 388 735 388 735 374 735 c 128,-1,15
 360 735 360 735 349.5 725 c 128,-1,16
 339 715 339 715 337.5 701 c 128,-1,17
 336 687 336 687 345 677.5 c 128,-1,10
 354 668 354 668 368 668 c 128,-1,11
338 541 m 0,18,19
 525 541 525 541 590 479 c 1,20,-1
 520 2 l 1,21,-1
 367 2 l 1,22,-1
 337 52 l 1,23,24
 306 -5 306 -5 197 -5 c 0,25,26
 120 -5 120 -5 79 82 c 0,27,28
 56 132 56 132 56 191 c 128,-1,29
 56 250 56 250 67.5 304 c 128,-1,30
 79 358 79 358 94 394.5 c 128,-1,31
 109 431 109 431 124.5 454.5 c 128,-1,32
 140 478 140 478 162 495 c 128,-1,33
 184 512 184 512 202.5 521 c 128,-1,34
 221 530 221 530 248 534 c 0,35,36
 286 541 286 541 338 541 c 0,18,19
277 353 m 128,-1,38
 265 329 265 329 258.5 283.5 c 128,-1,39
 252 238 252 238 252 220.5 c 128,-1,40
 252 203 252 203 252.5 187 c 128,-1,41
 253 171 253 171 262.5 160.5 c 128,-1,42
 272 150 272 150 290 150 c 0,43,44
 350 150 350 150 355 202 c 1,45,-1
 382 392 l 1,46,47
 373 400 373 400 359 400 c 128,-1,48
 345 400 345 400 328 396 c 128,-1,49
 311 392 311 392 300 384.5 c 128,-1,37
 289 377 289 377 277 353 c 128,-1,38
EndSplineSet
AlternateSubs2: "'salt' Stylistic Alternatives in Latin lookup 16 subtable" aring.salt
Substitution2: "'smcp' Lowercase to Small Capitals lookup 1 subtable" aring.smcp
EndChar

StartChar: ae
Encoding: 230 230 167
Width: 817
GlyphClass: 2
Flags: W
LayerCount: 2
Fore
SplineSet
824 267 m 0,0,1
 777 189 777 189 681 181 c 0,2,3
 648 178 648 178 613.5 178 c 128,-1,4
 579 178 579 178 545 192 c 1,5,6
 544 184 544 184 544 178 c 0,7,8
 544 157 544 157 559 148 c 128,-1,9
 574 139 574 139 645 139 c 128,-1,10
 716 139 716 139 809 158 c 1,11,-1
 785 22 l 1,12,13
 685 -10 685 -10 572 -10 c 0,14,15
 535 -10 535 -10 496 -7 c 0,16,17
 417 0 417 0 379 62 c 1,18,19
 329 -7 329 -7 197 -7 c 0,20,21
 120 -7 120 -7 78 84 c 0,22,23
 55 135 55 135 55 195.5 c 128,-1,24
 55 256 55 256 66.5 310 c 128,-1,25
 78 364 78 364 92.5 400 c 128,-1,26
 107 436 107 436 122.5 459.5 c 128,-1,27
 138 483 138 483 160.5 499 c 128,-1,28
 183 515 183 515 200 523 c 128,-1,29
 217 531 217 531 244 536 c 1,30,31
 278 541 278 541 355 541 c 128,-1,32
 432 541 432 541 492 522 c 1,33,34
 545 540 545 540 604 540.5 c 128,-1,35
 663 541 663 541 702 535 c 0,36,37
 855 511 855 511 855 392 c 0,38,39
 855 317 855 317 824 267 c 0,0,1
347 200 m 0,40,41
 347 295 347 295 378 394 c 1,42,43
 368 399 368 399 355 399 c 128,-1,44
 342 399 342 399 321.5 394.5 c 128,-1,45
 301 390 301 390 284 367.5 c 128,-1,46
 267 345 267 345 259.5 290.5 c 128,-1,47
 252 236 252 236 252 207.5 c 128,-1,48
 252 179 252 179 257 167 c 0,49,50
 266 148 266 148 289 148 c 0,51,52
 334 148 334 148 348 176 c 1,53,54
 347 188 347 188 347 200 c 0,40,41
559 316 m 1,55,56
 575 311 575 311 591.5 311 c 128,-1,57
 608 311 608 311 618.5 313 c 128,-1,58
 629 315 629 315 641 325 c 0,59,60
 657 338 657 338 657 365 c 0,61,62
 657 397 657 397 622 397 c 0,63,64
 590 397 590 397 577.5 376.5 c 128,-1,65
 565 356 565 356 559 316 c 1,55,56
EndSplineSet
Substitution2: "'smcp' Lowercase to Small Capitals lookup 1 subtable" ae.smcp
EndChar

StartChar: ccedilla
Encoding: 231 231 168
Width: 489
GlyphClass: 2
Flags: W
LayerCount: 2
Fore
SplineSet
301 -6 m 2,0,-1
 202 -5 l 2,1,2
 123 -5 123 -5 84 71 c 0,3,4
 61 118 61 118 61 178.5 c 128,-1,5
 61 239 61 239 71.5 305 c 128,-1,6
 82 371 82 371 102.5 420.5 c 128,-1,7
 123 470 123 470 153 494.5 c 128,-1,8
 183 519 183 519 213.5 527.5 c 128,-1,9
 244 536 244 536 267 536 c 0,10,11
 301 536 301 536 322.5 536 c 128,-1,12
 344 536 344 536 364 535.5 c 128,-1,13
 384 535 384 535 397 533.5 c 128,-1,14
 410 532 410 532 431 529.5 c 128,-1,15
 452 527 452 527 468 523 c 0,16,17
 509 513 509 513 540 500 c 1,18,-1
 522 386 l 1,19,20
 463 392 463 392 407.5 392 c 128,-1,21
 352 392 352 392 343.5 391.5 c 128,-1,22
 335 391 335 391 320.5 387.5 c 128,-1,23
 306 384 306 384 300.5 376.5 c 128,-1,24
 295 369 295 369 286 355 c 0,25,26
 267 322 267 322 256 212 c 0,27,28
 255 204 255 204 255 195 c 128,-1,29
 255 186 255 186 257.5 174.5 c 128,-1,30
 260 163 260 163 263.5 155.5 c 128,-1,31
 267 148 267 148 279 144 c 0,32,33
 294 139 294 139 334 139 c 0,34,35
 415 139 415 139 472 145 c 2,36,-1
 491 147 l 1,37,-1
 473 33 l 1,38,39
 444 14 444 14 404 5 c 0,40,41
 354 -6 354 -6 301 -6 c 2,0,-1
175 -184 m 2,42,-1
 114 -184 l 1,43,-1
 126 -105 l 1,44,-1
 166 -90 l 2,45,46
 188 -81 188 -81 192.5 -74 c 128,-1,47
 197 -67 197 -67 202 -38 c 1,48,-1
 319 -38 l 1,49,50
 307 -116 307 -116 275 -150 c 128,-1,51
 243 -184 243 -184 175 -184 c 2,42,-1
EndSplineSet
Substitution2: "'smcp' Lowercase to Small Capitals lookup 1 subtable" ccedilla.smcp
EndChar

StartChar: egrave
Encoding: 232 232 169
Width: 529
GlyphClass: 2
Flags: W
LayerCount: 2
Fore
SplineSet
213 744 m 1,0,-1
 358 744 l 1,1,-1
 412 601 l 1,2,-1
 303 601 l 1,3,-1
 213 744 l 1,0,-1
345 541 m 1,4,5
 567 541 567 541 567 392 c 0,6,7
 567 328 567 328 545.5 283 c 128,-1,8
 524 238 524 238 492 218 c 0,9,10
 430 178 430 178 364 178 c 2,11,-1
 352 178 l 1,12,13
 280 182 280 182 256 192 c 1,14,15
 255 184 255 184 255 178 c 0,16,17
 255 157 255 157 270 148 c 128,-1,18
 285 139 285 139 361.5 139 c 128,-1,19
 438 139 438 139 531 158 c 1,20,-1
 507 22 l 1,21,22
 406 -11 406 -11 290 -11 c 0,23,24
 250 -11 250 -11 208 -7 c 0,25,26
 114 1 114 1 79 86 c 0,27,28
 59 134 59 134 59 194 c 128,-1,29
 59 254 59 254 71 318 c 0,30,31
 95 445 95 445 149 492.5 c 128,-1,32
 203 540 203 540 345 541 c 1,4,5
271 316 m 1,33,34
 287 311 287 311 303.5 311 c 128,-1,35
 320 311 320 311 330.5 313 c 128,-1,36
 341 315 341 315 352 325 c 0,37,38
 368 339 368 339 368 366 c 0,39,40
 368 397 368 397 334 397 c 0,41,42
 302 397 302 397 289.5 376.5 c 128,-1,43
 277 356 277 356 271 316 c 1,33,34
EndSplineSet
Substitution2: "'smcp' Lowercase to Small Capitals lookup 1 subtable" egrave.smcp
EndChar

StartChar: eacute
Encoding: 233 233 170
Width: 529
GlyphClass: 2
Flags: W
LayerCount: 2
Fore
SplineSet
303 601 m 1,0,-1
 403 744 l 1,1,-1
 548 744 l 1,2,-1
 412 601 l 1,3,-1
 303 601 l 1,0,-1
345 541 m 1,4,5
 567 541 567 541 567 392 c 0,6,7
 567 328 567 328 545.5 283 c 128,-1,8
 524 238 524 238 492 218 c 0,9,10
 430 178 430 178 364 178 c 2,11,-1
 352 178 l 1,12,13
 280 182 280 182 256 192 c 1,14,15
 255 184 255 184 255 178 c 0,16,17
 255 157 255 157 270 148 c 128,-1,18
 285 139 285 139 361.5 139 c 128,-1,19
 438 139 438 139 531 158 c 1,20,-1
 507 22 l 1,21,22
 406 -11 406 -11 290 -11 c 0,23,24
 250 -11 250 -11 208 -7 c 0,25,26
 114 1 114 1 79 86 c 0,27,28
 59 134 59 134 59 194 c 128,-1,29
 59 254 59 254 71 318 c 0,30,31
 95 445 95 445 149 492.5 c 128,-1,32
 203 540 203 540 345 541 c 1,4,5
271 316 m 1,33,34
 287 311 287 311 303.5 311 c 128,-1,35
 320 311 320 311 330.5 313 c 128,-1,36
 341 315 341 315 352 325 c 0,37,38
 368 339 368 339 368 366 c 0,39,40
 368 397 368 397 334 397 c 0,41,42
 302 397 302 397 289.5 376.5 c 128,-1,43
 277 356 277 356 271 316 c 1,33,34
EndSplineSet
Substitution2: "'smcp' Lowercase to Small Capitals lookup 1 subtable" eacute.smcp
EndChar

StartChar: ecircumflex
Encoding: 234 234 171
Width: 529
GlyphClass: 2
Flags: W
LayerCount: 2
Fore
SplineSet
197 601 m 1,0,-1
 319 741 l 1,1,-1
 450 741 l 1,2,-1
 519 601 l 1,3,-1
 408 601 l 1,4,-1
 377 652 l 1,5,-1
 319 601 l 1,6,-1
 197 601 l 1,0,-1
345 541 m 1,7,8
 567 541 567 541 567 392 c 0,9,10
 567 328 567 328 545.5 283 c 128,-1,11
 524 238 524 238 492 218 c 0,12,13
 430 178 430 178 364 178 c 2,14,-1
 352 178 l 1,15,16
 280 182 280 182 256 192 c 1,17,18
 255 184 255 184 255 178 c 0,19,20
 255 157 255 157 270 148 c 128,-1,21
 285 139 285 139 361.5 139 c 128,-1,22
 438 139 438 139 531 158 c 1,23,-1
 507 22 l 1,24,25
 406 -11 406 -11 290 -11 c 0,26,27
 250 -11 250 -11 208 -7 c 0,28,29
 114 1 114 1 79 86 c 0,30,31
 59 134 59 134 59 194 c 128,-1,32
 59 254 59 254 71 318 c 0,33,34
 95 445 95 445 149 492.5 c 128,-1,35
 203 540 203 540 345 541 c 1,7,8
271 316 m 1,36,37
 287 311 287 311 303.5 311 c 128,-1,38
 320 311 320 311 330.5 313 c 128,-1,39
 341 315 341 315 352 325 c 0,40,41
 368 339 368 339 368 366 c 0,42,43
 368 397 368 397 334 397 c 0,44,45
 302 397 302 397 289.5 376.5 c 128,-1,46
 277 356 277 356 271 316 c 1,36,37
EndSplineSet
Substitution2: "'smcp' Lowercase to Small Capitals lookup 1 subtable" ecircumflex.smcp
EndChar

StartChar: edieresis
Encoding: 235 235 172
Width: 529
GlyphClass: 2
Flags: W
LayerCount: 2
Fore
SplineSet
251 732 m 128,-1,1
 278 732 278 732 292.5 715 c 128,-1,2
 307 698 307 698 307 685 c 0,3,4
 307 645 307 645 282 623 c 128,-1,5
 257 601 257 601 230 601 c 128,-1,6
 203 601 203 601 188.5 618 c 128,-1,7
 174 635 174 635 174 648 c 0,8,9
 174 690 174 690 199 711 c 128,-1,0
 224 732 224 732 251 732 c 128,-1,1
506 732 m 128,-1,11
 533 732 533 732 547.5 715 c 128,-1,12
 562 698 562 698 562 685 c 0,13,14
 562 645 562 645 537 623 c 128,-1,15
 512 601 512 601 485 601 c 128,-1,16
 458 601 458 601 443.5 618.5 c 128,-1,17
 429 636 429 636 429 649 c 0,18,19
 429 690 429 690 454 711 c 128,-1,10
 479 732 479 732 506 732 c 128,-1,11
345 541 m 1,20,21
 567 541 567 541 567 392 c 0,22,23
 567 328 567 328 545.5 283 c 128,-1,24
 524 238 524 238 492 218 c 0,25,26
 430 178 430 178 364 178 c 2,27,-1
 352 178 l 1,28,29
 280 182 280 182 256 192 c 1,30,31
 255 184 255 184 255 178 c 0,32,33
 255 157 255 157 270 148 c 128,-1,34
 285 139 285 139 361.5 139 c 128,-1,35
 438 139 438 139 531 158 c 1,36,-1
 507 22 l 1,37,38
 406 -11 406 -11 290 -11 c 0,39,40
 250 -11 250 -11 208 -7 c 0,41,42
 114 1 114 1 79 86 c 0,43,44
 59 134 59 134 59 194 c 128,-1,45
 59 254 59 254 71 318 c 0,46,47
 95 445 95 445 149 492.5 c 128,-1,48
 203 540 203 540 345 541 c 1,20,21
271 316 m 1,49,50
 287 311 287 311 303.5 311 c 128,-1,51
 320 311 320 311 330.5 313 c 128,-1,52
 341 315 341 315 352 325 c 0,53,54
 368 339 368 339 368 366 c 0,55,56
 368 397 368 397 334 397 c 0,57,58
 302 397 302 397 289.5 376.5 c 128,-1,59
 277 356 277 356 271 316 c 1,49,50
EndSplineSet
Substitution2: "'smcp' Lowercase to Small Capitals lookup 1 subtable" edieresis.smcp
EndChar

StartChar: igrave
Encoding: 236 236 173
Width: 252
GlyphClass: 2
Flags: W
LayerCount: 2
Fore
SplineSet
65 742 m 1,0,-1
 210 742 l 1,1,-1
 264 599 l 1,2,-1
 155 599 l 1,3,-1
 65 742 l 1,0,-1
20 0 m 1,4,-1
 104 531 l 1,5,-1
 298 531 l 1,6,-1
 214 0 l 1,7,-1
 20 0 l 1,4,-1
EndSplineSet
Substitution2: "'smcp' Lowercase to Small Capitals lookup 1 subtable" igrave.smcp
EndChar

StartChar: iacute
Encoding: 237 237 174
Width: 252
GlyphClass: 2
Flags: W
LayerCount: 2
Fore
SplineSet
155 599 m 1,0,-1
 255 742 l 1,1,-1
 400 742 l 1,2,-1
 264 599 l 1,3,-1
 155 599 l 1,0,-1
20 0 m 1,4,-1
 104 531 l 1,5,-1
 298 531 l 1,6,-1
 214 0 l 1,7,-1
 20 0 l 1,4,-1
EndSplineSet
Substitution2: "'smcp' Lowercase to Small Capitals lookup 1 subtable" iacute.smcp
EndChar

StartChar: icircumflex
Encoding: 238 238 175
Width: 252
GlyphClass: 2
Flags: W
LayerCount: 2
Fore
SplineSet
49 599 m 1,0,-1
 171 739 l 1,1,-1
 302 739 l 1,2,-1
 371 599 l 1,3,-1
 260 599 l 1,4,-1
 229 650 l 1,5,-1
 171 599 l 1,6,-1
 49 599 l 1,0,-1
20 0 m 1,7,-1
 104 531 l 1,8,-1
 298 531 l 1,9,-1
 214 0 l 1,10,-1
 20 0 l 1,7,-1
EndSplineSet
Substitution2: "'smcp' Lowercase to Small Capitals lookup 1 subtable" icircumflex.smcp
EndChar

StartChar: idieresis
Encoding: 239 239 176
Width: 252
GlyphClass: 2
Flags: W
LayerCount: 2
Fore
SplineSet
104 730 m 128,-1,1
 131 730 131 730 145.5 713 c 128,-1,2
 160 696 160 696 160 683 c 0,3,4
 160 643 160 643 135 621 c 128,-1,5
 110 599 110 599 83 599 c 128,-1,6
 56 599 56 599 41.5 616 c 128,-1,7
 27 633 27 633 27 646 c 0,8,9
 27 688 27 688 52 709 c 128,-1,0
 77 730 77 730 104 730 c 128,-1,1
359 730 m 128,-1,11
 386 730 386 730 400.5 713 c 128,-1,12
 415 696 415 696 415 683 c 0,13,14
 415 643 415 643 390 621 c 128,-1,15
 365 599 365 599 338 599 c 128,-1,16
 311 599 311 599 296.5 616 c 128,-1,17
 282 633 282 633 282 646 c 0,18,19
 282 688 282 688 307 709 c 128,-1,10
 332 730 332 730 359 730 c 128,-1,11
20 0 m 1,20,-1
 104 531 l 1,21,-1
 298 531 l 1,22,-1
 214 0 l 1,23,-1
 20 0 l 1,20,-1
EndSplineSet
Substitution2: "'smcp' Lowercase to Small Capitals lookup 1 subtable" idieresis.smcp
EndChar

StartChar: eth
Encoding: 240 240 177
Width: 542
GlyphClass: 2
Flags: W
LayerCount: 2
Fore
SplineSet
299 531 m 2,0,-1
 319 531 l 2,1,2
 379 531 379 531 398 526 c 1,3,4
 393 568 393 568 365 594 c 1,5,-1
 269 544 l 1,6,-1
 246 600 l 1,7,-1
 291 624 l 1,8,9
 263 628 263 628 227 628 c 128,-1,10
 191 628 191 628 170 628 c 1,11,-1
 195 783 l 1,12,13
 387 783 387 783 480 722 c 1,14,-1
 557 762 l 1,15,-1
 581 706 l 1,16,-1
 528 679 l 1,17,18
 581 613 581 613 581 459 c 0,19,20
 581 363 581 363 561 234 c 1,21,22
 537 91 537 91 470 42 c 0,23,24
 437 18 437 18 403 9 c 128,-1,25
 369 0 369 0 325 0 c 2,26,-1
 215 0 l 2,27,28
 55 0 55 0 55 190 c 0,29,30
 55 234 55 234 63 287 c 0,31,32
 83 414 83 414 140 472.5 c 128,-1,33
 197 531 197 531 299 531 c 2,0,-1
277 339.5 m 128,-1,35
 266 322 266 322 258 273.5 c 128,-1,36
 250 225 250 225 250 211.5 c 128,-1,37
 250 198 250 198 251 193 c 0,38,39
 255 176 255 176 285 176 c 2,40,-1
 312 176 l 2,41,42
 341 176 341 176 349 189 c 128,-1,43
 357 202 357 202 366 258 c 128,-1,44
 375 314 375 314 375 327 c 128,-1,45
 375 340 375 340 374 344 c 0,46,47
 371 357 371 357 341 357 c 2,48,-1
 314 357 l 2,49,34
 288 357 288 357 277 339.5 c 128,-1,35
EndSplineSet
Substitution2: "'smcp' Lowercase to Small Capitals lookup 1 subtable" eth.smcp
EndChar

StartChar: ntilde
Encoding: 241 241 178
Width: 555
GlyphClass: 2
Flags: W
LayerCount: 2
Fore
SplineSet
345 741 m 0,0,1
 368 741 368 741 397 723.5 c 128,-1,2
 426 706 426 706 445 706 c 0,3,4
 448 706 448 706 452 706 c 0,5,6
 500 706 500 706 545 746 c 1,7,-1
 559 672 l 1,8,9
 500 600 500 600 435 600 c 0,10,11
 413 600 413 600 378.5 617.5 c 128,-1,12
 344 635 344 635 325 635 c 0,13,14
 277 635 277 635 226 600 c 1,15,-1
 210 667 l 1,16,17
 274 741 274 741 345 741 c 0,0,1
390 367 m 0,18,19
 390 396 390 396 364 396 c 0,20,21
 307 396 307 396 285 359 c 1,22,-1
 228 0 l 1,23,-1
 34 0 l 1,24,-1
 118 531 l 1,25,-1
 280 531 l 1,26,-1
 304 479 l 1,27,28
 329 499 329 499 344.5 509.5 c 128,-1,29
 360 520 360 520 391 530 c 128,-1,30
 422 540 422 540 460 540 c 0,31,32
 525 540 525 540 556 513 c 0,33,34
 589 485 589 485 589 438 c 128,-1,35
 589 391 589 391 582 340 c 1,36,-1
 528 0 l 1,37,-1
 334 0 l 1,38,-1
 388 344 l 2,39,40
 390 358 390 358 390 367 c 0,18,19
EndSplineSet
AlternateSubs2: "'salt' Stylistic Alternatives in Latin lookup 16 subtable" ntilde.salt
Substitution2: "'smcp' Lowercase to Small Capitals lookup 1 subtable" ntilde.smcp
EndChar

StartChar: ograve
Encoding: 242 242 179
Width: 553
GlyphClass: 2
Flags: W
LayerCount: 2
Fore
SplineSet
215 742 m 1,0,-1
 360 742 l 1,1,-1
 414 599 l 1,2,-1
 305 599 l 1,3,-1
 215 742 l 1,0,-1
361 539 m 0,4,5
 498 539 498 539 544 466 c 1,6,7
 575 419 575 419 575 335 c 0,8,9
 575 289 575 289 564.5 223.5 c 128,-1,10
 554 158 554 158 535 112.5 c 128,-1,11
 516 67 516 67 480 40.5 c 128,-1,12
 444 14 444 14 397 4.5 c 128,-1,13
 350 -5 350 -5 275 -5 c 0,14,15
 139 -5 139 -5 92 66 c 0,16,17
 60 113 60 113 60 195 c 0,18,19
 60 235 60 235 70.5 300 c 128,-1,20
 81 365 81 365 101.5 415 c 128,-1,21
 122 465 122 465 159 492.5 c 128,-1,22
 196 520 196 520 241.5 529.5 c 128,-1,23
 287 539 287 539 361 539 c 0,4,5
288.5 376.5 m 128,-1,25
 278 358 278 358 265.5 282.5 c 128,-1,26
 253 207 253 207 253 186 c 128,-1,27
 253 165 253 165 254 159 c 0,28,29
 260 139 260 139 299 139 c 128,-1,30
 338 139 338 139 348 156 c 128,-1,31
 358 173 358 173 371 248.5 c 128,-1,32
 384 324 384 324 384 343.5 c 128,-1,33
 384 363 384 363 383 370 c 0,34,35
 378 395 378 395 338.5 395 c 128,-1,24
 299 395 299 395 288.5 376.5 c 128,-1,25
EndSplineSet
Substitution2: "'smcp' Lowercase to Small Capitals lookup 1 subtable" ograve.smcp
EndChar

StartChar: oacute
Encoding: 243 243 180
Width: 553
GlyphClass: 2
Flags: W
LayerCount: 2
Fore
SplineSet
311 599 m 1,0,-1
 411 742 l 1,1,-1
 556 742 l 1,2,-1
 420 599 l 1,3,-1
 311 599 l 1,0,-1
361 539 m 0,4,5
 498 539 498 539 544 466 c 1,6,7
 575 419 575 419 575 335 c 0,8,9
 575 289 575 289 564.5 223.5 c 128,-1,10
 554 158 554 158 535 112.5 c 128,-1,11
 516 67 516 67 480 40.5 c 128,-1,12
 444 14 444 14 397 4.5 c 128,-1,13
 350 -5 350 -5 275 -5 c 0,14,15
 139 -5 139 -5 92 66 c 0,16,17
 60 113 60 113 60 195 c 0,18,19
 60 235 60 235 70.5 300 c 128,-1,20
 81 365 81 365 101.5 415 c 128,-1,21
 122 465 122 465 159 492.5 c 128,-1,22
 196 520 196 520 241.5 529.5 c 128,-1,23
 287 539 287 539 361 539 c 0,4,5
288.5 376.5 m 128,-1,25
 278 358 278 358 265.5 282.5 c 128,-1,26
 253 207 253 207 253 186 c 128,-1,27
 253 165 253 165 254 159 c 0,28,29
 260 139 260 139 299 139 c 128,-1,30
 338 139 338 139 348 156 c 128,-1,31
 358 173 358 173 371 248.5 c 128,-1,32
 384 324 384 324 384 343.5 c 128,-1,33
 384 363 384 363 383 370 c 0,34,35
 378 395 378 395 338.5 395 c 128,-1,24
 299 395 299 395 288.5 376.5 c 128,-1,25
EndSplineSet
Substitution2: "'smcp' Lowercase to Small Capitals lookup 1 subtable" oacute.smcp
EndChar

StartChar: ocircumflex
Encoding: 244 244 181
Width: 553
GlyphClass: 2
Flags: W
LayerCount: 2
Fore
SplineSet
195 599 m 1,0,-1
 317 739 l 1,1,-1
 448 739 l 1,2,-1
 517 599 l 1,3,-1
 406 599 l 1,4,-1
 375 650 l 1,5,-1
 317 599 l 1,6,-1
 195 599 l 1,0,-1
361 539 m 0,7,8
 498 539 498 539 544 466 c 1,9,10
 575 419 575 419 575 335 c 0,11,12
 575 289 575 289 564.5 223.5 c 128,-1,13
 554 158 554 158 535 112.5 c 128,-1,14
 516 67 516 67 480 40.5 c 128,-1,15
 444 14 444 14 397 4.5 c 128,-1,16
 350 -5 350 -5 275 -5 c 0,17,18
 139 -5 139 -5 92 66 c 0,19,20
 60 113 60 113 60 195 c 0,21,22
 60 235 60 235 70.5 300 c 128,-1,23
 81 365 81 365 101.5 415 c 128,-1,24
 122 465 122 465 159 492.5 c 128,-1,25
 196 520 196 520 241.5 529.5 c 128,-1,26
 287 539 287 539 361 539 c 0,7,8
288.5 376.5 m 128,-1,28
 278 358 278 358 265.5 282.5 c 128,-1,29
 253 207 253 207 253 186 c 128,-1,30
 253 165 253 165 254 159 c 0,31,32
 260 139 260 139 299 139 c 128,-1,33
 338 139 338 139 348 156 c 128,-1,34
 358 173 358 173 371 248.5 c 128,-1,35
 384 324 384 324 384 343.5 c 128,-1,36
 384 363 384 363 383 370 c 0,37,38
 378 395 378 395 338.5 395 c 128,-1,27
 299 395 299 395 288.5 376.5 c 128,-1,28
EndSplineSet
Substitution2: "'smcp' Lowercase to Small Capitals lookup 1 subtable" ocircumflex.smcp
EndChar

StartChar: otilde
Encoding: 245 245 182
Width: 553
GlyphClass: 2
Flags: W
LayerCount: 2
Fore
SplineSet
332 740 m 0,0,1
 354 740 354 740 383 722.5 c 128,-1,2
 412 705 412 705 432 705 c 0,3,4
 435 705 435 705 439 705 c 0,5,6
 487 705 487 705 532 745 c 1,7,-1
 546 671 l 1,8,9
 487 599 487 599 422 599 c 0,10,11
 400 599 400 599 365.5 616.5 c 128,-1,12
 331 634 331 634 312 634 c 0,13,14
 264 634 264 634 213 599 c 1,15,-1
 197 666 l 1,16,17
 261 740 261 740 332 740 c 0,0,1
361 539 m 0,18,19
 498 539 498 539 544 466 c 1,20,21
 575 419 575 419 575 335 c 0,22,23
 575 289 575 289 564.5 223.5 c 128,-1,24
 554 158 554 158 535 112.5 c 128,-1,25
 516 67 516 67 480 40.5 c 128,-1,26
 444 14 444 14 397 4.5 c 128,-1,27
 350 -5 350 -5 275 -5 c 0,28,29
 139 -5 139 -5 92 66 c 0,30,31
 60 113 60 113 60 195 c 0,32,33
 60 235 60 235 70.5 300 c 128,-1,34
 81 365 81 365 101.5 415 c 128,-1,35
 122 465 122 465 159 492.5 c 128,-1,36
 196 520 196 520 241.5 529.5 c 128,-1,37
 287 539 287 539 361 539 c 0,18,19
288.5 376.5 m 128,-1,39
 278 358 278 358 265.5 282.5 c 128,-1,40
 253 207 253 207 253 186 c 128,-1,41
 253 165 253 165 254 159 c 0,42,43
 260 139 260 139 299 139 c 128,-1,44
 338 139 338 139 348 156 c 128,-1,45
 358 173 358 173 371 248.5 c 128,-1,46
 384 324 384 324 384 343.5 c 128,-1,47
 384 363 384 363 383 370 c 0,48,49
 378 395 378 395 338.5 395 c 128,-1,38
 299 395 299 395 288.5 376.5 c 128,-1,39
EndSplineSet
Substitution2: "'smcp' Lowercase to Small Capitals lookup 1 subtable" otilde.smcp
EndChar

StartChar: odieresis
Encoding: 246 246 183
Width: 553
GlyphClass: 2
Flags: W
LayerCount: 2
Fore
SplineSet
257 730 m 128,-1,1
 284 730 284 730 298.5 713 c 128,-1,2
 313 696 313 696 313 683 c 0,3,4
 313 643 313 643 288 621 c 128,-1,5
 263 599 263 599 236 599 c 128,-1,6
 209 599 209 599 194.5 616 c 128,-1,7
 180 633 180 633 180 646 c 0,8,9
 180 688 180 688 205 709 c 128,-1,0
 230 730 230 730 257 730 c 128,-1,1
512 730 m 128,-1,11
 539 730 539 730 553.5 713 c 128,-1,12
 568 696 568 696 568 683 c 0,13,14
 568 643 568 643 543 621 c 128,-1,15
 518 599 518 599 491 599 c 128,-1,16
 464 599 464 599 449.5 616.5 c 128,-1,17
 435 634 435 634 435 647 c 0,18,19
 435 688 435 688 460 709 c 128,-1,10
 485 730 485 730 512 730 c 128,-1,11
361 539 m 0,20,21
 498 539 498 539 544 466 c 1,22,23
 575 419 575 419 575 335 c 0,24,25
 575 289 575 289 564.5 223.5 c 128,-1,26
 554 158 554 158 535 112.5 c 128,-1,27
 516 67 516 67 480 40.5 c 128,-1,28
 444 14 444 14 397 4.5 c 128,-1,29
 350 -5 350 -5 275 -5 c 0,30,31
 139 -5 139 -5 92 66 c 0,32,33
 60 113 60 113 60 195 c 0,34,35
 60 235 60 235 70.5 300 c 128,-1,36
 81 365 81 365 101.5 415 c 128,-1,37
 122 465 122 465 159 492.5 c 128,-1,38
 196 520 196 520 241.5 529.5 c 128,-1,39
 287 539 287 539 361 539 c 0,20,21
288.5 376.5 m 128,-1,41
 278 358 278 358 265.5 282.5 c 128,-1,42
 253 207 253 207 253 186 c 128,-1,43
 253 165 253 165 254 159 c 0,44,45
 260 139 260 139 299 139 c 128,-1,46
 338 139 338 139 348 156 c 128,-1,47
 358 173 358 173 371 248.5 c 128,-1,48
 384 324 384 324 384 343.5 c 128,-1,49
 384 363 384 363 383 370 c 0,50,51
 378 395 378 395 338.5 395 c 128,-1,40
 299 395 299 395 288.5 376.5 c 128,-1,41
EndSplineSet
Substitution2: "'smcp' Lowercase to Small Capitals lookup 1 subtable" odieresis.smcp
EndChar

StartChar: divide
Encoding: 247 247 184
Width: 482
GlyphClass: 2
Flags: W
LayerCount: 2
Fore
SplineSet
71 276 m 1,0,-1
 95 430 l 1,1,-1
 522 430 l 1,2,-1
 498 276 l 1,3,-1
 71 276 l 1,0,-1
227 242 m 2,4,-1
 320 242 l 2,5,6
 342 242 342 242 342 224 c 0,7,8
 342 221 342 221 341 217 c 2,9,-1
 328 140 l 2,10,11
 324 117 324 117 300 117 c 2,12,-1
 207 117 l 2,13,14
 183 117 183 117 186 140 c 2,15,-1
 199 217 l 1,16,17
 202 242 202 242 227 242 c 2,4,-1
281 585 m 2,19,-1
 374 585 l 2,20,21
 396 585 396 585 396 567 c 0,22,23
 396 564 396 564 395 560 c 2,24,-1
 383 483 l 2,25,26
 379 460 379 460 354 460 c 2,27,-1
 261 460 l 2,28,29
 241 460 241 460 241 478 c 0,30,31
 241 480 241 480 241 483 c 2,32,-1
 253 560 l 2,33,18
 256 585 256 585 281 585 c 2,19,-1
EndSplineSet
EndChar

StartChar: oslash
Encoding: 248 248 185
Width: 553
GlyphClass: 2
Flags: W
LayerCount: 2
Fore
SplineSet
80 72 m 1,0,1
 60 110 60 110 60 166 c 128,-1,2
 60 222 60 222 71 292.5 c 128,-1,3
 82 363 82 363 102.5 412.5 c 128,-1,4
 123 462 123 462 160 489.5 c 128,-1,5
 197 517 197 517 242.5 526.5 c 128,-1,6
 288 536 288 536 377.5 536 c 128,-1,7
 467 536 467 536 516 505 c 1,8,-1
 542 531 l 1,9,-1
 628 531 l 1,10,-1
 557 460 l 1,11,12
 577 420 577 420 577 360 c 128,-1,13
 577 300 577 300 566 229.5 c 128,-1,14
 555 159 555 159 536 113.5 c 128,-1,15
 517 68 517 68 481 41 c 128,-1,16
 445 14 445 14 398 4.5 c 128,-1,17
 351 -5 351 -5 261.5 -5 c 128,-1,18
 172 -5 172 -5 121 27 c 1,19,-1
 94 0 l 1,20,-1
 8 0 l 1,21,-1
 80 72 l 1,0,1
383 372 m 1,22,23
 378 392 378 392 338.5 392 c 128,-1,24
 299 392 299 392 288 373 c 0,25,26
 276 351 276 351 263 258 c 0,27,28
 263 257 263 257 262.5 255 c 128,-1,29
 262 253 262 253 262 252 c 2,30,-1
 383 372 l 1,22,23
268 143 m 128,-1,32
 278 139 278 139 308.5 139 c 128,-1,33
 339 139 339 139 348 156 c 1,34,35
 359 174 359 174 377 281 c 1,36,-1
 255 160 l 1,37,31
 258 147 258 147 268 143 c 128,-1,32
EndSplineSet
Substitution2: "'smcp' Lowercase to Small Capitals lookup 1 subtable" oslash.smcp
EndChar

StartChar: ugrave
Encoding: 249 249 186
Width: 554
GlyphClass: 2
Flags: W
LayerCount: 2
Fore
SplineSet
225 742 m 1,0,-1
 370 742 l 1,1,-1
 424 599 l 1,2,-1
 315 599 l 1,3,-1
 225 742 l 1,0,-1
249 164 m 0,4,5
 249 135 249 135 276 135 c 0,6,7
 333 135 333 135 355 172 c 1,8,-1
 412 531 l 1,9,-1
 606 531 l 1,10,-1
 521 0 l 1,11,-1
 359 0 l 1,12,-1
 336 52 l 1,13,14
 301 19 301 19 268.5 5 c 128,-1,15
 236 -9 236 -9 175.5 -9 c 128,-1,16
 115 -9 115 -9 84 18 c 0,17,18
 51 46 51 46 51 93 c 128,-1,19
 51 140 51 140 58 191 c 1,20,-1
 112 531 l 1,21,-1
 306 531 l 1,22,-1
 251 187 l 2,23,24
 249 173 249 173 249 164 c 0,4,5
EndSplineSet
AlternateSubs2: "'salt' Stylistic Alternatives in Latin lookup 16 subtable" ugrave.salt
Substitution2: "'smcp' Lowercase to Small Capitals lookup 1 subtable" ugrave.smcp
EndChar

StartChar: uacute
Encoding: 250 250 187
Width: 554
GlyphClass: 2
Flags: W
LayerCount: 2
Fore
SplineSet
315 599 m 1,0,-1
 415 742 l 1,1,-1
 560 742 l 1,2,-1
 424 599 l 1,3,-1
 315 599 l 1,0,-1
249 164 m 0,4,5
 249 135 249 135 276 135 c 0,6,7
 333 135 333 135 355 172 c 1,8,-1
 412 531 l 1,9,-1
 606 531 l 1,10,-1
 521 0 l 1,11,-1
 359 0 l 1,12,-1
 336 52 l 1,13,14
 301 19 301 19 268.5 5 c 128,-1,15
 236 -9 236 -9 175.5 -9 c 128,-1,16
 115 -9 115 -9 84 18 c 0,17,18
 51 46 51 46 51 93 c 128,-1,19
 51 140 51 140 58 191 c 1,20,-1
 112 531 l 1,21,-1
 306 531 l 1,22,-1
 251 187 l 2,23,24
 249 173 249 173 249 164 c 0,4,5
EndSplineSet
AlternateSubs2: "'salt' Stylistic Alternatives in Latin lookup 16 subtable" uacute.salt
Substitution2: "'smcp' Lowercase to Small Capitals lookup 1 subtable" uacute.smcp
EndChar

StartChar: ucircumflex
Encoding: 251 251 188
Width: 554
GlyphClass: 2
Flags: W
LayerCount: 2
Fore
SplineSet
209 599 m 1,0,-1
 331 739 l 1,1,-1
 462 739 l 1,2,-1
 531 599 l 1,3,-1
 420 599 l 1,4,-1
 389 650 l 1,5,-1
 331 599 l 1,6,-1
 209 599 l 1,0,-1
249 164 m 0,7,8
 249 135 249 135 276 135 c 0,9,10
 333 135 333 135 355 172 c 1,11,-1
 412 531 l 1,12,-1
 606 531 l 1,13,-1
 521 0 l 1,14,-1
 359 0 l 1,15,-1
 336 52 l 1,16,17
 301 19 301 19 268.5 5 c 128,-1,18
 236 -9 236 -9 175.5 -9 c 128,-1,19
 115 -9 115 -9 84 18 c 0,20,21
 51 46 51 46 51 93 c 128,-1,22
 51 140 51 140 58 191 c 1,23,-1
 112 531 l 1,24,-1
 306 531 l 1,25,-1
 251 187 l 2,26,27
 249 173 249 173 249 164 c 0,7,8
EndSplineSet
AlternateSubs2: "'salt' Stylistic Alternatives in Latin lookup 16 subtable" ucircumflex.salt
Substitution2: "'smcp' Lowercase to Small Capitals lookup 1 subtable" ucircumflex.smcp
EndChar

StartChar: udieresis
Encoding: 252 252 189
Width: 554
GlyphClass: 2
Flags: W
LayerCount: 2
Fore
SplineSet
263 730 m 128,-1,1
 290 730 290 730 304.5 713 c 128,-1,2
 319 696 319 696 319 683 c 0,3,4
 319 643 319 643 294 621 c 128,-1,5
 269 599 269 599 242 599 c 128,-1,6
 215 599 215 599 200.5 616 c 128,-1,7
 186 633 186 633 186 646 c 0,8,9
 186 688 186 688 211 709 c 128,-1,0
 236 730 236 730 263 730 c 128,-1,1
518 730 m 128,-1,11
 545 730 545 730 559.5 713 c 128,-1,12
 574 696 574 696 574 683 c 0,13,14
 574 643 574 643 549 621 c 128,-1,15
 524 599 524 599 497 599 c 128,-1,16
 470 599 470 599 455.5 616.5 c 128,-1,17
 441 634 441 634 441 647 c 0,18,19
 441 688 441 688 466 709 c 128,-1,10
 491 730 491 730 518 730 c 128,-1,11
249 164 m 0,20,21
 249 135 249 135 276 135 c 0,22,23
 333 135 333 135 355 172 c 1,24,-1
 412 531 l 1,25,-1
 606 531 l 1,26,-1
 521 0 l 1,27,-1
 359 0 l 1,28,-1
 336 52 l 1,29,30
 301 19 301 19 268.5 5 c 128,-1,31
 236 -9 236 -9 175.5 -9 c 128,-1,32
 115 -9 115 -9 84 18 c 0,33,34
 51 46 51 46 51 93 c 128,-1,35
 51 140 51 140 58 191 c 1,36,-1
 112 531 l 1,37,-1
 306 531 l 1,38,-1
 251 187 l 2,39,40
 249 173 249 173 249 164 c 0,20,21
EndSplineSet
AlternateSubs2: "'salt' Stylistic Alternatives in Latin lookup 16 subtable" udieresis.salt
Substitution2: "'smcp' Lowercase to Small Capitals lookup 1 subtable" udieresis.smcp
EndChar

StartChar: yacute
Encoding: 253 253 190
Width: 575
GlyphClass: 2
Flags: W
LayerCount: 2
Fore
SplineSet
314 596 m 1,0,-1
 414 739 l 1,1,-1
 559 739 l 1,2,-1
 423 596 l 1,3,-1
 314 596 l 1,0,-1
623 491 m 0,4,5
 623 418 623 418 584 324 c 1,6,-1
 454 0 l 1,7,8
 337 -274 337 -274 99 -302 c 0,9,10
 91 -303 91 -303 87 -304 c 1,11,-1
 87 -168 l 1,12,13
 156 -136 156 -136 195.5 -97.5 c 128,-1,14
 235 -59 235 -59 264 0 c 1,15,16
 110 0 110 0 100 156 c 2,17,-1
 76 531 l 1,18,-1
 277 531 l 1,19,-1
 285 195 l 2,20,21
 286 158 286 158 322 156 c 1,22,-1
 408 394 l 2,23,24
 428 449 428 449 434 532 c 1,25,-1
 620 532 l 1,26,27
 623 512 623 512 623 491 c 0,4,5
EndSplineSet
Substitution2: "'smcp' Lowercase to Small Capitals lookup 1 subtable" yacute.smcp
EndChar

StartChar: thorn
Encoding: 254 254 191
Width: 559
GlyphClass: 2
Flags: W
LayerCount: 2
Fore
SplineSet
449 530 m 0,0,1
 588 530 588 530 588 346 c 0,2,3
 588 297 588 297 578 236 c 0,4,5
 556 102 556 102 510.5 43.5 c 128,-1,6
 465 -15 465 -15 362 -15 c 0,7,8
 283 -15 283 -15 237 19 c 1,9,-1
 191 -270 l 1,10,-1
 -3 -270 l 1,11,-1
 164 782 l 1,12,-1
 358 782 l 1,13,-1
 309 475 l 1,14,15
 347 503 347 503 377.5 516.5 c 128,-1,16
 408 530 408 530 449 530 c 0,0,1
318 124 m 0,17,18
 342 124 342 124 356 148 c 128,-1,19
 370 172 370 172 380.5 232.5 c 128,-1,20
 391 293 391 293 391 309.5 c 128,-1,21
 391 326 391 326 389.5 342 c 128,-1,22
 388 358 388 358 381 365.5 c 128,-1,23
 374 373 374 373 358 373 c 0,24,25
 306 373 306 373 289 351 c 1,26,-1
 256 139 l 1,27,28
 267 124 267 124 318 124 c 0,17,18
EndSplineSet
Substitution2: "'smcp' Lowercase to Small Capitals lookup 1 subtable" thorn.smcp
EndChar

StartChar: ydieresis
Encoding: 255 255 192
Width: 575
GlyphClass: 2
Flags: W
LayerCount: 2
Fore
SplineSet
265 707 m 128,-1,1
 292 707 292 707 306.5 690 c 128,-1,2
 321 673 321 673 321 660 c 0,3,4
 321 620 321 620 296 598 c 128,-1,5
 271 576 271 576 244 576 c 128,-1,6
 217 576 217 576 202.5 593 c 128,-1,7
 188 610 188 610 188 623 c 0,8,9
 188 665 188 665 213 686 c 128,-1,0
 238 707 238 707 265 707 c 128,-1,1
520 707 m 128,-1,11
 547 707 547 707 561.5 690 c 128,-1,12
 576 673 576 673 576 660 c 0,13,14
 576 620 576 620 551 598 c 128,-1,15
 526 576 526 576 499 576 c 128,-1,16
 472 576 472 576 457.5 593.5 c 128,-1,17
 443 611 443 611 443 624 c 0,18,19
 443 665 443 665 468 686 c 128,-1,10
 493 707 493 707 520 707 c 128,-1,11
623 491 m 0,20,21
 623 418 623 418 584 324 c 1,22,-1
 454 0 l 1,23,24
 337 -274 337 -274 99 -302 c 0,25,26
 91 -303 91 -303 87 -304 c 1,27,-1
 87 -168 l 1,28,29
 156 -136 156 -136 195.5 -97.5 c 128,-1,30
 235 -59 235 -59 264 0 c 1,31,32
 110 0 110 0 100 156 c 2,33,-1
 76 531 l 1,34,-1
 277 531 l 1,35,-1
 285 195 l 2,36,37
 286 158 286 158 322 156 c 1,38,-1
 408 394 l 2,39,40
 428 449 428 449 434 532 c 1,41,-1
 620 532 l 1,42,43
 623 512 623 512 623 491 c 0,20,21
EndSplineSet
Substitution2: "'smcp' Lowercase to Small Capitals lookup 1 subtable" ydieresis.smcp
EndChar

StartChar: Amacron
Encoding: 256 256 193
Width: 711
GlyphClass: 2
Flags: W
LayerCount: 2
Fore
SplineSet
349 797 m 1,0,-1
 364 890 l 1,1,-1
 656 890 l 1,2,-1
 641 797 l 1,3,-1
 349 797 l 1,0,-1
25 0 m 1,4,-1
 370 732 l 1,5,-1
 599 732 l 1,6,-1
 705 0 l 1,7,-1
 506 0 l 1,8,-1
 485 128 l 1,9,-1
 297 128 l 1,10,-1
 240 0 l 1,11,-1
 25 0 l 1,4,-1
367 293 m 1,12,-1
 472 293 l 1,13,-1
 449 489 l 1,14,-1
 367 293 l 1,12,-1
EndSplineSet
Substitution2: "'c2sc' Capitals to Small Capitals in Latin lookup 2 subtable" amacron.smcp
EndChar

StartChar: amacron
Encoding: 257 257 194
Width: 546
GlyphClass: 2
Flags: W
LayerCount: 2
Fore
SplineSet
212 601 m 1,0,-1
 227 694 l 1,1,-1
 519 694 l 1,2,-1
 504 601 l 1,3,-1
 212 601 l 1,0,-1
338 541 m 0,4,5
 525 541 525 541 590 479 c 1,6,-1
 520 2 l 1,7,-1
 367 2 l 1,8,-1
 337 52 l 1,9,10
 306 -5 306 -5 197 -5 c 0,11,12
 120 -5 120 -5 79 82 c 0,13,14
 56 132 56 132 56 191 c 128,-1,15
 56 250 56 250 67.5 304 c 128,-1,16
 79 358 79 358 94 394.5 c 128,-1,17
 109 431 109 431 124.5 454.5 c 128,-1,18
 140 478 140 478 162 495 c 128,-1,19
 184 512 184 512 202.5 521 c 128,-1,20
 221 530 221 530 248 534 c 0,21,22
 286 541 286 541 338 541 c 0,4,5
277 353 m 128,-1,24
 265 329 265 329 258.5 283.5 c 128,-1,25
 252 238 252 238 252 220.5 c 128,-1,26
 252 203 252 203 252.5 187 c 128,-1,27
 253 171 253 171 262.5 160.5 c 128,-1,28
 272 150 272 150 290 150 c 0,29,30
 350 150 350 150 355 202 c 1,31,-1
 382 392 l 1,32,33
 373 400 373 400 359 400 c 128,-1,34
 345 400 345 400 328 396 c 128,-1,35
 311 392 311 392 300 384.5 c 128,-1,23
 289 377 289 377 277 353 c 128,-1,24
EndSplineSet
AlternateSubs2: "'salt' Stylistic Alternatives in Latin lookup 16 subtable" amacron.salt
Substitution2: "'smcp' Lowercase to Small Capitals lookup 1 subtable" amacron.smcp
EndChar

StartChar: Abreve
Encoding: 258 258 195
Width: 711
GlyphClass: 2
Flags: W
LayerCount: 2
Fore
SplineSet
465 900 m 0,0,1
 465 862 465 862 511.5 862 c 128,-1,2
 558 862 558 862 561 909 c 1,3,-1
 628 909 l 1,4,5
 623 857 623 857 591 827 c 128,-1,6
 559 797 559 797 506.5 797 c 128,-1,7
 454 797 454 797 426 825.5 c 128,-1,8
 398 854 398 854 398 897 c 0,9,10
 398 903 398 903 398 909 c 1,11,-1
 465 909 l 1,12,13
 465 904 465 904 465 900 c 0,0,1
25 0 m 1,14,-1
 370 732 l 1,15,-1
 599 732 l 1,16,-1
 705 0 l 1,17,-1
 506 0 l 1,18,-1
 485 128 l 1,19,-1
 297 128 l 1,20,-1
 240 0 l 1,21,-1
 25 0 l 1,14,-1
367 293 m 1,22,-1
 472 293 l 1,23,-1
 449 489 l 1,24,-1
 367 293 l 1,22,-1
EndSplineSet
Substitution2: "'c2sc' Capitals to Small Capitals in Latin lookup 2 subtable" abreve.smcp
EndChar

StartChar: abreve
Encoding: 259 259 196
Width: 546
GlyphClass: 2
Flags: W
LayerCount: 2
Fore
SplineSet
311 706 m 0,0,1
 311 668 311 668 357.5 668 c 128,-1,2
 404 668 404 668 407 715 c 1,3,-1
 474 715 l 1,4,5
 469 663 469 663 437 633 c 128,-1,6
 405 603 405 603 352.5 603 c 128,-1,7
 300 603 300 603 272 631.5 c 128,-1,8
 244 660 244 660 244 703 c 0,9,10
 244 709 244 709 244 715 c 1,11,-1
 311 715 l 1,12,13
 311 710 311 710 311 706 c 0,0,1
338 541 m 0,14,15
 525 541 525 541 590 479 c 1,16,-1
 520 2 l 1,17,-1
 367 2 l 1,18,-1
 337 52 l 1,19,20
 306 -5 306 -5 197 -5 c 0,21,22
 120 -5 120 -5 79 82 c 0,23,24
 56 132 56 132 56 191 c 128,-1,25
 56 250 56 250 67.5 304 c 128,-1,26
 79 358 79 358 94 394.5 c 128,-1,27
 109 431 109 431 124.5 454.5 c 128,-1,28
 140 478 140 478 162 495 c 128,-1,29
 184 512 184 512 202.5 521 c 128,-1,30
 221 530 221 530 248 534 c 0,31,32
 286 541 286 541 338 541 c 0,14,15
277 353 m 128,-1,34
 265 329 265 329 258.5 283.5 c 128,-1,35
 252 238 252 238 252 220.5 c 128,-1,36
 252 203 252 203 252.5 187 c 128,-1,37
 253 171 253 171 262.5 160.5 c 128,-1,38
 272 150 272 150 290 150 c 0,39,40
 350 150 350 150 355 202 c 1,41,-1
 382 392 l 1,42,43
 373 400 373 400 359 400 c 128,-1,44
 345 400 345 400 328 396 c 128,-1,45
 311 392 311 392 300 384.5 c 128,-1,33
 289 377 289 377 277 353 c 128,-1,34
EndSplineSet
Substitution2: "'smcp' Lowercase to Small Capitals lookup 1 subtable" abreve.smcp
EndChar

StartChar: Aogonek
Encoding: 260 260 197
Width: 711
GlyphClass: 2
Flags: W
LayerCount: 2
Fore
SplineSet
500 -103 m 0,0,1
 500 -39 500 -39 576 1 c 1,2,-1
 645 1 l 1,3,4
 596 -29 596 -29 596 -60 c 0,5,6
 596 -67 596 -67 599 -74 c 0,7,8
 607 -98 607 -98 633 -100 c 0,9,10
 638 -101 638 -101 642 -100 c 1,11,-1
 628 -190 l 1,12,13
 610 -196 610 -196 586.5 -196 c 128,-1,14
 563 -196 563 -196 531.5 -171.5 c 128,-1,15
 500 -147 500 -147 500 -103 c 0,0,1
25 0 m 1,16,-1
 370 732 l 1,17,-1
 599 732 l 1,18,-1
 705 0 l 1,19,-1
 506 0 l 1,20,-1
 485 128 l 1,21,-1
 297 128 l 1,22,-1
 240 0 l 1,23,-1
 25 0 l 1,16,-1
367 293 m 1,24,-1
 472 293 l 1,25,-1
 449 489 l 1,26,-1
 367 293 l 1,24,-1
EndSplineSet
Substitution2: "'c2sc' Capitals to Small Capitals in Latin lookup 2 subtable" aogonek.smcp
EndChar

StartChar: aogonek
Encoding: 261 261 198
Width: 546
GlyphClass: 2
Flags: W
LayerCount: 2
Fore
SplineSet
335 -103 m 0,0,1
 335 -39 335 -39 411 1 c 1,2,-1
 480 1 l 1,3,4
 431 -29 431 -29 431 -60 c 0,5,6
 431 -67 431 -67 434 -74 c 0,7,8
 442 -98 442 -98 468 -100 c 0,9,10
 473 -101 473 -101 477 -100 c 1,11,-1
 463 -190 l 1,12,13
 445 -196 445 -196 421.5 -196 c 128,-1,14
 398 -196 398 -196 366.5 -171.5 c 128,-1,15
 335 -147 335 -147 335 -103 c 0,0,1
338 541 m 0,16,17
 525 541 525 541 590 479 c 1,18,-1
 520 2 l 1,19,-1
 367 2 l 1,20,-1
 337 52 l 1,21,22
 306 -5 306 -5 197 -5 c 0,23,24
 120 -5 120 -5 79 82 c 0,25,26
 56 132 56 132 56 191 c 128,-1,27
 56 250 56 250 67.5 304 c 128,-1,28
 79 358 79 358 94 394.5 c 128,-1,29
 109 431 109 431 124.5 454.5 c 128,-1,30
 140 478 140 478 162 495 c 128,-1,31
 184 512 184 512 202.5 521 c 128,-1,32
 221 530 221 530 248 534 c 0,33,34
 286 541 286 541 338 541 c 0,16,17
277 353 m 128,-1,36
 265 329 265 329 258.5 283.5 c 128,-1,37
 252 238 252 238 252 220.5 c 128,-1,38
 252 203 252 203 252.5 187 c 128,-1,39
 253 171 253 171 262.5 160.5 c 128,-1,40
 272 150 272 150 290 150 c 0,41,42
 350 150 350 150 355 202 c 1,43,-1
 382 392 l 1,44,45
 373 400 373 400 359 400 c 128,-1,46
 345 400 345 400 328 396 c 128,-1,47
 311 392 311 392 300 384.5 c 128,-1,35
 289 377 289 377 277 353 c 128,-1,36
EndSplineSet
AlternateSubs2: "'salt' Stylistic Alternatives in Latin lookup 16 subtable" aogonek.salt
Substitution2: "'smcp' Lowercase to Small Capitals lookup 1 subtable" aogonek.smcp
EndChar

StartChar: Cacute
Encoding: 262 262 199
Width: 566
GlyphClass: 2
Flags: W
LayerCount: 2
Fore
SplineSet
405 800 m 1,0,-1
 505 943 l 1,1,-1
 650 943 l 1,2,-1
 514 800 l 1,3,-1
 405 800 l 1,0,-1
400 740 m 0,4,5
 504 740 504 740 549 732.5 c 128,-1,6
 594 725 594 725 658 700 c 1,7,-1
 634 549 l 1,8,9
 622 551 622 551 612 552 c 2,10,-1
 587 556 l 1,11,12
 517 566 517 566 464 566 c 2,13,-1
 404 566 l 2,14,15
 369 566 369 566 359.5 559 c 128,-1,16
 350 552 350 552 338.5 542.5 c 128,-1,17
 327 533 327 533 321.5 519 c 128,-1,18
 316 505 316 505 308 484 c 0,19,20
 295 449 295 449 283 374 c 128,-1,21
 271 299 271 299 271 260.5 c 128,-1,22
 271 222 271 222 278 206 c 0,23,24
 295 168 295 168 370 168 c 0,25,26
 474 168 474 168 547 174 c 1,27,-1
 575 177 l 1,28,-1
 551 26 l 1,29,30
 500 6 500 6 451 0 c 128,-1,31
 402 -6 402 -6 354 -6 c 128,-1,32
 306 -6 306 -6 282 -6 c 0,33,34
 76 -3 76 -3 76 258 c 0,35,36
 76 321 76 321 88 399 c 0,37,38
 116 580 116 580 185.5 660 c 128,-1,39
 255 740 255 740 400 740 c 0,4,5
EndSplineSet
Substitution2: "'c2sc' Capitals to Small Capitals in Latin lookup 2 subtable" cacute.smcp
EndChar

StartChar: cacute
Encoding: 263 263 200
Width: 489
GlyphClass: 2
Flags: W
LayerCount: 2
Fore
SplineSet
303 599 m 1,0,-1
 403 742 l 1,1,-1
 548 742 l 1,2,-1
 412 599 l 1,3,-1
 303 599 l 1,0,-1
287 541 m 0,4,5
 449 541 449 541 540 505 c 1,6,-1
 522 391 l 1,7,8
 463 397 463 397 403.5 397 c 128,-1,9
 344 397 344 397 330 394.5 c 128,-1,10
 316 392 316 392 301.5 379 c 128,-1,11
 287 366 287 366 279 340 c 0,12,13
 263 288 263 288 259 246 c 128,-1,14
 255 204 255 204 255 195 c 128,-1,15
 255 186 255 186 257.5 174.5 c 128,-1,16
 260 163 260 163 263.5 155.5 c 128,-1,17
 267 148 267 148 279 144 c 0,18,19
 294 139 294 139 334 139 c 0,20,21
 415 139 415 139 472 145 c 2,22,-1
 491 147 l 1,23,-1
 473 33 l 1,24,25
 420 9 420 9 368 2 c 128,-1,26
 316 -5 316 -5 269 -5 c 128,-1,27
 222 -5 222 -5 202 -5 c 0,28,29
 123 -4 123 -4 84 72 c 0,30,31
 61 118 61 118 61 178.5 c 128,-1,32
 61 239 61 239 71.5 305 c 128,-1,33
 82 371 82 371 103 421.5 c 128,-1,34
 124 472 124 472 153.5 497 c 128,-1,35
 183 522 183 522 214 531.5 c 128,-1,36
 245 541 245 541 287 541 c 0,4,5
EndSplineSet
Substitution2: "'smcp' Lowercase to Small Capitals lookup 1 subtable" cacute.smcp
EndChar

StartChar: Ccircumflex
Encoding: 264 264 201
Width: 566
GlyphClass: 2
Flags: W
LayerCount: 2
Fore
SplineSet
279 800 m 1,0,-1
 401 940 l 1,1,-1
 532 940 l 1,2,-1
 601 800 l 1,3,-1
 490 800 l 1,4,-1
 459 851 l 1,5,-1
 401 800 l 1,6,-1
 279 800 l 1,0,-1
400 740 m 0,7,8
 504 740 504 740 549 732.5 c 128,-1,9
 594 725 594 725 658 700 c 1,10,-1
 634 549 l 1,11,12
 622 551 622 551 612 552 c 2,13,-1
 587 556 l 1,14,15
 517 566 517 566 464 566 c 2,16,-1
 404 566 l 2,17,18
 369 566 369 566 359.5 559 c 128,-1,19
 350 552 350 552 338.5 542.5 c 128,-1,20
 327 533 327 533 321.5 519 c 128,-1,21
 316 505 316 505 308 484 c 0,22,23
 295 449 295 449 283 374 c 128,-1,24
 271 299 271 299 271 260.5 c 128,-1,25
 271 222 271 222 278 206 c 0,26,27
 295 168 295 168 370 168 c 0,28,29
 474 168 474 168 547 174 c 1,30,-1
 575 177 l 1,31,-1
 551 26 l 1,32,33
 500 6 500 6 451 0 c 128,-1,34
 402 -6 402 -6 354 -6 c 128,-1,35
 306 -6 306 -6 282 -6 c 0,36,37
 76 -3 76 -3 76 258 c 0,38,39
 76 321 76 321 88 399 c 0,40,41
 116 580 116 580 185.5 660 c 128,-1,42
 255 740 255 740 400 740 c 0,7,8
EndSplineSet
Substitution2: "'c2sc' Capitals to Small Capitals in Latin lookup 2 subtable" ccircumflex.smcp
EndChar

StartChar: ccircumflex
Encoding: 265 265 202
Width: 489
GlyphClass: 2
Flags: W
LayerCount: 2
Fore
SplineSet
184 598 m 1,0,-1
 306 738 l 1,1,-1
 437 738 l 1,2,-1
 506 598 l 1,3,-1
 395 598 l 1,4,-1
 364 649 l 1,5,-1
 306 598 l 1,6,-1
 184 598 l 1,0,-1
287 541 m 0,7,8
 449 541 449 541 540 505 c 1,9,-1
 522 391 l 1,10,11
 463 397 463 397 403.5 397 c 128,-1,12
 344 397 344 397 330 394.5 c 128,-1,13
 316 392 316 392 301.5 379 c 128,-1,14
 287 366 287 366 279 340 c 0,15,16
 263 288 263 288 259 246 c 128,-1,17
 255 204 255 204 255 195 c 128,-1,18
 255 186 255 186 257.5 174.5 c 128,-1,19
 260 163 260 163 263.5 155.5 c 128,-1,20
 267 148 267 148 279 144 c 0,21,22
 294 139 294 139 334 139 c 0,23,24
 415 139 415 139 472 145 c 2,25,-1
 491 147 l 1,26,-1
 473 33 l 1,27,28
 420 9 420 9 368 2 c 128,-1,29
 316 -5 316 -5 269 -5 c 128,-1,30
 222 -5 222 -5 202 -5 c 0,31,32
 123 -4 123 -4 84 72 c 0,33,34
 61 118 61 118 61 178.5 c 128,-1,35
 61 239 61 239 71.5 305 c 128,-1,36
 82 371 82 371 103 421.5 c 128,-1,37
 124 472 124 472 153.5 497 c 128,-1,38
 183 522 183 522 214 531.5 c 128,-1,39
 245 541 245 541 287 541 c 0,7,8
EndSplineSet
Substitution2: "'smcp' Lowercase to Small Capitals lookup 1 subtable" ccircumflex.smcp
EndChar

StartChar: Cdotaccent
Encoding: 266 266 203
Width: 566
GlyphClass: 2
Flags: W
LayerCount: 2
Fore
SplineSet
428 942 m 2,0,-1
 518 942 l 2,1,2
 538 942 538 942 538 924 c 0,3,4
 538 921 538 921 537 917 c 2,5,-1
 522 823 l 2,6,7
 519 800 519 800 496 800 c 2,8,-1
 406 800 l 2,9,10
 382 800 382 800 385 823 c 2,11,-1
 400 917 l 2,12,13
 403 942 403 942 428 942 c 2,0,-1
400 740 m 0,15,16
 504 740 504 740 549 732.5 c 128,-1,17
 594 725 594 725 658 700 c 1,18,-1
 634 549 l 1,19,20
 622 551 622 551 612 552 c 2,21,22
 612 552 612 552 587 556 c 0,23,24
 517 566 517 566 464 566 c 2,25,-1
 404 566 l 2,26,27
 369 566 369 566 359.5 559 c 128,-1,28
 350 552 350 552 338.5 542.5 c 128,-1,29
 327 533 327 533 321.5 519 c 128,-1,30
 316 505 316 505 308 484 c 0,31,32
 295 449 295 449 283 374 c 128,-1,33
 271 299 271 299 271 260.5 c 128,-1,34
 271 222 271 222 278 206 c 0,35,36
 295 168 295 168 370 168 c 0,37,38
 474 168 474 168 547 174 c 1,39,-1
 575 177 l 1,40,-1
 551 26 l 1,41,42
 500 6 500 6 451 0 c 128,-1,43
 402 -6 402 -6 354 -6 c 128,-1,44
 306 -6 306 -6 282 -6 c 0,45,46
 76 -3 76 -3 76 258 c 0,47,48
 76 321 76 321 88 399 c 0,49,50
 116 580 116 580 185.5 660 c 128,-1,14
 255 740 255 740 400 740 c 0,15,16
EndSplineSet
Substitution2: "'c2sc' Capitals to Small Capitals in Latin lookup 2 subtable" cdotaccent.smcp
EndChar

StartChar: cdotaccent
Encoding: 267 267 204
Width: 489
GlyphClass: 2
Flags: W
LayerCount: 2
Fore
SplineSet
321 741 m 2,0,-1
 411 741 l 2,1,2
 431 741 431 741 431 723 c 0,3,4
 431 720 431 720 430 716 c 2,5,-1
 415 622 l 2,6,7
 412 599 412 599 389 599 c 2,8,-1
 299 599 l 2,9,10
 275 599 275 599 278 622 c 2,11,-1
 293 716 l 2,12,13
 296 741 296 741 321 741 c 2,0,-1
287 541 m 0,14,15
 449 541 449 541 540 505 c 1,16,-1
 522 391 l 1,17,18
 463 397 463 397 403.5 397 c 128,-1,19
 344 397 344 397 330 394.5 c 128,-1,20
 316 392 316 392 301.5 379 c 128,-1,21
 287 366 287 366 279 340 c 0,22,23
 263 288 263 288 259 246 c 128,-1,24
 255 204 255 204 255 195 c 128,-1,25
 255 186 255 186 257.5 174.5 c 128,-1,26
 260 163 260 163 263.5 155.5 c 128,-1,27
 267 148 267 148 279 144 c 0,28,29
 294 139 294 139 334 139 c 0,30,31
 415 139 415 139 472 145 c 2,32,-1
 491 147 l 1,33,-1
 473 33 l 1,34,35
 420 9 420 9 368 2 c 128,-1,36
 316 -5 316 -5 269 -5 c 128,-1,37
 222 -5 222 -5 202 -5 c 0,38,39
 123 -4 123 -4 84 72 c 0,40,41
 61 118 61 118 61 178.5 c 128,-1,42
 61 239 61 239 71.5 305 c 128,-1,43
 82 371 82 371 103 421.5 c 128,-1,44
 124 472 124 472 153.5 497 c 128,-1,45
 183 522 183 522 214 531.5 c 128,-1,46
 245 541 245 541 287 541 c 0,14,15
EndSplineSet
Substitution2: "'smcp' Lowercase to Small Capitals lookup 1 subtable" cdotaccent.smcp
EndChar

StartChar: Ccaron
Encoding: 268 268 205
Width: 566
GlyphClass: 2
Flags: W
LayerCount: 2
Fore
SplineSet
326 940 m 1,0,-1
 437 940 l 1,1,-1
 472 889 l 1,2,-1
 526 940 l 1,3,-1
 648 940 l 1,4,-1
 526 800 l 1,5,-1
 400 800 l 1,6,-1
 326 940 l 1,0,-1
400 740 m 0,7,8
 504 740 504 740 549 732.5 c 128,-1,9
 594 725 594 725 658 700 c 1,10,-1
 634 549 l 1,11,12
 622 551 622 551 612 552 c 2,13,-1
 587 556 l 1,14,15
 517 566 517 566 464 566 c 2,16,-1
 404 566 l 2,17,18
 369 566 369 566 359.5 559 c 128,-1,19
 350 552 350 552 338.5 542.5 c 128,-1,20
 327 533 327 533 321.5 519 c 128,-1,21
 316 505 316 505 308 484 c 0,22,23
 295 449 295 449 283 374 c 128,-1,24
 271 299 271 299 271 260.5 c 128,-1,25
 271 222 271 222 278 206 c 0,26,27
 295 168 295 168 370 168 c 0,28,29
 474 168 474 168 547 174 c 1,30,-1
 575 177 l 1,31,-1
 551 26 l 1,32,33
 500 6 500 6 451 0 c 128,-1,34
 402 -6 402 -6 354 -6 c 128,-1,35
 306 -6 306 -6 282 -6 c 0,36,37
 76 -3 76 -3 76 258 c 0,38,39
 76 321 76 321 88 399 c 0,40,41
 116 580 116 580 185.5 660 c 128,-1,42
 255 740 255 740 400 740 c 0,7,8
EndSplineSet
Substitution2: "'c2sc' Capitals to Small Capitals in Latin lookup 2 subtable" ccaron.smcp
EndChar

StartChar: ccaron
Encoding: 269 269 206
Width: 489
GlyphClass: 2
Flags: W
LayerCount: 2
Fore
SplineSet
219 739 m 1,0,-1
 330 739 l 1,1,-1
 365 688 l 1,2,-1
 419 739 l 1,3,-1
 541 739 l 1,4,-1
 419 599 l 1,5,-1
 293 599 l 1,6,-1
 219 739 l 1,0,-1
287 541 m 0,7,8
 449 541 449 541 540 505 c 1,9,-1
 522 391 l 1,10,11
 463 397 463 397 403.5 397 c 128,-1,12
 344 397 344 397 330 394.5 c 128,-1,13
 316 392 316 392 301.5 379 c 128,-1,14
 287 366 287 366 279 340 c 0,15,16
 263 288 263 288 259 246 c 128,-1,17
 255 204 255 204 255 195 c 128,-1,18
 255 186 255 186 257.5 174.5 c 128,-1,19
 260 163 260 163 263.5 155.5 c 128,-1,20
 267 148 267 148 279 144 c 0,21,22
 294 139 294 139 334 139 c 0,23,24
 415 139 415 139 472 145 c 2,25,-1
 491 147 l 1,26,-1
 473 33 l 1,27,28
 420 9 420 9 368 2 c 128,-1,29
 316 -5 316 -5 269 -5 c 128,-1,30
 222 -5 222 -5 202 -5 c 0,31,32
 123 -4 123 -4 84 72 c 0,33,34
 61 118 61 118 61 178.5 c 128,-1,35
 61 239 61 239 71.5 305 c 128,-1,36
 82 371 82 371 103 421.5 c 128,-1,37
 124 472 124 472 153.5 497 c 128,-1,38
 183 522 183 522 214 531.5 c 128,-1,39
 245 541 245 541 287 541 c 0,7,8
EndSplineSet
Substitution2: "'smcp' Lowercase to Small Capitals lookup 1 subtable" ccaron.smcp
EndChar

StartChar: Dcaron
Encoding: 270 270 207
Width: 646
GlyphClass: 2
Flags: W
LayerCount: 2
Fore
SplineSet
291 937 m 1,0,-1
 402 937 l 1,1,-1
 437 886 l 1,2,-1
 491 937 l 1,3,-1
 613 937 l 1,4,-1
 491 797 l 1,5,-1
 365 797 l 1,6,-1
 291 937 l 1,0,-1
477 732 m 2,7,8
 685 732 685 732 685 468 c 0,9,10
 685 408 685 408 672 318.5 c 128,-1,11
 659 229 659 229 635 163 c 128,-1,12
 611 97 611 97 572.5 61.5 c 128,-1,13
 534 26 534 26 489.5 13 c 128,-1,14
 445 0 445 0 378 0 c 2,15,-1
 45 0 l 1,16,-1
 161 732 l 1,17,-1
 477 732 l 2,7,8
369 164 m 2,18,19
 416 164 416 164 440 209.5 c 128,-1,20
 464 255 464 255 481 364 c 1,21,22
 493 428 493 428 493 456 c 0,23,24
 493 536 493 536 470 556 c 0,25,26
 455 568 455 568 423 568 c 2,27,-1
 329 568 l 1,28,-1
 265 164 l 1,29,-1
 369 164 l 2,18,19
EndSplineSet
Substitution2: "'c2sc' Capitals to Small Capitals in Latin lookup 2 subtable" dcaron.smcp
EndChar

StartChar: dcaron
Encoding: 271 271 208
Width: 779
GlyphClass: 2
Flags: W
LayerCount: 2
Fore
SplineSet
285 539 m 0,0,1
 360 539 360 539 412 509 c 1,2,-1
 456 785 l 1,3,-1
 650 785 l 1,4,-1
 526 0 l 1,5,-1
 360 0 l 1,6,-1
 338 49 l 1,7,8
 300 21 300 21 270 7.5 c 128,-1,9
 240 -6 240 -6 199 -6 c 0,10,11
 109 -6 109 -6 77 64 c 0,12,13
 59 104 59 104 59 162 c 128,-1,14
 59 220 59 220 69 284 c 0,15,16
 93 434 93 434 136 486.5 c 128,-1,17
 179 539 179 539 285 539 c 0,0,1
292 376 m 128,-1,19
 278 352 278 352 267.5 290.5 c 128,-1,20
 257 229 257 229 257 213.5 c 128,-1,21
 257 198 257 198 258 182 c 0,22,23
 260 151 260 151 289 151 c 0,24,25
 341 151 341 151 358 173 c 1,26,-1
 392 385 l 1,27,28
 381 400 381 400 329 400 c 0,29,18
 306 400 306 400 292 376 c 128,-1,19
682 581 m 1,30,-1
 692 715 l 1,31,-1
 702 782 l 1,32,-1
 816 782 l 1,33,-1
 806 715 l 1,34,-1
 775 581 l 1,35,-1
 682 581 l 1,30,-1
EndSplineSet
AlternateSubs2: "'salt' Stylistic Alternatives in Latin lookup 16 subtable" dcaron.salt
Substitution2: "'smcp' Lowercase to Small Capitals lookup 1 subtable" dcaron.smcp
EndChar

StartChar: Dcroat
Encoding: 272 272 209
Width: 640
GlyphClass: 2
Flags: W
LayerCount: 2
Fore
SplineSet
495 732 m 2,0,1
 567 732 567 732 613.5 699 c 128,-1,2
 660 666 660 666 677 610 c 0,3,4
 698 544 698 544 698 471 c 128,-1,5
 698 398 698 398 685 333 c 1,6,7
 655 144 655 144 591 72 c 128,-1,8
 527 0 527 0 399 0 c 2,9,-1
 56 0 l 1,10,-1
 109 336 l 1,11,-1
 44 336 l 1,12,-1
 56 410 l 1,13,-1
 121 410 l 1,14,-1
 172 732 l 1,15,-1
 495 732 l 2,0,1
385 164 m 2,16,17
 427 164 427 164 450.5 210 c 128,-1,18
 474 256 474 256 491 364 c 1,19,20
 504 434 504 434 504 461 c 0,21,22
 504 537 504 537 489.5 552.5 c 128,-1,23
 475 568 475 568 449 568 c 2,24,-1
 340 568 l 1,25,-1
 315 410 l 1,26,-1
 404 410 l 1,27,-1
 392 336 l 1,28,-1
 303 336 l 1,29,-1
 276 164 l 1,30,-1
 385 164 l 2,16,17
EndSplineSet
Substitution2: "'c2sc' Capitals to Small Capitals in Latin lookup 2 subtable" dcroat.smcp
EndChar

StartChar: dcroat
Encoding: 273 273 210
Width: 555
GlyphClass: 2
Flags: W
LayerCount: 2
Fore
SplineSet
199 -6 m 0,0,1
 59 -6 59 -6 59 172 c 0,2,3
 59 222 59 222 69 286 c 0,4,5
 93 436 93 436 135.5 487.5 c 128,-1,6
 178 539 178 539 285 539 c 0,7,8
 360 539 360 539 412 509 c 1,9,-1
 426 596 l 1,10,-1
 332 596 l 1,11,-1
 344 670 l 1,12,-1
 438 670 l 1,13,-1
 456 785 l 1,14,-1
 650 785 l 1,15,-1
 632 670 l 1,16,-1
 691 670 l 1,17,-1
 679 596 l 1,18,-1
 620 596 l 1,19,-1
 526 0 l 1,20,-1
 360 0 l 1,21,-1
 338 49 l 1,22,23
 300 21 300 21 270 7.5 c 128,-1,24
 240 -6 240 -6 199 -6 c 0,0,1
292 376 m 128,-1,26
 278 352 278 352 267.5 290.5 c 128,-1,27
 257 229 257 229 257 213.5 c 128,-1,28
 257 198 257 198 258 182 c 0,29,30
 260 151 260 151 289 151 c 0,31,32
 341 151 341 151 358 173 c 1,33,-1
 392 385 l 1,34,35
 381 400 381 400 329 400 c 0,36,25
 306 400 306 400 292 376 c 128,-1,26
EndSplineSet
AlternateSubs2: "'salt' Stylistic Alternatives in Latin lookup 16 subtable" dcroat.salt
Substitution2: "'smcp' Lowercase to Small Capitals lookup 1 subtable" dcroat.smcp
EndChar

StartChar: Emacron
Encoding: 274 274 211
Width: 555
GlyphClass: 2
Flags: W
LayerCount: 2
Fore
SplineSet
275 792 m 1,0,-1
 290 885 l 1,1,-1
 582 885 l 1,2,-1
 567 792 l 1,3,-1
 275 792 l 1,0,-1
340 732 m 0,4,5
 529 732 529 732 644 716 c 1,6,-1
 618 553 l 1,7,-1
 371 553 l 2,8,9
 325 553 325 553 315 518 c 0,10,11
 313 511 313 511 311 497 c 2,12,-1
 305 457 l 1,13,-1
 551 446 l 1,14,-1
 525 285 l 1,15,-1
 276 276 l 1,16,-1
 268 228 l 2,17,18
 262 189 262 189 282 182 c 0,19,20
 297 176 297 176 322 176 c 2,21,-1
 559 176 l 1,22,-1
 533 14 l 1,23,24
 430 1 430 1 284 -2 c 2,25,-1
 233 -3 l 2,26,27
 229 -3 229 -3 213 -3 c 128,-1,28
 197 -3 197 -3 170 3 c 0,29,30
 61 27 61 27 61 135 c 0,31,32
 61 153 61 153 64 173 c 2,33,-1
 127 572 l 2,34,35
 143 674 143 674 210 706 c 0,36,37
 263 732 263 732 340 732 c 0,4,5
EndSplineSet
Substitution2: "'c2sc' Capitals to Small Capitals in Latin lookup 2 subtable" emacron.smcp
EndChar

StartChar: emacron
Encoding: 275 275 212
Width: 529
GlyphClass: 2
Flags: W
LayerCount: 2
Fore
SplineSet
207 591 m 1,0,-1
 222 684 l 1,1,-1
 514 684 l 1,2,-1
 499 591 l 1,3,-1
 207 591 l 1,0,-1
345 541 m 1,4,5
 567 541 567 541 567 392 c 0,6,7
 567 328 567 328 545.5 283 c 128,-1,8
 524 238 524 238 492 218 c 0,9,10
 430 178 430 178 364 178 c 2,11,-1
 352 178 l 1,12,13
 280 182 280 182 256 192 c 1,14,15
 255 184 255 184 255 178 c 0,16,17
 255 157 255 157 270 148 c 128,-1,18
 285 139 285 139 361.5 139 c 128,-1,19
 438 139 438 139 531 158 c 1,20,-1
 507 22 l 1,21,22
 406 -11 406 -11 290 -11 c 0,23,24
 250 -11 250 -11 208 -7 c 0,25,26
 114 1 114 1 79 86 c 0,27,28
 59 134 59 134 59 194 c 128,-1,29
 59 254 59 254 71 318 c 0,30,31
 95 445 95 445 149 492.5 c 128,-1,32
 203 540 203 540 345 541 c 1,4,5
271 316 m 1,33,34
 287 311 287 311 303.5 311 c 128,-1,35
 320 311 320 311 330.5 313 c 128,-1,36
 341 315 341 315 352 325 c 0,37,38
 368 339 368 339 368 366 c 0,39,40
 368 397 368 397 334 397 c 0,41,42
 302 397 302 397 289.5 376.5 c 128,-1,43
 277 356 277 356 271 316 c 1,33,34
EndSplineSet
Substitution2: "'smcp' Lowercase to Small Capitals lookup 1 subtable" emacron.smcp
EndChar

StartChar: Edotaccent
Encoding: 278 278 213
Width: 555
GlyphClass: 2
Flags: W
LayerCount: 2
Fore
SplineSet
406 939 m 2,0,-1
 496 939 l 2,1,2
 516 939 516 939 516 921 c 0,3,4
 516 918 516 918 515 914 c 2,5,-1
 500 820 l 2,6,7
 497 797 497 797 474 797 c 2,8,-1
 384 797 l 2,9,10
 360 797 360 797 363 820 c 2,11,-1
 378 914 l 2,12,13
 381 939 381 939 406 939 c 2,0,-1
340 732 m 0,14,15
 529 732 529 732 644 716 c 1,16,-1
 618 553 l 1,17,-1
 371 553 l 2,18,19
 325 553 325 553 315 518 c 0,20,21
 313 511 313 511 311 497 c 2,22,-1
 305 457 l 1,23,-1
 551 446 l 1,24,-1
 525 285 l 1,25,-1
 276 276 l 1,26,-1
 268 228 l 2,27,28
 262 189 262 189 282 182 c 0,29,30
 297 176 297 176 322 176 c 2,31,-1
 559 176 l 1,32,-1
 533 14 l 1,33,34
 430 1 430 1 284 -2 c 2,35,-1
 233 -3 l 2,36,37
 229 -3 229 -3 213 -3 c 128,-1,38
 197 -3 197 -3 170 3 c 0,39,40
 61 27 61 27 61 135 c 0,41,42
 61 153 61 153 64 173 c 2,43,-1
 127 572 l 2,44,45
 143 674 143 674 210 706 c 0,46,47
 263 732 263 732 340 732 c 0,14,15
EndSplineSet
Substitution2: "'c2sc' Capitals to Small Capitals in Latin lookup 2 subtable" edotaccent.smcp
EndChar

